<svg width="120" height="120" viewBox="0 0 120 120" fill="none" xmlns="http://www.w3.org/2000/svg">
<mask id="mask0" mask-type="alpha" maskUnits="userSpaceOnUse" x="13" y="13" width="94" height="94">
<path d="M101.475 33.8033H98.4V32.2583H99.9451C102.495 32.2583 104.565 30.1883 104.565 27.6383C104.565 25.0883 102.495 23.0183 99.9451 23.0183H98.4V15.3383C98.4 14.8433 98.1751 14.3933 97.7701 14.1083C97.3801 13.8233 96.8851 13.7183 96.4201 13.8683L76.65 19.9583H66.1051C65.2501 19.9583 64.5601 20.6483 64.5601 21.5033V23.0483H61.4851C60.6301 23.0483 59.9401 23.7383 59.9401 24.5933V30.7433C59.9401 31.5983 60.6301 32.2883 61.4851 32.2883H64.5601V33.8033H55.3351V19.9583C55.3351 19.1033 54.6451 18.4133 53.7901 18.4133H23.0401C22.1851 18.4133 21.4951 19.1033 21.4951 19.9583V33.8033H18.4201C15.8701 33.8183 13.815 35.8733 13.8 38.4233V87.6233C13.815 90.1733 15.8701 92.2283 18.4201 92.2433H53.8051V96.8633H44.5801C43.7251 96.8633 43.0351 97.5533 43.0351 98.4083V104.558C43.0351 105.413 43.7251 106.103 44.5801 106.103H75.3301C76.1851 106.103 76.875 105.413 76.875 104.558V98.4083C76.875 97.5533 76.1851 96.8633 75.3301 96.8633H66.1051V92.2433H101.475C104.025 92.2283 106.08 90.1733 106.095 87.6233V38.4233C106.08 35.8733 104.025 33.8033 101.475 33.8033ZM98.4 26.1083H99.9451C100.8 26.1083 101.49 26.7983 101.49 27.6533C101.49 28.5083 100.8 29.1983 99.9451 29.1983H98.4V26.1083ZM78.4201 22.6283L95.3401 17.4083V37.8533L78.4201 32.6333V22.6283ZM67.65 23.0333H75.3451V32.2583H67.65V23.0333ZM72.0301 35.3333L70.9201 43.0283H69.1801V35.3333H72.0301ZM63.0301 29.1833V26.1083H64.575V29.1833H63.0301ZM24.5851 21.5033H52.2601V43.0283H24.5851V21.5033ZM73.8 99.9233V102.998H46.125V99.9233H73.8ZM56.8801 96.8483V92.2283H63.0301V96.8483H56.8801ZM103.02 87.6233C103.02 88.4783 102.33 89.1683 101.475 89.1683H18.4351C17.5801 89.1683 16.8901 88.4783 16.8901 87.6233V86.0783H103.005V87.6233H103.02ZM103.02 83.0033H16.9051V38.4083C16.9051 37.5533 17.595 36.8633 18.45 36.8633H21.525V44.5583C21.525 45.4133 22.2151 46.1033 23.0701 46.1033H53.8201C54.6751 46.1033 55.3651 45.4133 55.3651 44.5583V36.8633H66.1351V44.5583C66.1351 45.4133 66.8251 46.1033 67.6801 46.1033H72.3C73.065 46.1033 73.7101 45.5333 73.8301 44.7833L75.1801 35.3483H76.6951L96.4651 41.4383C96.6151 41.4833 96.7651 41.4983 96.9151 41.4983C97.7551 41.4833 98.4451 40.8083 98.4601 39.9533V36.8783H101.535C102.39 36.8783 103.08 37.5683 103.08 38.4233V83.0033H103.02ZM21.5101 79.9283H61.4851C62.3401 79.9283 63.0301 79.2383 63.0301 78.3833V53.7833C63.0301 52.9283 62.3401 52.2383 61.4851 52.2383H21.5101C20.6551 52.2383 19.9651 52.9283 19.9651 53.7833V78.3833C19.9801 79.2383 20.6701 79.9283 21.5101 79.9283ZM23.0551 76.8533V56.5433L40.6951 67.4033C41.1901 67.7033 41.805 67.7033 42.3 67.4033L59.9401 56.5433V76.8533H23.0551ZM26.9551 55.3283H56.0701L41.5201 64.2833L26.9551 55.3283ZM67.65 70.7033H70.725V75.3233C70.725 76.1783 71.4151 76.8683 72.2701 76.8683H98.4151C99.2701 76.8683 99.9601 76.1783 99.9601 75.3233V56.8733C99.9601 56.0183 99.2701 55.3283 98.4151 55.3283H96.8701V50.7083C96.8701 49.8533 96.18 49.1633 95.325 49.1633H67.65C66.795 49.1633 66.1051 49.8533 66.1051 50.7083V69.1583C66.1051 70.0133 66.795 70.7033 67.65 70.7033ZM96.8701 73.7783H73.8V58.4033H96.8701V73.7783ZM69.1801 52.2533H93.7801V55.3283H72.2551C71.4001 55.3283 70.7101 56.0183 70.7101 56.8733V67.6433H69.1651V52.2533H69.1801ZM76.875 61.4783H79.95V64.5533H76.875V61.4783ZM83.025 61.4783H93.7951V64.5533H83.025V61.4783ZM76.875 67.6283H83.025V70.7033H76.875V67.6283ZM86.1 67.6283H93.7951V70.7033H86.1V67.6283ZM34.5451 38.1833C34.9951 38.4683 35.5651 38.4833 36.0451 38.2583L45.2701 33.6383C45.7951 33.3833 46.125 32.8433 46.125 32.2583C46.125 31.6733 45.7951 31.1483 45.2701 30.8783L36.0451 26.2583C35.5651 26.0183 34.9951 26.0483 34.5451 26.3333C34.0951 26.6183 33.8101 27.1133 33.8101 27.6383V36.8633C33.8251 37.4033 34.0951 37.8983 34.5451 38.1833ZM36.9 30.1283L41.1451 32.2583L36.9 34.3883V30.1283Z" fill="white"/>
</mask>
<g mask="url(#mask0)">
<rect width="120" height="120" fill="url(#paint0_linear)"/>
</g>
<defs>
<linearGradient id="paint0_linear" x1="0" y1="0" x2="120" y2="120" gradientUnits="userSpaceOnUse">
<stop stop-color="#FFE1B5"/>
<stop offset="1" stop-color="#E9D6F8"/>
</linearGradient>
</defs>
</svg>
