<svg width="120" height="120" viewBox="0 0 120 120" fill="none" xmlns="http://www.w3.org/2000/svg">
<mask id="mask0" mask-type="alpha" maskUnits="userSpaceOnUse" x="13" y="6" width="94" height="108">
<path d="M43.1401 27.7549C39.8701 28.9849 37.5301 32.1199 37.5301 35.8099C37.5301 37.2349 37.9051 38.5549 38.5201 39.7399C35.9251 40.7299 34.0801 43.2349 34.0801 46.1749C34.0801 49.1149 35.9401 51.6049 38.5201 52.6099C37.9051 53.7949 37.5301 55.1149 37.5301 56.5399C37.5301 60.2299 39.8701 63.3649 43.1401 64.5949C42.8851 65.3149 42.7201 66.0949 42.7201 66.9049C42.7201 70.7149 45.8251 73.8049 49.6351 73.8049C50.4901 73.8049 51.3151 73.6249 52.0651 73.3399C53.1901 75.6499 55.5301 77.2549 58.2601 77.2549C62.0701 77.2549 65.1751 74.1499 65.1751 70.3549V21.9949C65.1751 18.1849 62.0701 15.0799 58.2601 15.0799C55.5301 15.0799 53.1751 16.6849 52.0651 18.9949C51.3001 18.7099 50.4901 18.5299 49.6351 18.5299C45.8251 18.5299 42.7201 21.6349 42.7201 25.4449C42.7201 26.2699 42.8851 27.0349 43.1401 27.7549ZM49.6351 21.9949C51.5401 21.9949 53.0851 23.5399 53.0851 25.4449H56.5351C56.5351 23.7799 55.9201 22.2799 54.9451 21.0949C55.3501 19.6249 56.6701 18.5449 58.2601 18.5449C60.1651 18.5449 61.7101 20.0899 61.7101 21.9949V70.3549C61.7101 72.2599 60.1651 73.8049 58.2601 73.8049C56.6701 73.8049 55.3351 72.7249 54.9451 71.2549C55.9201 70.0699 56.5351 68.5549 56.5351 66.9049H53.0851C53.0851 68.8099 51.5401 70.3549 49.6351 70.3549C47.7301 70.3549 46.1851 68.8099 46.1851 66.9049C46.1851 64.9999 47.7301 63.4549 49.6351 63.4549V60.0049C47.9551 60.0049 46.4251 60.6349 45.2251 61.6399C42.8251 61.1899 40.9951 59.0899 40.9951 56.5549C40.9951 53.7049 43.3201 51.3799 46.1701 51.3799C49.0201 51.3799 51.3451 53.7049 51.3451 56.5549H54.7951C54.7951 51.7999 50.9251 47.9149 46.1551 47.9149C44.2051 47.9149 42.4201 48.5899 40.9801 49.6849V49.6399C39.0751 49.6399 37.5301 48.0949 37.5301 46.1899C37.5301 44.2849 39.0751 42.7399 40.9801 42.7399V42.6949C42.4201 43.7899 44.2051 44.4649 46.1551 44.4649C50.9101 44.4649 54.7951 40.5949 54.7951 35.8249H51.3451C51.3451 38.6749 49.0201 40.9999 46.1701 40.9999C43.3201 40.9999 40.9951 38.6749 40.9951 35.8249C40.9951 33.2899 42.8251 31.1899 45.2251 30.7399C46.4251 31.7449 47.9401 32.3749 49.6351 32.3749V28.9249C47.7301 28.9249 46.1851 27.3799 46.1851 25.4749C46.1701 23.5549 47.7301 21.9949 49.6351 21.9949ZM84.1651 18.5449C83.3101 18.5449 82.4851 18.7249 81.7351 19.0099C80.6101 16.6999 78.2701 15.0949 75.5401 15.0949C71.7301 15.0949 68.6251 18.1999 68.6251 22.0099V70.3699C68.6251 74.1799 71.7301 77.2699 75.5401 77.2699C78.2701 77.2699 80.6251 75.6649 81.7351 73.3549C82.5001 73.6399 83.3101 73.8199 84.1651 73.8199C87.9751 73.8199 91.0801 70.7299 91.0801 66.9199C91.0801 66.1099 90.9151 65.3449 90.6601 64.6099C93.9301 63.3799 96.2701 60.2449 96.2701 56.5549C96.2701 55.1299 95.8951 53.8099 95.2801 52.6249C97.8751 51.6349 99.7201 49.1299 99.7201 46.1899C99.7201 43.2499 97.8601 40.7599 95.2801 39.7549C95.8951 38.5699 96.2701 37.2499 96.2701 35.8249C96.2701 32.1349 93.9301 28.9999 90.6601 27.7699C90.9151 27.0499 91.0801 26.2849 91.0801 25.4599C91.0801 21.6499 87.9751 18.5449 84.1651 18.5449ZM92.8051 35.8249C92.8051 38.6749 90.4801 40.9999 87.6301 40.9999C84.7801 40.9999 82.4551 38.6749 82.4551 35.8249H79.0051C79.0051 40.5799 82.8751 44.4649 87.6451 44.4649C89.5951 44.4649 91.3801 43.7899 92.8201 42.6949V42.7399C94.7251 42.7399 96.2701 44.2849 96.2701 46.1899C96.2701 48.0949 94.7251 49.6399 92.8201 49.6399V49.6849C91.3801 48.5899 89.5951 47.9149 87.6451 47.9149C82.8901 47.9149 79.0051 51.7849 79.0051 56.5549H82.4551C82.4551 53.7049 84.7801 51.3799 87.6301 51.3799C90.4801 51.3799 92.8051 53.7049 92.8051 56.5549C92.8051 59.0899 90.9751 61.1899 88.5751 61.6399C87.3751 60.6349 85.8601 60.0049 84.1651 60.0049V63.4549C86.0701 63.4549 87.6151 64.9999 87.6151 66.9049C87.6151 68.8099 86.0701 70.3549 84.1651 70.3549C82.2601 70.3549 80.7151 68.8099 80.7151 66.9049H77.2651C77.2651 68.5699 77.8801 70.0699 78.8551 71.2549C78.4501 72.7249 77.1301 73.8049 75.5401 73.8049C73.6351 73.8049 72.0901 72.2599 72.0901 70.3549V21.9949C72.0901 20.0899 73.6351 18.5449 75.5401 18.5449C77.1301 18.5449 78.4651 19.6249 78.8551 21.0949C77.8801 22.2799 77.2651 23.7949 77.2651 25.4449H80.7151C80.7151 23.5399 82.2601 21.9949 84.1651 21.9949C86.0701 21.9949 87.6151 23.5399 87.6151 25.4449C87.6151 27.3499 86.0701 28.8949 84.1651 28.8949V32.3449C85.8451 32.3449 87.3751 31.7149 88.5751 30.7099C90.9751 31.1749 92.8051 33.2899 92.8051 35.8249ZM94.0951 17.2249C86.0251 9.63488 75.4501 5.83988 64.3651 6.52988L64.5751 9.97988C74.7151 9.34988 84.3601 12.8149 91.7251 19.7449C99.1051 26.6749 103.155 36.0649 103.155 46.1749C103.155 58.3699 97.0801 69.6649 86.8951 76.4149C83.3851 78.7399 80.7301 82.0699 79.0951 85.8949H54.6001C52.9351 82.0249 50.2801 78.6799 46.7551 76.3399C36.2701 69.3349 30.2401 57.6199 30.6301 45.0199L27.1801 44.9149C26.7451 58.7149 33.3451 71.5399 44.8351 79.2199C47.3701 80.9149 49.3951 83.2249 50.8051 85.9099H46.1551V89.3599H52.1851C52.5151 90.4849 52.7851 91.6249 52.9201 92.8099H49.6351V96.2599H53.0851V101.435C53.0851 102.395 53.8651 103.16 54.8101 103.16H56.5351C56.5351 108.875 61.1851 113.525 66.9001 113.525C72.6151 113.525 77.2651 108.875 77.2651 103.16H78.9901C79.9501 103.16 80.7151 102.395 80.7151 101.435V96.2599H84.1651V92.8099H80.8351C80.9551 91.6249 81.1951 90.4699 81.5251 89.3599H87.6151V85.9099H82.8901C84.2851 83.2549 86.2951 80.9749 88.8151 79.3099C99.9601 71.9149 106.62 59.5399 106.62 46.1899C106.62 35.2549 102.06 24.7099 94.0951 17.2249ZM66.9001 110.075C63.0901 110.075 59.9851 106.97 59.9851 103.16H73.8001C73.8001 106.985 70.7101 110.075 66.9001 110.075ZM77.2651 99.7099H56.5351V96.2599H77.2651V99.7099ZM77.3851 92.8099H56.4001C56.2801 91.6399 56.1001 90.4849 55.8151 89.3599H77.9251C77.6401 90.4699 77.4901 91.6399 77.3851 92.8099ZM25.4551 18.5449C29.2651 18.5449 32.3701 21.6499 32.3701 25.4599C32.3701 26.4199 33.1501 27.1849 34.0951 27.1849C35.0551 27.1849 35.8201 26.4199 35.8201 25.4599C35.8201 21.6499 38.9101 18.5449 42.7201 18.5449C43.6801 18.5449 44.4451 17.7799 44.4451 16.8199C44.4451 15.8599 43.6651 15.0949 42.7201 15.0949C38.9101 15.0949 35.8201 11.9899 35.8201 8.17988C35.8201 7.21988 35.0401 6.45488 34.0951 6.45488C33.1351 6.45488 32.3701 7.21988 32.3701 8.17988C32.3701 11.9899 29.2651 15.0949 25.4551 15.0949C24.4951 15.0949 23.7301 15.8599 23.7301 16.8199C23.7301 17.7799 24.4951 18.5449 25.4551 18.5449ZM34.0801 13.9099C34.8451 15.0649 35.8351 16.0549 36.9901 16.8199C35.8351 17.5849 34.8451 18.5749 34.0801 19.7299C33.3151 18.5749 32.3251 17.5849 31.1701 16.8199C32.3251 16.0549 33.3151 15.0649 34.0801 13.9099ZM32.3551 35.8249C33.3151 35.8249 34.0801 35.0599 34.0801 34.0999C34.0801 33.1399 33.3001 32.3749 32.3551 32.3749C28.5451 32.3749 25.4401 29.2699 25.4401 25.4749C25.4401 24.5149 24.6601 23.7499 23.7151 23.7499C22.7551 23.7499 21.9901 24.5149 21.9901 25.4749C21.9901 29.2849 18.8851 32.3749 15.0751 32.3749C14.1151 32.3749 13.3501 33.1399 13.3501 34.0999C13.3501 35.0599 14.1301 35.8249 15.0751 35.8249C18.8851 35.8249 21.9901 38.9299 21.9901 42.7399C21.9901 43.6999 22.7701 44.4649 23.7151 44.4649C24.6751 44.4649 25.4401 43.6999 25.4401 42.7399C25.4551 38.9149 28.5451 35.8249 32.3551 35.8249ZM23.7301 37.0099C22.9651 35.8549 21.9751 34.8649 20.8201 34.0999C21.9751 33.3349 22.9651 32.3449 23.7301 31.1899C24.4951 32.3449 25.4851 33.3349 26.6401 34.0999C25.4851 34.8649 24.4951 35.8549 23.7301 37.0099Z" fill="white"/>
</mask>
<g mask="url(#mask0)">
<rect width="120" height="120" fill="url(#paint0_linear)"/>
</g>
<defs>
<linearGradient id="paint0_linear" x1="0" y1="0" x2="120" y2="120" gradientUnits="userSpaceOnUse">
<stop stop-color="#FFE1B5"/>
<stop offset="1" stop-color="#E9D6F8"/>
</linearGradient>
</defs>
</svg>
