<svg width="120" height="120" viewBox="0 0 120 120" fill="none" xmlns="http://www.w3.org/2000/svg">
<mask id="mask0" mask-type="alpha" maskUnits="userSpaceOnUse" x="10" y="4" width="100" height="112">
<path d="M81.375 108.42C81.375 110.475 79.71 112.14 77.655 112.14H18.09C16.035 112.14 14.37 110.475 14.37 108.42V11.64C14.37 9.58495 16.035 7.91995 18.09 7.91995H37.41L38.76 10.62C39.075 11.25 39.72 11.655 40.425 11.655H55.32C56.025 11.655 56.67 11.25 56.985 10.62L58.335 7.91995H77.655C79.71 7.91995 81.375 9.58495 81.375 11.64V30.255H85.095V11.64C85.095 7.52995 81.765 4.19995 77.655 4.19995H18.09C13.98 4.19995 10.65 7.52995 10.65 11.64V108.42C10.65 112.53 13.98 115.86 18.09 115.86H77.655C81.765 115.86 85.095 112.53 85.095 108.42V58.17H81.375V108.42ZM96.27 37.695H92.55V32.115C92.55 31.44 92.19 30.825 91.605 30.495C91.02 30.165 90.3 30.18 89.73 30.525L80.865 35.85H68.355C67.335 35.85 66.495 36.69 66.495 37.71V48.105L66.24 48.36C64.605 47.475 62.775 47.01 60.915 47.01H57.195C58.41 45.405 59.07 43.44 59.055 41.43V33.27L59.835 32.88C62.04 31.785 63.195 29.31 62.625 26.91C62.055 24.51 59.925 22.815 57.45 22.815H49.74C44.61 22.815 40.44 26.985 40.44 32.115V47.01H34.86C28.695 47.01 23.7 52.02 23.7 58.17V86.085H19.98V89.805H75.8101V86.085H72.09V64.53L77.13 59.49C77.475 59.145 77.67 58.665 77.67 58.17V50.73H80.88L89.745 56.055C90.315 56.4 91.035 56.415 91.62 56.085C92.205 55.755 92.565 55.14 92.565 54.465V48.885H96.285C97.305 48.885 98.145 48.045 98.145 47.025V39.585C98.13 38.535 97.29 37.695 96.27 37.695ZM44.16 32.115C44.16 29.025 46.665 26.535 49.74 26.535H57.45C59.13 26.535 59.655 28.8 58.155 29.55L56.73 30.255H47.865C47.37 30.255 46.905 30.45 46.545 30.795L44.145 33.195V32.115H44.16ZM44.16 38.475L48.66 33.975H55.335V41.415C55.335 44.505 52.83 46.9949 49.755 46.9949C46.665 46.9949 44.175 44.49 44.175 41.415V38.475H44.16ZM44.16 48.8699C46.29 50.475 48.99 51.075 51.6 50.55V50.7449C51.6 52.7999 49.935 54.465 47.88 54.465C45.825 54.465 44.16 52.7999 44.16 50.7449V48.8699ZM68.355 86.085H27.405V58.17C27.405 54.06 30.735 50.73 34.845 50.73H40.425C40.425 54.84 43.755 58.17 47.865 58.17C51.975 58.17 55.305 54.84 55.305 50.73H60.885C61.74 50.73 62.595 50.88 63.405 51.165L47.865 66.705L39.87 58.71L37.245 61.335L41.52 65.61L35.775 71.355L32.445 68.025L29.82 70.65L37.035 77.865C43.02 83.85 52.74 83.85 58.725 77.865L68.355 68.235V86.085ZM73.935 57.405L56.1 75.24C53.925 77.415 50.97 78.645 47.88 78.645C44.805 78.645 41.85 77.415 39.66 75.24L38.415 73.9949L44.16 68.25L46.56 70.65C47.28 71.37 48.465 71.37 49.185 70.65L69.12 50.73H73.935V57.405ZM79.515 47.01H70.215V39.57H79.515V47.01ZM88.83 39.555V51.15L83.25 47.805V38.745L88.83 35.4V39.555ZM94.41 45.15H92.55V41.43H94.41V45.15ZM100.515 36.39L106.095 30.81L108.72 33.435L103.14 39.015L100.515 36.39ZM100.515 50.19L103.14 47.565L108.72 53.145L106.095 55.77L100.515 50.19ZM101.85 41.43H109.29V45.15H101.85V41.43ZM21.825 104.7H29.265C30.285 104.7 31.125 103.86 31.125 102.84V95.4C31.125 94.38 30.285 93.5399 29.265 93.5399H21.825C20.805 93.5399 19.965 94.38 19.965 95.4V102.84C19.965 103.875 20.79 104.7 21.825 104.7ZM23.685 97.26H27.405V100.98H23.685V97.26ZM36.705 93.5399H46.005V97.26H36.705V93.5399ZM49.74 93.5399H68.355V97.26H49.74V93.5399ZM36.705 100.98H53.46V104.7H36.705V100.98ZM57.18 100.98H60.9V104.7H57.18V100.98ZM72.075 93.5399H75.795V97.26H72.075V93.5399ZM19.965 11.64H25.545V15.36H19.965V11.64ZM70.215 11.64H75.795V15.36H70.215V11.64Z" fill="white"/>
</mask>
<g mask="url(#mask0)">
<rect width="120" height="120" fill="url(#paint0_linear)"/>
</g>
<defs>
<linearGradient id="paint0_linear" x1="0" y1="0" x2="120" y2="120" gradientUnits="userSpaceOnUse">
<stop stop-color="#FFE1B5"/>
<stop offset="1" stop-color="#E9D6F8"/>
</linearGradient>
</defs>
</svg>
