<svg width="120" height="120" viewBox="0 0 120 120" fill="none" xmlns="http://www.w3.org/2000/svg">
<mask id="mask0" mask-type="alpha" maskUnits="userSpaceOnUse" x="14" y="14" width="92" height="93">
<path d="M105.923 65.7671V65.7521V50.4521C105.923 49.3871 105.068 48.5321 104.003 48.5321H36.8029L104.423 33.1721C104.933 33.0521 105.368 32.7371 105.638 32.3021C105.908 31.8521 105.983 31.3271 105.848 30.8171L102.608 18.4421C101.858 15.4421 98.7829 13.5521 95.7379 14.2421L18.5629 32.5571C17.0479 32.9021 15.7579 33.8171 14.9479 35.1521C14.1379 36.4721 13.8979 38.0471 14.2729 39.5621L17.8129 53.5871V96.4421C17.8129 101.722 22.1029 106.012 27.3829 106.012H96.3379C101.618 106.012 105.908 101.707 105.908 96.4421V65.7971C105.923 65.7821 105.923 65.7821 105.923 65.7671ZM102.098 63.8621H87.9529L93.6979 52.3721H102.098V63.8621ZM68.7979 63.8621L74.5429 52.3721H89.4079L83.6629 63.8621H68.7979ZM49.6429 63.8621L55.3879 52.3721H70.2529L64.5079 63.8621H49.6429ZM30.5029 63.8621L36.2479 52.3721H51.1129L45.3679 63.8621H30.5029ZM21.6529 63.8621V53.3171C21.6529 53.3021 21.6529 53.2721 21.6529 53.2571V52.3571H31.9579L26.2129 63.8471H21.6529V63.8621ZM41.6479 30.9971L51.8329 41.1821L37.5079 44.4371L27.4429 34.3721L41.6479 30.9971ZM60.2329 26.5871L70.5679 36.9221L56.2579 40.1771L46.0279 29.9621L60.2329 26.5871ZM78.8029 22.1921L89.2879 32.6771L74.9929 35.9321L64.6279 25.5521L78.8029 22.1921ZM96.6079 17.9621C96.7429 17.9321 96.8929 17.9171 97.0279 17.9171C97.8829 17.9171 98.6779 18.5021 98.9029 19.3871L101.663 29.8571L93.6979 31.6721L83.1829 21.1421L96.6079 17.9621ZM18.2179 37.1471C18.4879 36.7121 18.9229 36.3971 19.4329 36.2771L23.0629 35.4221L33.0979 45.4571L20.4529 48.3371L17.9929 38.6321C17.8579 38.1071 17.9479 37.5821 18.2179 37.1471ZM96.3529 102.157H27.3979C24.2329 102.157 21.6529 99.5771 21.6529 96.4121V67.6871H102.098V96.4121C102.098 99.5771 99.5179 102.157 96.3529 102.157Z" fill="white"/>
</mask>
<g mask="url(#mask0)">
<rect width="120" height="120" fill="url(#paint0_linear)"/>
</g>
<defs>
<linearGradient id="paint0_linear" x1="0" y1="0" x2="120" y2="120" gradientUnits="userSpaceOnUse">
<stop stop-color="#FFE1B5"/>
<stop offset="1" stop-color="#E9D6F8"/>
</linearGradient>
</defs>
</svg>
