<svg width="120" height="120" viewBox="0 0 120 120" fill="none" xmlns="http://www.w3.org/2000/svg">
<mask id="mask0" mask-type="alpha" maskUnits="userSpaceOnUse" x="19" y="8" width="82" height="104">
<path d="M100.169 36.75V44.865C100.169 45.675 99.5093 46.335 98.6993 46.335C97.8893 46.335 97.2293 45.675 97.2293 44.865V36.75C97.2293 35.94 97.8893 35.28 98.6993 35.28C99.5093 35.28 100.169 35.94 100.169 36.75ZM100.169 83.85V98.685C100.169 99.495 99.5093 100.155 98.6993 100.155H86.4443C87.2543 102.24 87.2393 104.595 86.2793 106.71C84.9143 109.695 81.9293 111.615 78.6443 111.615C75.3593 111.6 72.3893 109.68 71.0243 106.695C70.0643 104.595 70.0493 102.225 70.8593 100.155H46.8743C46.4393 100.26 45.9593 100.185 45.5843 99.855C45.0743 99.42 44.9543 98.715 45.2093 98.145C45.2843 97.95 45.3893 97.77 45.5393 97.62C46.3493 96.645 46.7993 95.415 46.7993 94.14C46.7993 92.355 45.9143 90.69 44.4593 89.67C42.9893 88.65 41.1143 88.425 39.4493 89.055C37.7843 89.685 36.5243 91.08 36.0743 92.82C35.6543 94.5 36.0593 96.285 37.1543 97.62C37.3643 97.815 37.4843 98.07 37.5443 98.355C37.5593 98.445 37.5893 98.52 37.5893 98.61C37.5893 98.685 37.5893 98.745 37.5893 98.82C37.5893 98.91 37.5743 98.985 37.5443 99.06C37.4693 99.39 37.2893 99.675 36.9893 99.885C36.9593 99.9 36.9293 99.93 36.8993 99.945C36.8243 99.99 36.7343 100.035 36.6443 100.065C36.4793 100.125 36.2993 100.17 36.1193 100.17H21.3143C20.5043 100.17 19.8443 99.51 19.8443 98.7V46.86C19.7393 46.425 19.8143 45.945 20.1443 45.57C20.5793 45.06 21.2843 44.94 21.8543 45.195C22.0493 45.27 22.2293 45.375 22.3793 45.54C23.3543 46.35 24.5843 46.8 25.8593 46.8C27.6443 46.8 29.3093 45.915 30.3293 44.46C31.3493 42.99 31.5743 41.115 30.9443 39.45C30.3143 37.785 28.9193 36.525 27.1793 36.075C25.4543 35.64 23.6093 36.075 22.2743 37.245C22.2143 37.305 22.1393 37.32 22.0793 37.365C22.0043 37.41 21.9443 37.47 21.8693 37.5C21.2843 37.755 20.5943 37.65 20.1443 37.14C19.8293 36.78 19.7543 36.315 19.8443 35.88V21.315C19.8443 20.505 20.5043 19.845 21.3143 19.845H33.5693C32.7593 17.76 32.7743 15.405 33.7343 13.305C35.0993 10.32 38.0843 8.40002 41.3693 8.40002C44.6543 8.40002 47.6393 10.32 49.0043 13.305C49.9643 15.405 49.9793 17.775 49.1693 19.845H73.1243C73.5593 19.74 74.0393 19.815 74.4143 20.145C74.9243 20.58 75.0443 21.285 74.7743 21.87C74.6993 22.065 74.5943 22.23 74.4443 22.38C73.6343 23.37 73.1843 24.6 73.1843 25.875C73.1843 27.66 74.0693 29.325 75.5393 30.345C77.0093 31.365 78.8843 31.59 80.5493 30.96C82.2143 30.33 83.4743 28.935 83.9243 27.195C84.3443 25.515 83.9393 23.745 82.8593 22.41C82.6793 22.245 82.5443 22.035 82.4693 21.81C82.2443 21.24 82.3793 20.58 82.8743 20.145C83.2343 19.83 83.6993 19.755 84.1343 19.845H98.6993C99.5093 19.845 100.169 20.505 100.169 21.315V28.86C100.169 29.67 99.5093 30.33 98.6993 30.33C97.8893 30.33 97.2293 29.67 97.2293 28.86V22.8H86.4443C87.2543 24.885 87.2393 27.24 86.2793 29.34C84.9143 32.325 81.9443 34.245 78.6593 34.26H78.6443C75.3593 34.245 72.3893 32.325 71.0243 29.34C70.0643 27.24 70.0493 24.87 70.8593 22.8H61.4993V35.895C61.5893 36.33 61.5143 36.795 61.1993 37.155C60.7643 37.665 60.0593 37.785 59.4743 37.515C59.3993 37.485 59.3243 37.425 59.2493 37.38C59.1893 37.335 59.1143 37.32 59.0543 37.26C57.4493 35.865 55.1693 35.535 53.2193 36.42C51.2843 37.305 50.0393 39.24 50.0393 41.37C50.0393 43.5 51.2843 45.435 53.2193 46.32C55.1243 47.19 57.3443 46.875 58.9493 45.555C59.0993 45.405 59.2643 45.285 59.4593 45.225C60.0443 44.955 60.7493 45.075 61.1843 45.585C61.4993 45.96 61.5743 46.425 61.4843 46.875V58.53H70.8443C70.0193 56.445 70.0343 54.09 71.0093 51.975C72.3743 48.99 75.3593 47.07 78.6443 47.07C81.9293 47.07 84.9143 48.99 86.2793 51.975C87.2393 54.075 87.2543 56.445 86.4443 58.53H97.2293V52.8C97.2293 51.99 97.8893 51.33 98.6993 51.33C99.5093 51.33 100.169 51.99 100.169 52.8V73.125C100.274 73.56 100.199 74.04 99.8693 74.415C99.4193 74.94 98.7143 75.045 98.1293 74.76C98.0993 74.745 98.0843 74.73 98.0543 74.715C97.9493 74.655 97.8293 74.61 97.7393 74.52C96.7493 73.665 95.4743 73.2 94.1543 73.185C92.3693 73.185 90.7043 74.07 89.6843 75.525C88.6643 76.995 88.4393 78.87 89.0693 80.535C89.6993 82.2 91.0943 83.46 92.8343 83.895C94.5143 84.33 96.2993 83.91 97.6343 82.815C98.4293 81.99 100.169 82.335 100.169 83.85ZM22.7843 49.155V58.5H35.8943C36.3293 58.41 36.7943 58.485 37.1543 58.8C37.6643 59.235 37.7843 59.925 37.5293 60.51C37.4543 60.705 37.3493 60.87 37.1993 61.02C35.8643 62.625 35.5493 64.845 36.4193 66.765C37.3043 68.7 39.2393 69.945 41.3693 69.945C43.4993 69.945 45.4343 68.7 46.3193 66.765C47.1893 64.875 46.8743 62.655 45.5693 61.05C45.4043 60.885 45.2693 60.705 45.2093 60.495C44.9693 59.925 45.0893 59.235 45.5993 58.8C45.9743 58.485 46.4393 58.41 46.8893 58.5H58.5293V49.155C57.5543 49.53 56.5193 49.755 55.4543 49.755C52.7093 49.755 50.1293 48.405 48.5693 46.14C47.0093 43.875 46.6493 40.995 47.6093 38.43C48.5693 35.85 50.7293 33.915 53.3993 33.225C55.1243 32.79 56.9243 32.91 58.5293 33.54V22.77H46.8893C46.4543 22.875 45.9743 22.8 45.5993 22.485C45.0893 22.05 44.9693 21.345 45.2243 20.775C45.2993 20.58 45.4193 20.4 45.5693 20.25C46.3793 19.275 46.8293 18.045 46.8293 16.77C46.8293 14.985 45.9443 13.32 44.4893 12.3C43.0193 11.28 41.1443 11.055 39.4793 11.685C37.8143 12.315 36.5543 13.71 36.1043 15.45C35.6843 17.13 36.0893 18.9 37.1843 20.235C37.3943 20.445 37.5293 20.7 37.5893 20.985C37.6043 21.06 37.6193 21.135 37.6343 21.21C37.6343 21.285 37.6343 21.36 37.6343 21.435C37.6343 21.51 37.6193 21.585 37.5893 21.66C37.5143 21.99 37.3343 22.29 37.0343 22.5C37.0043 22.515 36.9743 22.545 36.9593 22.56C36.8843 22.605 36.7943 22.65 36.7043 22.68C36.5393 22.74 36.3743 22.785 36.1793 22.785H22.8293V33.555C24.4493 32.925 26.2343 32.79 27.9743 33.225C30.6443 33.9 32.8043 35.85 33.7643 38.43C34.7243 41.01 34.3643 43.89 32.8043 46.155C31.1843 48.405 28.6043 49.755 25.8593 49.755C24.7943 49.755 23.7593 49.545 22.7843 49.155ZM49.0193 90.645C49.9793 92.745 49.9943 95.115 49.1843 97.2H58.5443V84.105C58.4543 83.67 58.5293 83.205 58.8443 82.845C59.2793 82.335 59.9693 82.215 60.5393 82.47C60.7493 82.545 60.9293 82.665 61.0793 82.815C62.6843 84.135 64.9043 84.45 66.8093 83.58C68.7443 82.695 69.9893 80.76 69.9893 78.63C69.9893 76.5 68.7443 74.565 66.8093 73.68C64.8743 72.795 62.5943 73.125 60.9743 74.52C60.8843 74.61 60.7643 74.655 60.6443 74.715C60.6143 74.73 60.5993 74.745 60.5843 74.76C59.9993 75.045 59.2793 74.925 58.8293 74.415C58.5143 74.04 58.4393 73.575 58.5293 73.125V61.455H49.1843C49.9943 63.54 49.9793 65.895 49.0193 67.995C47.6543 70.98 44.6843 72.9 41.3993 72.915H41.3843C38.0993 72.9 35.1293 70.98 33.7643 67.995C32.8043 65.895 32.7893 63.525 33.5993 61.455H22.7993V97.2H33.5843C32.7743 95.115 32.7893 92.76 33.7493 90.645C35.1143 87.66 38.0993 85.74 41.3843 85.74C44.6693 85.74 47.6393 87.66 49.0193 90.645ZM97.2143 97.2V86.415C96.2393 86.79 95.2043 87.015 94.1393 87.015C91.3943 87.015 88.8143 85.665 87.2543 83.4C85.6943 81.135 85.3343 78.255 86.2943 75.69C87.2543 73.11 89.4143 71.175 92.0843 70.485C93.8093 70.05 95.6093 70.17 97.2143 70.8V61.455H83.8643C83.6693 61.455 83.5043 61.41 83.3393 61.35C83.2343 61.32 83.1593 61.275 83.0693 61.215C83.0393 61.2 83.0243 61.185 82.9943 61.155C82.7093 60.96 82.5293 60.675 82.4543 60.345C82.4243 60.255 82.4093 60.15 82.4093 60.045C82.4093 60 82.4093 59.94 82.4093 59.895C82.4093 59.79 82.4393 59.67 82.4693 59.565C82.5293 59.31 82.6493 59.085 82.8293 58.905C84.1643 57.3 84.4643 55.08 83.5943 53.175C82.7093 51.24 80.7743 49.995 78.6443 49.995C76.5143 49.995 74.5793 51.24 73.6943 53.175C72.8243 55.08 73.1393 57.3 74.4593 58.905C74.6093 59.055 74.7293 59.235 74.8043 59.43C75.0593 60.015 74.9393 60.705 74.4293 61.14C74.0543 61.455 73.5893 61.53 73.1543 61.44H61.4993V70.785C63.1193 70.155 64.9043 70.02 66.6443 70.455C69.3143 71.13 71.4743 73.08 72.4343 75.66C73.3943 78.24 73.0343 81.12 71.4743 83.385C69.8993 85.65 67.3343 87 64.5743 87C63.5093 87 62.4743 86.79 61.4993 86.4V97.185H73.1543C73.5893 97.08 74.0693 97.155 74.4443 97.47C74.9543 97.905 75.0743 98.61 74.8043 99.195C74.7293 99.39 74.6243 99.555 74.4743 99.705C73.6643 100.68 73.2143 101.91 73.2143 103.185C73.2143 104.97 74.0993 106.635 75.5693 107.655C77.0393 108.675 78.9143 108.9 80.5793 108.27C82.2443 107.64 83.5043 106.245 83.9543 104.505C84.3743 102.825 83.9693 101.055 82.8893 99.72C82.7093 99.555 82.5743 99.36 82.5143 99.135C82.2893 98.565 82.4093 97.89 82.9043 97.47C83.2643 97.155 83.7293 97.08 84.1643 97.17H97.2143V97.2Z" fill="white"/>
</mask>
<g mask="url(#mask0)">
<rect width="120" height="120" fill="url(#paint0_linear)"/>
</g>
<defs>
<linearGradient id="paint0_linear" x1="0" y1="0" x2="120" y2="120" gradientUnits="userSpaceOnUse">
<stop stop-color="#FFE1B5"/>
<stop offset="1" stop-color="#E9D6F8"/>
</linearGradient>
</defs>
</svg>
