<svg width="120" height="120" viewBox="0 0 120 120" fill="none" xmlns="http://www.w3.org/2000/svg">
<mask id="mask0" mask-type="alpha" maskUnits="userSpaceOnUse" x="0" y="30" width="111" height="60">
<path fill-rule="evenodd" clip-rule="evenodd" d="M110.666 59.055C97.0313 40.98 76.9163 30.6 55.4963 30.6C34.0763 30.6 13.9613 40.965 0.32625 59.055C-0.10875 59.64 -0.10875 60.435 0.32625 61.02C13.9613 79.095 34.0763 89.475 55.4963 89.475C76.9163 89.475 97.0313 79.11 110.666 61.02C111.101 60.435 111.101 59.625 110.666 59.055ZM55.4963 86.205C35.5013 86.205 16.6763 76.68 3.68625 60.03C16.6763 43.38 35.5013 33.855 55.4963 33.855C75.4913 33.855 94.3163 43.38 107.306 60.03C94.3163 76.68 75.4913 86.205 55.4963 86.205ZM72.5663 42.615C71.8913 43.215 71.8313 44.25 72.4313 44.91C76.1513 49.065 78.1913 54.435 78.1913 60.015C78.1913 72.525 68.0063 82.71 55.4963 82.71C42.9863 82.71 32.8013 72.525 32.8013 60.015C32.8013 47.505 42.9863 37.32 55.4963 37.32C59.1563 37.32 62.6513 38.16 65.8913 39.84C66.6863 40.245 67.6763 39.945 68.0813 39.135C68.4863 38.34 68.1863 37.35 67.3763 36.945C63.7313 35.07 59.6213 34.065 55.4963 34.065C41.1863 34.065 29.5463 45.705 29.5463 60.015C29.5463 74.325 41.1863 85.965 55.4963 85.965C69.8063 85.965 81.4463 74.325 81.4463 60.015C81.4463 53.625 79.1063 47.49 74.8613 42.735C74.2613 42.075 73.2413 42.03 72.5663 42.615ZM55.4963 70.35C49.8113 70.35 45.1763 65.715 45.1763 60.03C45.1763 54.345 49.8113 49.71 55.4963 49.71C61.1813 49.71 65.8163 54.345 65.8163 60.03C65.8163 65.715 61.1813 70.35 55.4963 70.35ZM55.4963 67.095C59.3963 67.095 62.5613 63.915 62.5613 60.03C62.5613 56.145 59.3813 52.965 55.4963 52.965C51.5963 52.965 48.4313 56.13 48.4313 60.03C48.4313 63.93 51.6113 67.095 55.4963 67.095Z" fill="white"/>
</mask>
<g mask="url(#mask0)">
<path d="M115.5 0H-4.5V120H115.5V0Z" fill="url(#paint0_linear)"/>
</g>
<defs>
<linearGradient id="paint0_linear" x1="115.5" y1="120" x2="-4.5" y2="0" gradientUnits="userSpaceOnUse">
<stop stop-color="#992184"/>
<stop offset="0.1622" stop-color="#892088"/>
<stop offset="0.4808" stop-color="#5E1E91"/>
<stop offset="0.9212" stop-color="#1A1AA0"/>
<stop offset="1" stop-color="#0D19A3"/>
</linearGradient>
</defs>
</svg>
