<svg width="24" height="24" viewBox="0 0 24 24" fill="none" xmlns="http://www.w3.org/2000/svg">
<path d="M22.5152 6.01831C21.1455 6.01831 19.8818 5.56456 18.8669 4.79909C17.703 3.92159 16.8668 2.6344 16.5715 1.15081C16.4983 0.784248 16.459 0.405967 16.4552 0.0183105H12.5426V10.7096L12.5379 16.5657C12.5379 18.1313 11.5183 19.4588 10.1051 19.9257C9.69489 20.0611 9.25192 20.1253 8.79067 20.1C8.20192 20.0677 7.65021 19.89 7.17067 19.6032C6.15021 18.9928 5.45833 17.8857 5.43958 16.6191C5.41005 14.6396 7.01036 13.0257 8.98849 13.0257C9.37896 13.0257 9.75396 13.0894 10.1051 13.2052V10.283V9.23253C9.73474 9.17769 9.35786 9.14909 8.97677 9.14909C6.81161 9.14909 4.78661 10.0491 3.33911 11.6705C2.24505 12.8958 1.5888 14.4591 1.48755 16.0983C1.35489 18.2517 2.14286 20.2988 3.67099 21.8091C3.89552 22.0308 4.1313 22.2366 4.37786 22.4264C5.68802 23.4347 7.28974 23.9813 8.97677 23.9813C9.35786 23.9813 9.73474 23.9532 10.1051 23.8983C11.681 23.6649 13.1351 22.9435 14.2826 21.8091C15.6926 20.4155 16.4716 18.5653 16.4801 16.5961L16.4599 7.85112C17.1326 8.37003 17.868 8.7994 18.6574 9.13269C19.885 9.65065 21.1868 9.91315 22.5265 9.91269V7.07159V6.01737C22.5274 6.01831 22.5161 6.01831 22.5152 6.01831Z" fill="#C10899"/>
</svg>
