<svg width="120" height="120" viewBox="0 0 120 120" fill="none" xmlns="http://www.w3.org/2000/svg">
<mask id="mask0" mask-type="alpha" maskUnits="userSpaceOnUse" x="11" y="12" width="98" height="96">
<path fill-rule="evenodd" clip-rule="evenodd" d="M105.041 15.8192C102.371 13.1642 98.3812 12.1142 94.7662 13.1342L82.3162 16.6592C78.2662 17.7992 74.5612 19.9742 71.5912 22.9442L71.5612 22.9742C70.8262 23.7092 70.8262 24.8942 71.5612 25.6292C72.2962 26.3642 73.4812 26.3642 74.2162 25.6292L74.2462 25.5992C76.7662 23.0792 79.9012 21.2342 83.3362 20.2742L95.7862 16.7492C98.1112 16.0892 100.676 16.7642 102.386 18.4742C104.111 20.1992 104.771 22.7192 104.111 25.0742L100.586 37.5242C99.6112 40.9592 97.7662 44.0942 95.2462 46.6142L61.5862 80.2892L55.9012 74.5892L65.3962 65.0942C68.0212 62.4692 68.0212 58.0892 65.3962 55.4792C62.7412 52.8242 58.4212 52.8242 55.7812 55.4792L46.2862 64.9742L40.6012 59.2892L62.6212 37.2692C63.3562 36.5342 63.3562 35.3492 62.6212 34.6142C61.8862 33.8792 60.7012 33.8792 59.9662 34.6142L51.5962 42.9842L38.1412 41.1092C32.9962 40.3892 27.7162 42.1592 24.0412 45.8342L18.0562 51.8192C17.3362 52.5392 17.3362 53.7542 18.0562 54.4742L24.1912 60.6092C26.2012 62.6192 28.8862 63.7292 31.7362 63.7292C33.9562 63.7292 36.0562 63.0542 37.8412 61.8092L43.6462 67.6142L38.7562 72.5042C38.0212 73.2392 38.0212 74.4242 38.7562 75.1592L45.7162 82.1192C46.4362 82.8392 47.6512 82.8392 48.3712 82.1192L53.2612 77.2292L59.0662 83.0342C57.8212 84.8192 57.1462 86.9192 57.1462 89.1392C57.1462 91.9892 58.2562 94.6742 60.2662 96.6842L66.4012 102.819C67.1212 103.539 68.3362 103.539 69.0562 102.819L75.0412 96.8342C78.7162 93.1592 80.4862 87.8792 79.7662 82.7342L77.8912 69.2792L97.9012 49.2692C100.871 46.2992 103.046 42.5792 104.201 38.5442L107.726 26.0942C108.761 22.4492 107.726 18.5042 105.041 15.8192ZM26.8162 57.9542L22.0162 53.1542L26.6662 48.5042C29.5162 45.6542 33.5962 44.2892 37.5862 44.8442L48.2362 46.3292L36.5962 57.9692C35.2912 59.2742 33.5512 59.9942 31.7062 59.9942C29.8612 59.9792 28.1212 59.2592 26.8162 57.9542ZM47.0212 78.1592L42.7162 73.8542L47.5912 68.9792L47.6062 68.9642L58.4362 58.1342C59.6212 56.9492 61.5562 56.9492 62.7412 58.1342C63.9112 59.3042 63.9112 61.2692 62.7412 62.4392L47.0212 78.1592ZM76.0312 83.2742C76.5862 87.2642 75.2212 91.3442 72.3712 94.1942L67.7212 98.8442L62.9212 94.0442C61.6162 92.7392 60.8962 90.9992 60.8962 89.1542C60.8962 87.3092 61.6162 85.5692 62.9212 84.2642L74.5612 72.6242L76.0312 83.2742ZM81.3712 47.9342C83.6212 47.9342 85.7512 47.0492 87.3412 45.4592C90.6262 42.1742 90.6262 36.8192 87.3412 33.5192C84.0862 30.2642 78.6562 30.2642 75.4012 33.5192C72.1462 36.7742 72.1462 42.2042 75.4012 45.4592C77.0062 47.0492 79.1212 47.9342 81.3712 47.9342ZM78.0712 36.1892C79.8712 34.3892 82.8862 34.3892 84.6862 36.1892C86.5162 38.0192 86.5162 40.9892 84.6862 42.8042C82.8862 44.6042 79.8712 44.6042 78.0712 42.8042C76.2562 41.0042 76.2562 37.9892 78.0712 36.1892ZM31.2262 70.5092C31.9612 71.2442 31.9612 72.4292 31.2262 73.1642L15.0562 89.3492C14.3362 90.0692 13.1212 90.0692 12.4012 89.3492C11.6662 88.6142 11.6662 87.4292 12.4012 86.6942L28.5712 70.5092C29.3062 69.7742 30.4912 69.7742 31.2262 70.5092ZM35.7412 85.6592C35.0062 84.9242 33.8212 84.9242 33.0862 85.6592L14.6362 104.109C13.9012 104.844 13.9012 106.029 14.6362 106.764C15.3562 107.484 16.5712 107.484 17.2912 106.764L35.7412 88.3142C36.4762 87.5942 36.4762 86.3942 35.7412 85.6592ZM40.7212 95.4392L49.8712 86.2892C50.6062 85.5542 51.8062 85.5542 52.5412 86.2892C53.2762 87.0242 53.2762 88.2092 52.5412 88.9442L43.3912 98.0942C43.0162 98.4692 42.5362 98.6492 42.0562 98.6492C41.5762 98.6492 41.0812 98.4542 40.7212 98.0942C39.9862 97.3592 39.9862 96.1742 40.7212 95.4392ZM37.5262 102.654C37.1362 101.709 36.0262 101.244 35.0662 101.634C34.1212 102.024 33.6562 103.149 34.0462 104.094C34.4362 105.039 35.5612 105.504 36.5062 105.114C37.4512 104.724 37.9162 103.599 37.5262 102.654ZM68.7562 30.8792C68.1562 32.4392 65.8912 32.4542 65.2612 30.9242C64.9162 30.0842 65.2312 29.0642 66.0412 28.5842C66.7162 28.1942 67.5862 28.2542 68.2012 28.7492C68.8162 29.2592 69.0412 30.1292 68.7562 30.8792Z" fill="white"/>
</mask>
<g mask="url(#mask0)">
<path d="M120 0H0V120H120V0Z" fill="url(#paint0_linear)"/>
</g>
<defs>
<linearGradient id="paint0_linear" x1="120" y1="120" x2="0" y2="0" gradientUnits="userSpaceOnUse">
<stop stop-color="#992184"/>
<stop offset="0.1622" stop-color="#892088"/>
<stop offset="0.4808" stop-color="#5E1E91"/>
<stop offset="0.9212" stop-color="#1A1AA0"/>
<stop offset="1" stop-color="#0D19A3"/>
</linearGradient>
</defs>
</svg>
