<svg width="120" height="120" viewBox="0 0 120 120" fill="none" xmlns="http://www.w3.org/2000/svg">
<mask id="mask0" mask-type="alpha" maskUnits="userSpaceOnUse" x="8" y="8" width="104" height="104">
<path fill-rule="evenodd" clip-rule="evenodd" d="M59.9999 11.7C54.2999 11.7 48.8249 13.44 44.1749 16.71C43.4999 17.19 42.5549 17.025 42.0749 16.365C41.5949 15.675 41.7599 14.745 42.4349 14.265C47.5949 10.62 53.6699 8.70001 59.9999 8.70001C76.8149 8.70001 90.495 22.38 90.495 39.195C90.495 46.185 88.1849 52.77 83.8349 58.215C83.5499 58.59 83.1 58.785 82.665 58.785C82.35 58.785 82.0199 58.68 81.7349 58.455C81.0899 57.93 80.97 56.985 81.495 56.34C85.425 51.42 87.495 45.495 87.495 39.195C87.495 24.03 75.1649 11.7 59.9999 11.7ZM78.5099 63.42C73.1549 67.515 66.7649 69.675 60 69.675C43.185 69.675 29.5049 55.995 29.5049 39.18C29.5049 31.845 32.1449 24.765 36.9299 19.23C37.4699 18.6 38.415 18.54 39.045 19.08C39.675 19.62 39.735 20.565 39.195 21.195C34.875 26.19 32.5049 32.58 32.5049 39.18C32.5049 54.345 44.8349 66.675 60 66.675C66.1049 66.675 71.865 64.725 76.695 61.035C77.355 60.54 78.285 60.66 78.795 61.32C79.29 61.98 79.1699 62.91 78.5099 63.42ZM44.5799 46.755L50.64 52.815C51.51 53.685 52.9349 53.685 53.8049 52.815L65.3549 41.265L68.3699 44.28C69.7349 45.645 72.0899 44.745 72.1799 42.825L73.0499 26.715C73.0799 26.085 72.8399 25.455 72.4049 25.005C71.9549 24.555 71.3399 24.315 70.6949 24.345L54.5849 25.215C52.6499 25.32 51.75 27.66 53.115 29.04L56.1299 32.055L44.5799 43.605C43.6949 44.46 43.6949 45.87 44.5799 46.755ZM58.7999 33.615C59.2199 33.195 59.4599 32.625 59.4599 32.025C59.4599 31.425 59.2199 30.87 58.7999 30.45L56.4599 28.11L70.0049 27.375L69.2699 40.92L66.9299 38.58C66.0599 37.71 64.6349 37.71 63.7649 38.58L52.215 50.13L47.2349 45.15L58.7999 33.615ZM101.25 79.335C104.865 77.64 108.195 78.345 110.16 81.225C112.02 83.955 111.555 87.66 109.08 89.85C109.02 89.91 108.96 89.955 108.885 90L79.9049 108.36C76.9349 110.235 73.4849 111.24 69.9599 111.24H46.815C44.595 111.24 42.4199 110.85 40.3349 110.07L24.7349 104.265V104.775C24.7349 107.235 22.7399 109.23 20.2799 109.23H13.1549C10.6949 109.23 8.69995 107.235 8.69995 104.775V68.655C8.69995 66.195 10.6949 64.2 13.1549 64.2H20.2799C22.7399 64.2 24.7349 66.195 24.7349 68.655V69.645C30.3899 69.675 35.9699 71.19 40.8599 74.055C41.1314 74.2148 41.3926 74.3694 41.6452 74.519C44.5478 76.2379 46.328 77.292 49.695 77.775L66.8549 79.755H66.9C72.075 80.49 75.225 85.125 75.195 88.56L75.1799 90.81L101.25 79.335ZM78.3 105.825L107.175 87.525C108.435 86.325 108.66 84.36 107.685 82.89C106.29 80.85 104.1 81.3 102.525 82.05C102.517 82.05 102.51 82.0537 102.502 82.0575C102.495 82.0612 102.487 82.065 102.48 82.065L74.265 94.485C74.07 94.56 73.86 94.605 73.665 94.605H56.1299C55.3049 94.605 54.6299 93.93 54.6299 93.105C54.6299 92.28 55.3049 91.605 56.1299 91.605H72.1799L72.195 88.605C71.85 85.575 69.525 83.16 66.495 82.725L49.3349 80.745H49.29C45.346 80.1875 43.2148 78.9309 40.0813 77.0834C39.8421 76.9423 39.5971 76.7979 39.345 76.65C34.92 74.055 29.8649 72.675 24.7349 72.645V77.31C24.7349 78.135 24.0599 78.81 23.2349 78.81C22.4099 78.81 21.7349 78.135 21.7349 77.31V68.655C21.7349 67.86 21.0749 67.215 20.2799 67.215H13.1549C12.3599 67.215 11.715 67.86 11.715 68.655V104.79C11.715 105.585 12.3599 106.23 13.1549 106.23H20.2799C21.0899 106.23 21.7349 105.585 21.7349 104.79V84.345C21.7349 83.52 22.4099 82.845 23.2349 82.845C24.0599 82.845 24.7349 83.52 24.7349 84.345V101.07L41.3849 107.265C43.1249 107.91 44.955 108.24 46.815 108.24H69.9599C72.9149 108.24 75.795 107.415 78.3 105.825Z" fill="white"/>
</mask>
<g mask="url(#mask0)">
<path d="M120 0H0V120H120V0Z" fill="url(#paint0_linear)"/>
</g>
<defs>
<linearGradient id="paint0_linear" x1="120" y1="120" x2="0" y2="0" gradientUnits="userSpaceOnUse">
<stop stop-color="#992184"/>
<stop offset="0.1622" stop-color="#892088"/>
<stop offset="0.4808" stop-color="#5E1E91"/>
<stop offset="0.9212" stop-color="#1A1AA0"/>
<stop offset="1" stop-color="#0D19A3"/>
</linearGradient>
</defs>
</svg>
