<svg width="522" height="539" viewBox="0 0 522 539" fill="none" xmlns="http://www.w3.org/2000/svg">
<g clip-path="url(#clip0)">
<path d="M267.2 482.1L249.6 473.4C268 472.3 285.9 468.7 302.9 462.8L320.5 471.5C303.5 477.4 285.6 481 267.2 482.1Z" fill="#9E9E9E"/>
<path d="M320.5 471.5L302.9 462.8C315.1 458.6 326.8 453.3 338 446.9L355.6 455.6C344.4 461.9 332.7 467.3 320.5 471.5Z" fill="#999999"/>
<path d="M355.6 455.6L338 446.9C348.1 441.1 357.8 434.6 366.9 427.3L384.5 436C375.4 443.3 365.7 449.9 355.6 455.6Z" fill="#949494"/>
<path d="M384.5 436L366.9 427.3C376.2 419.9 384.9 411.7 393 402.8L410.6 411.5C402.5 420.3 393.8 428.5 384.5 436Z" fill="#8F8F8F"/>
<path d="M410.6 411.5L393 402.8C402.4 392.5 410.8 381.4 418.3 369.5L435.9 378.2C428.4 390.1 419.9 401.2 410.6 411.5Z" fill="#8A8A8A"/>
<path d="M435.9 378.2L418.3 369.5C440.3 334.4 453.3 293.1 453.8 249.4L471.4 258.1C470.9 301.7 457.8 343.1 435.9 378.2Z" fill="#858585"/>
<path d="M370.5 264L352.9 255.3L370.1 254.2L387.8 263L370.5 264Z" fill="#A6A6A6"/>
<path d="M387.8 263L370.1 254.2L371.1 157.4L388.8 166.2L387.8 263Z" fill="#808080"/>
<path d="M315.1 267.2L297.5 258.5L314.7 257.5L332.3 266.2L315.1 267.2Z" fill="#A6A6A6"/>
<path d="M333 203.7L315.4 195L317.1 194.9L334.7 203.6L333 203.7Z" fill="#A6A6A6"/>
<path d="M332.3 266.2L314.7 257.5L315.4 195L333 203.7L332.3 266.2Z" fill="#808080"/>
<path d="M369.3 228.1L351.7 219.4L315.9 160.7L333.5 169.4L369.3 228.1Z" fill="#808080"/>
<path d="M173.8 463.4L156.2 454.7C165.2 459.2 174.6 462.9 184.3 465.8L201.9 474.5C192.2 471.6 182.8 467.9 173.8 463.4Z" fill="#9E9E9E"/>
<path d="M202 474.6L184.4 465.9C203 471.5 222.9 474.3 243.6 473.7L261.2 482.4C240.5 482.9 220.6 480.2 202 474.6Z" fill="#A3A3A3"/>
<path d="M261.2 482.4L243.6 473.7C245.6 473.6 247.6 473.6 249.6 473.4L267.2 482.1C265.2 482.2 263.2 482.3 261.2 482.4Z" fill="#9E9E9E"/>
<path d="M206.5 273.6L188.8 264.9L206.1 263.9L223.7 272.6L206.5 273.6Z" fill="#A6A6A6"/>
<path d="M223.7 272.6L206.1 263.9L207.1 167.1L224.7 175.8L223.7 272.6Z" fill="#808080"/>
<path d="M151.1 276.9L133.4 268.2L150.7 267.1L168.3 275.9L151.1 276.9Z" fill="#A6A6A6"/>
<path d="M272.1 9.2L254.5 0.499997C257 0.399997 259.5 0.199997 262 0.199997L279.6 8.9C277.1 8.9 274.6 9 272.1 9.2Z" fill="#9E9E9E"/>
<path d="M279.6 8.8L262 0.100003C287.9 -0.599997 312.7 2.8 336 9.8L353.6 18.5C330.3 11.5 305.5 8.1 279.6 8.8Z" fill="#A3A3A3"/>
<path d="M353.6 18.6L336 9.8C348.2 13.5 359.9 18.1 371.1 23.7L388.7 32.4C377.5 26.9 365.8 22.2 353.6 18.6Z" fill="#9E9E9E"/>
<path d="M168.3 275.9L150.7 267.1L151.3 204.6L168.9 213.4L168.3 275.9Z" fill="#808080"/>
<path d="M168.9 213.4L151.3 204.6L153 204.5L170.7 213.3L168.9 213.4Z" fill="#A6A6A6"/>
<path d="M205.3 237.8L187.6 229L151.8 170.3L169.4 179.1L205.3 237.8Z" fill="#808080"/>
<path d="M181.1 448.6L163.5 439.9C104.4 410.6 64.4 347.5 65.2 272.2L82.8 280.9C82.1 356.2 122 419.3 181.1 448.6Z" fill="#858585"/>
<path d="M150 514.8L132.4 506.1C52.7 466.5 -1 381.4 2.41213e-07 279.7C0.6 225.1 16.8 173.5 44.2 129.8L61.8 138.5C34.4 182.2 18.1 233.9 17.6 288.4C16.6 390.1 70.3 475.2 150 514.8Z" fill="#858585"/>
<path d="M61.9 138.5L44.3 129.8C53.6 115 64.1 101.2 75.7 88.4L93.3 97.1C81.7 109.9 71.1 123.7 61.9 138.5Z" fill="#8A8A8A"/>
<path d="M93.3 97.1L75.7 88.4C85.7 77.4 96.6 67.2 108.1 58L125.7 66.7C114.2 75.9 103.3 86.1 93.3 97.1Z" fill="#8F8F8F"/>
<path d="M125.7 66.6L108.1 57.9C119.5 48.8 131.5 40.6 144.1 33.5L161.7 42.2C149.1 49.4 137.1 57.6 125.7 66.6Z" fill="#949494"/>
<path d="M161.7 42.2L144.1 33.5C158 25.6 172.7 18.9 187.8 13.7L205.4 22.4C190.3 27.7 175.6 34.3 161.7 42.2Z" fill="#999999"/>
<path d="M205.4 22.4L187.8 13.7C209.1 6.39999 231.4 1.79999 254.5 0.399994L272.1 9.09999C249.1 10.5 226.7 15.1 205.4 22.4Z" fill="#9E9E9E"/>
<path d="M272.1 9.2C411.1 0.999997 522.6 112.8 521.1 258.8C519.6 404.8 405.6 529.9 266.6 538.1C127.6 546.3 16.1 434.5 17.6 288.5C19.2 142.4 133.1 17.3 272.1 9.2ZM267.2 482.1C378.6 475.5 470.2 375 471.4 258.1L456 259C454.9 367.1 370.3 459.9 267.4 465.9C164.5 472 81.7 389 82.9 280.9L67.5 281.8C66.2 398.8 155.8 488.6 267.2 482.1ZM316.1 170.5L315.1 267.3L332.3 266.3L333 203.8L334.7 203.7L370.5 264.1L387.7 263.1L388.7 166.3L371.5 167.3L370.9 228.1L369.3 228.2L333.5 169.5L316.1 170.5ZM152.1 180.1L151.1 276.9L168.3 275.9L169 213.4L170.7 213.3L206.5 273.7L223.7 272.7L224.7 175.9L207.5 176.9L206.9 237.7L205.3 237.8L169.5 179.1L152.1 180.1Z" fill="white"/>
</g>
<defs>
<clipPath id="clip0">
<rect width="521.1" height="538.5" fill="white"/>
</clipPath>
</defs>
</svg>
