<svg width="900" height="106" viewBox="0 0 900 106" fill="none" xmlns="http://www.w3.org/2000/svg">
<g clip-path="url(#clip0)">
<path d="M35.6 31.1V66.7C35.6 81.7 40.5 83.3 48.4 83.7V85.8H0V83.7C9.8 83.4 13 80.9 13 66.7V31.1C13 17.7 9.8 15.3 0 15V12.9H48.4V15C40.5 15.3 35.6 17 35.6 31.1Z" fill="white"/>
<path d="M123 83.6V85.7H87.5V83.6C93.8 83 93.2 79.8 93.2 74.8V45.5C93.2 40.3 91.3 37.5 86.9 37.5C82.9 37.5 76.2 43.2 75.9 52.5V74.9C75.9 79.9 75.3 83.1 81.6 83.7V85.8H46V83.7C53.6 83.1 55 79.5 55 73.3V41C55 34.8 53.5 31.2 46 30.6V28.5H75.9V43.2C79.1 34.5 86.6 27.5 96.4 27.5C107.7 27.5 114.1 33.4 114.1 44.6V73.3C114 79.5 115.5 83 123 83.6Z" fill="white"/>
<path d="M146.3 30.6V71.7C146.3 76 149 79.4 152.5 79.4C156.6 79.4 158.6 75.8 158.6 66.1H160.7C160.7 81.5 155 86.7 143.7 86.7C131.1 86.7 125.3 80 125.3 68.1L125.4 30.7H119.3V28.6C134.6 28.6 144.2 18.7 144.2 13H146.3V28.6H162V30.7H146.3V30.6Z" fill="white"/>
<path d="M203.2 52.6C206.1 49.3 207.6 45.4 207.6 41.9C207.6 38.7 205.9 36.8 202.7 36.8C199.5 36.8 191.3 38.2 191 67.3C191.1 79.5 194.2 83.3 208 83.6V85.7H161.2V83.6C168.8 83 170.2 79.4 170.2 73.2V41C170.2 34.8 168.7 31.2 161.2 30.6V28.5H191.1V46.7C193.9 34.1 199.9 27.5 209.9 27.5C217.2 27.5 222.9 30.8 222.9 38.7C222.9 47.8 215 53.8 203.2 52.6Z" fill="white"/>
<path d="M283.1 56.9C283.1 75.5 269.3 86.8 251.4 86.8C233.5 86.8 219.8 75.6 219.8 56.9C219.8 38.4 233.5 27.5 251.4 27.5C269.3 27.5 283.1 38.4 283.1 56.9ZM260.2 56.9C260.2 39.8 257.5 29.5 251.4 29.5C245.3 29.5 242.6 39.8 242.6 56.9C242.6 74.1 245.3 84.7 251.4 84.7C257.5 84.7 260.2 74.1 260.2 56.9Z" fill="white"/>
<path d="M355.7 83.6V85.7H325.8V74.3C322.5 82.6 316.1 86.8 306.9 86.8C293.8 86.8 284.6 75 284.6 57.1C284.6 39.2 293.8 27.6 306.9 27.6C316.2 27.6 322.5 31.8 325.8 40.1V25.4C325.8 19.2 324.3 15.6 316.9 15V12.9H346.6V73.2C346.7 79.5 348.1 83 355.7 83.6ZM325.9 57.1C325.9 39.6 322.2 34.9 315.7 34.9C310.7 34.9 305.9 39.5 305.9 57C305.9 74.8 310.9 79.2 315.9 79.2C321.8 79.2 325.9 75.1 325.9 57.1Z" fill="white"/>
<path d="M427 83.6V85.7H397.1V71C393.9 79.7 386.4 86.7 376.6 86.7C365.3 86.7 358.9 80.8 358.9 69.6V41C358.9 34.8 357.4 31.2 349.9 30.6V28.5H379.8V68.8C379.8 73.9 381.7 76.7 386.1 76.7C390.1 76.7 396.8 71.1 397.1 61.8V41C397.1 34.8 395.6 31.2 388.2 30.6V28.5H417.9V73.2C417.9 79.5 419.4 83 427 83.6Z" fill="white"/>
<path d="M425 58.5C425 40.3 438.5 27.5 456.9 27.5C470.5 27.5 476.5 33 476.5 40C476.5 49.8 468 51.9 456 51.9C459.3 48.3 461.4 42.2 461.4 37C461.4 32.7 460.2 29.6 456.8 29.6C452.3 29.6 445.9 36.8 445.9 50.6C445.9 66.1 453.6 73.6 463.9 73.6C473.1 73.6 477.6 67.4 479.1 60.5L480.2 60.9C477.9 79 467.1 86.8 453.7 86.8C439.4 86.8 425 77.7 425 58.5Z" fill="white"/>
<path d="M516.5 83.6V85.7H477.7V83.6C485.3 83 486.8 79.4 486.8 73.2V41C486.8 34.8 485.3 31.2 477.7 30.6V28.5H507.6V73.2C507.6 79.5 509 83 516.5 83.6ZM484.8 10.9C484.8 4.1 490 0 496.1 0C502.4 0 507.5 4.1 507.5 10.9C507.5 17.2 502.4 21.1 496.1 21.1C490 21.1 484.8 17.3 484.8 10.9Z" fill="white"/>
<path d="M590.5 83.6V85.7H554.9V83.6C561.2 83 560.6 79.8 560.6 74.8V45.5C560.6 40.3 558.7 37.5 554.3 37.5C550.3 37.5 543.6 43.2 543.3 52.5V74.9C543.3 79.9 542.7 83.1 549 83.7V85.8H513.4V83.7C521 83.1 522.4 79.5 522.4 73.3V41C522.4 34.8 520.9 31.2 513.4 30.6V28.5H543.3V43.2C546.5 34.5 554 27.5 563.8 27.5C575.1 27.5 581.5 33.4 581.5 44.6V73.3C581.4 79.5 582.9 83 590.5 83.6Z" fill="white"/>
<path d="M642.6 29.2C643.4 26.3 644 23.9 644 22C644 19.3 642.8 17.6 639.4 17.6C634.5 17.6 632.1 22.8 631.2 28.9C640.9 31.6 647 37.8 647 47.2C647 60.4 635.1 67.3 618.2 67.3C614.9 67.3 611.6 67 608.8 66.5C600.7 67.2 598 68.4 598 70.3C598 72.9 602.9 73.3 605.5 73.3H628.8C642.3 73.3 651.7 75.5 651.7 86.3C651.7 97.8 639.7 105.3 613.3 105.3C598.1 105.3 588.2 101.2 588.2 97.3C588.2 92.3 593.7 91.5 602.1 91.3C594.6 89.7 588.7 84.5 588.7 77.2C588.7 71.6 592.3 66.7 603.1 64.9C594.8 61.9 589.9 56 589.9 47.2C589.9 34 601.4 27.3 618.3 27.3C622.1 27.3 625.7 27.6 628.9 28.3C630.1 17.2 637.7 9.79999 646 9.79999C651.9 9.79999 655.6 13.6 655.6 17.9C655.5 22.5 651.6 27.4 642.6 29.2ZM613.5 92.2C604.8 92.2 598.5 93.3 598.5 96.6C598.5 99.9 605.2 103.5 617.6 103.5C631 103.5 639.1 99.7 639.1 94.9C639.1 91.9 635.6 92.3 629.4 92.3H613.5V92.2ZM627.6 47.1C627.6 34.6 624.8 29.5 618.2 29.5C612 29.5 608.9 34.4 608.9 47.1C608.9 60.4 611.9 65.3 618.2 65.3C624.8 65.3 627.6 60.1 627.6 47.1Z" fill="white"/>
<path d="M679.5 52.2H652.5V54.1H679.5V52.2Z" fill="white"/>
<path d="M778.9 12.9V15C773.3 16.1 770.1 19.2 762.5 30.8L747.7 53.5V67C747.7 80.8 750.4 83.3 758.8 83.6V85.7H714V83.6C722.4 83.3 725.1 80.8 725.1 67V52.7L709.5 28.7C704.4 20.9 701.4 15.2 692.6 15V12.9H741.3V15C727.4 15.6 727.1 19.7 733.5 29.6L746.8 49.9L761 28.4C766.3 20.4 762.6 16.6 748.9 15V12.9H778.9Z" fill="white"/>
<path d="M826.3 56.9C826.3 75.5 812.5 86.8 794.6 86.8C776.7 86.8 763 75.6 763 56.9C763 38.4 776.7 27.5 794.6 27.5C812.4 27.5 826.3 38.4 826.3 56.9ZM803.4 56.9C803.4 39.8 800.7 29.5 794.6 29.5C788.5 29.5 785.8 39.8 785.8 56.9C785.8 74.1 788.5 84.7 794.6 84.7C800.7 84.7 803.4 74.1 803.4 56.9Z" fill="white"/>
<path d="M900 83.6V85.7H870.1V71C866.9 79.7 859.4 86.7 849.6 86.7C838.3 86.7 831.9 80.8 831.9 69.6V41C831.9 34.8 830.4 31.2 822.9 30.6V28.5H852.8V68.8C852.8 73.9 854.7 76.7 859.1 76.7C863.1 76.7 869.8 71.1 870.1 61.8V41C870.1 34.8 868.6 31.2 861.2 30.6V28.5H891V73.2C891 79.5 892.4 83 900 83.6Z" fill="white"/>
</g>
<defs>
<clipPath id="clip0">
<rect width="900" height="105.5" fill="white"/>
</clipPath>
</defs>
</svg>
