<svg width="612" height="566" viewBox="0 0 612 566" fill="none" xmlns="http://www.w3.org/2000/svg">
<g style="mix-blend-mode:soft-light">
<path d="M120.062 410.712C117.753 410.712 115.519 410.563 113.211 410.339C89.2342 407.584 68.6081 390.681 50.1414 358.514C42.993 346.153 41.6526 332.601 46.0459 318.155C54.9814 289.04 88.1172 255.234 144.634 217.779C168.462 201.993 194.822 186.58 220.512 172.581C215.001 160.071 212.991 148.753 214.629 139.073C217.607 121.499 232.351 109.288 258.413 102.735C392.445 69.2268 417.837 65.5037 419.55 70.1948C421.114 74.4392 403.764 83.1513 349.778 109.064C336.301 115.542 320.961 122.914 305.026 130.733C281.72 142.2 252.456 156.795 222.373 173.251C228.107 185.686 237.34 199.462 249.999 214.056C264.444 230.81 282.762 248.086 303.388 264.542C322.451 244.66 339.8 227.832 357.15 214.205C385.744 191.792 409.721 182.782 430.347 186.505C455.366 191.047 476.141 213.982 493.789 256.574C511.064 298.273 511.883 325.973 496.321 338.781C484.109 348.833 461.844 349.057 431.911 339.526C405.03 330.962 372.638 314.581 340.62 293.359C327.663 284.796 315.228 275.786 303.537 266.478C295.868 274.52 287.826 283.009 279.486 292.019L275.837 295.891C223.341 352.408 169.132 410.637 120.062 410.712ZM221.107 173.921C195.492 187.92 169.281 203.259 145.453 219.045C89.2342 256.351 56.3218 289.785 47.4607 318.602C43.2164 332.601 44.5567 345.78 51.4073 357.769C69.5761 389.415 89.8299 406.17 113.286 408.85C163.399 414.584 219.99 353.822 274.646 294.997L278.294 291.125C286.634 282.189 294.602 273.626 302.271 265.659C281.571 249.128 263.253 231.853 248.733 215.099C236.223 200.355 226.915 186.505 221.107 173.921ZM304.58 265.435C316.27 274.669 328.631 283.679 341.439 292.167C373.383 313.24 405.625 329.622 432.357 338.111C461.77 347.493 483.587 347.344 495.353 337.664C510.32 325.303 509.352 298.199 492.374 257.17C474.95 215.024 454.547 192.388 430.049 187.994C409.87 184.346 386.265 193.281 358.044 215.397C340.917 228.874 323.642 245.628 304.58 265.435ZM414.784 69.9714C410.614 69.9714 401.306 71.0139 381.127 75.1838C356.257 80.3217 317.387 89.5551 258.711 104.224C233.319 110.553 218.948 122.393 216.044 139.296C214.406 148.753 216.416 159.699 221.777 171.911C251.86 155.529 281.05 140.86 304.356 129.467C320.291 121.648 335.631 114.277 349.108 107.798C369.883 97.8204 387.829 89.1828 400.115 82.7045C417.539 73.5457 418.284 71.2373 418.135 70.7161C418.061 70.3437 417.39 69.9714 414.784 69.9714Z" fill="url(#paint0_linear)"/>
<path d="M134.433 403.414C103.308 403.414 71.0655 389.489 47.2376 345.482C40.5359 333.047 39.4934 319.346 44.1845 304.826C53.4923 276.083 85.3623 243.022 138.901 206.61C163.325 190.005 192.365 172.655 225.724 154.709C222.075 145.104 220.81 136.317 222.001 128.647C224.458 113.01 236.819 102.064 258.86 96.0329L259.083 96.7775L258.86 96.0329C311.654 81.7361 346.874 72.6516 369.883 67.3648C401.158 60.2909 404.508 61.5568 405.104 63.3439C406.593 67.3648 388.499 76.3748 332.205 103.181C320.366 108.84 307.037 115.17 293.261 121.871C269.806 133.264 247.839 144.433 227.437 155.379C232.872 169.155 243.148 184.718 258.115 201.621C275.391 221.204 297.878 241.235 323.046 259.776C330.195 253.744 337.567 247.787 344.938 241.83L348.438 239.001C367.798 223.364 384.776 212.418 400.339 205.642C418.433 197.823 434.145 195.664 448.367 199.089C469.514 204.227 487.087 222.247 500.565 252.776C516.649 289.263 517.915 313.612 504.363 325.228C489.991 337.515 462.068 332.153 441.218 325.452C414.189 316.814 381.276 300.358 348.587 279.211C339.875 273.551 331.312 267.669 323.121 261.637C303.835 278.019 286.485 294.699 277.699 311.751C260.126 345.78 223.714 377.576 184.919 392.84C169.728 398.872 152.23 403.414 134.433 403.414ZM226.245 156.05C193.035 173.995 164.069 191.27 139.72 207.801C86.4792 243.99 54.7582 276.753 45.5993 305.198C41.0571 319.346 42.0251 332.6 48.5778 344.663C64.2894 373.703 85.0645 391.947 110.307 398.797C132.05 404.68 157.07 402.223 184.546 391.426C222.969 376.31 259.158 344.738 276.582 311.006C285.443 293.805 302.793 277.051 322.079 260.669C296.985 242.128 274.497 222.023 257.222 202.514C242.106 185.611 231.755 169.974 226.245 156.05ZM324.387 260.669C332.503 266.626 340.918 272.434 349.555 277.945C394.828 307.208 446.952 331.185 479.79 331.185C489.694 331.185 497.884 329.026 503.544 324.111C516.574 313.017 515.16 289.189 499.374 253.372C486.119 223.289 468.844 205.493 448.218 200.504C422.454 194.249 390.212 207.205 349.555 240.118L346.055 242.947C338.758 248.83 331.461 254.712 324.387 260.669ZM401.307 63.3439C397.807 63.3439 389.318 64.3863 369.511 68.9285C346.502 74.1409 311.505 83.2253 259.307 97.3732C237.861 103.181 225.873 113.755 223.49 128.722C222.373 136.168 223.565 144.582 226.99 153.89C247.318 142.944 269.285 131.775 292.666 120.457C306.441 113.829 319.77 107.426 331.61 101.766C352.98 91.5651 371.373 82.7785 384.18 76.1514C402.051 66.918 403.838 64.3863 403.689 63.7162C403.615 63.5672 403.094 63.3439 401.307 63.3439Z" fill="url(#paint1_linear)"/>
<path d="M156.101 397.68C140.241 397.68 125.274 395.521 111.796 391.128C81.9368 381.522 59.2258 361.715 44.3333 332.302C38.004 319.793 37.3338 305.943 42.3973 291.199C52.0774 262.829 82.607 230.512 133.241 195.291C164.59 173.399 199.439 153.369 231.011 136.689C229.075 130.286 228.33 123.956 229.149 117.999C231.011 104.298 241.212 94.6181 259.381 89.1824C378.744 53.5893 389.616 53.3659 390.807 56.3444C392.296 60.142 372.341 69.9711 310.462 99.3093C301.303 103.628 291.698 108.17 281.72 112.936C267.348 119.786 250.594 128.052 232.798 137.434C237.489 152.252 248.807 169.676 266.38 188.962C287.379 212.045 316.643 236.544 347.842 257.319C347.991 257.17 348.14 257.095 348.289 256.946C397.658 218.226 435.708 202.738 464.6 209.439C482.694 213.684 497.214 226.938 507.788 248.904C522.829 280.179 524.542 301.326 512.851 311.676C489.395 332.6 417.614 303.262 356.852 264.914C353.874 262.978 350.821 261.042 347.842 259.106C332.801 270.945 315.823 284.572 302.569 297.156C288.272 310.783 279.635 321.878 276.135 331.036C279.039 338.036 278.667 345.035 275.093 351.886C266.157 369.087 237.34 384.426 197.949 392.915C183.578 396.117 169.505 397.68 156.101 397.68ZM231.383 138.179C199.96 154.784 165.26 174.74 133.986 196.557C83.6495 231.629 53.2687 263.722 43.7375 291.795C38.823 306.166 39.4932 319.644 45.5991 331.781C60.3427 360.822 82.6814 380.331 112.169 389.862C136.816 397.755 166.377 398.425 197.652 391.649C236 383.384 265.115 367.97 273.752 351.439C277.177 344.887 277.401 338.259 274.646 331.632L274.497 331.334L274.571 331.036C282.166 310.336 314.036 283.902 346.428 258.436C315.302 237.661 286.113 213.162 265.115 190.079C252.009 175.484 237.266 156.348 231.383 138.179ZM349.034 258.212C351.863 260.074 354.693 261.935 357.597 263.722C390.956 284.795 424.241 301.177 451.42 309.964C480.832 319.42 501.682 319.644 511.809 310.634C522.904 300.805 521.042 280.253 506.373 249.575C496.023 228.055 481.875 215.024 464.227 210.928C435.708 204.301 398.104 219.79 349.034 258.212C349.108 258.212 349.034 258.212 349.034 258.212ZM259.53 89.8525L259.753 90.5972C242.18 95.8095 232.351 105.117 230.564 118.223C229.819 123.584 230.415 129.541 232.277 136.019C249.999 126.711 266.678 118.446 280.975 111.596C290.953 106.83 300.633 102.288 309.718 97.969C332.801 87.023 352.757 77.5662 366.905 70.4178C385.744 60.8867 389.095 57.9081 389.243 56.9401C388.499 56.4189 383.882 56.0466 357.82 62.6737C336.971 67.9606 304.877 77.1195 259.679 90.5972L259.53 89.8525Z" fill="url(#paint2_linear)"/>
<path d="M188.344 394.106C166.005 394.106 139.273 391.426 113.658 382.192C79.5544 369.906 55.2052 348.684 41.3552 319.346C35.3982 306.687 35.1003 292.688 40.5361 277.572C50.5885 249.575 79.8522 218.077 127.508 183.973C157.814 162.305 195.567 139.742 236.372 118.893C235.479 114.425 235.404 110.628 235.777 107.5C237.117 95.7351 245.233 87.3208 259.754 82.4063C365.49 47.1856 375.319 46.6643 376.287 49.2705C376.883 50.8342 375.17 53.3659 347.322 67.2159C328.929 76.3748 303.538 88.2888 274.05 102.139L269.806 104.149C259.083 109.213 248.435 114.425 237.936 119.712C241.436 135.275 253.871 154.933 273.976 176.452C297.655 201.695 331.014 228.427 365.416 249.649C368.618 251.585 371.82 253.521 374.947 255.383C419.773 225.225 455.218 212.716 480.535 218.226C495.055 221.353 506.373 230.438 514.341 245.256C528.34 271.467 530.574 289.337 520.893 298.422C511.362 307.357 490.513 307.06 460.579 297.379C435.708 289.338 405.7 275.19 375.021 257.095C366.533 262.829 357.672 269.233 348.513 276.232L347.619 276.902C309.718 305.868 273.901 333.345 274.05 350.62C283.805 356.577 288.124 362.534 286.783 368.193C285.294 374.448 277.103 379.958 262.434 384.501C249.105 388.596 231.234 391.649 210.757 393.213C204.205 393.734 196.609 394.106 188.344 394.106ZM236.67 120.308C196.088 141.083 158.485 163.496 128.327 185.09C80.9692 219.045 51.8543 250.319 41.8764 278.019C36.5895 292.688 36.8129 306.389 42.621 318.601C56.3221 347.642 80.3735 368.566 114.105 380.703C148.879 393.287 185.887 393.585 210.757 391.649C253.499 388.298 282.762 378.916 285.443 367.746C286.635 362.683 282.465 357.247 273.082 351.588L272.71 351.365V350.992C271.965 332.973 306.665 306.389 346.875 275.636L347.768 274.966C356.778 268.116 365.416 261.861 373.756 256.202C370.777 254.415 367.799 252.627 364.82 250.766C330.27 229.47 296.836 202.663 273.008 177.346C249.18 151.88 239.649 133.339 236.67 120.308ZM376.585 256.127C427.592 286.21 473.014 303.262 499.746 303.262C508.831 303.262 515.756 301.326 520.074 297.231C529.159 288.667 526.85 271.392 513.224 245.851C505.554 231.48 494.534 222.619 480.46 219.566C455.59 214.205 420.741 226.491 376.585 256.127ZM260.051 83.0765L260.275 83.7466C246.276 88.4378 238.532 96.4052 237.266 107.575C236.894 110.776 237.042 114.276 237.787 118.074C248.137 112.787 258.637 107.649 269.285 102.66L273.529 100.65C324.536 76.7472 372.713 54.1105 374.873 49.7173C373.83 49.4194 368.916 49.6428 346.651 56.1211C327.738 61.6313 299.442 70.6412 260.275 83.7466L260.051 83.0765Z" fill="url(#paint3_linear)"/>
<path d="M241.436 393.585C235.553 393.585 229.671 393.511 224.011 393.288C179.111 391.947 71.0655 380.703 38.4509 306.166C31.4514 290.231 33.3874 271.988 44.1845 252.032C53.8646 234.161 70.5443 214.875 93.7766 194.771C130.561 162.975 183.951 129.318 241.957 101.171C241.882 99.682 241.882 98.2672 242.031 96.8524C242.925 86.9489 249.031 79.8005 260.275 75.5561C360.129 37.5058 361.246 40.1865 361.916 41.8247C362.512 43.3139 363.852 46.3668 258.264 95.1398C253.35 97.4481 248.435 99.7565 243.595 102.065C245.01 117.776 258.413 139.37 281.869 163.645C306.144 188.739 339.652 214.801 373.755 235.353C384.627 241.905 395.499 248.011 406.147 253.596C439.506 234.012 473.163 220.162 496.916 224.704C507.639 226.715 515.904 232.374 521.489 241.459C534.594 262.606 537.35 277.275 529.68 285.019C523.872 290.902 508.905 295.444 470.929 283.232C451.643 277.052 429.304 267.446 406.072 255.309C385.967 267.148 365.937 281.147 348.289 294.327C345.013 296.784 341.811 299.167 338.684 301.55C299.07 331.111 264.817 356.652 272.189 370.279C291.698 375.417 300.857 380.033 300.261 384.278C299.293 391.203 270.848 393.585 241.436 393.585ZM242.106 102.809C184.397 130.882 131.306 164.315 94.7445 195.962C33.0151 249.277 30.7813 285.019 39.7913 305.645C72.0335 379.438 179.408 390.532 224.011 391.873C272.189 393.362 298.102 388.969 298.772 383.98C298.995 382.491 296.761 378.246 271.444 371.544L271.146 371.47L270.997 371.172C262.36 356.503 295.644 331.707 337.716 300.209C340.918 297.827 344.119 295.444 347.321 292.987C364.746 279.956 384.478 266.18 404.434 254.341C394.009 248.83 383.436 242.873 372.787 236.544C338.609 215.992 305.027 189.782 280.603 164.613C266.753 150.242 244.34 124.106 242.106 102.809ZM407.561 254.341C430.421 266.18 452.313 275.637 471.301 281.743C500.342 291.051 520.67 291.795 528.563 283.902C535.562 276.828 532.658 262.383 520.149 242.203C514.713 233.491 506.82 228.055 496.544 226.119C473.386 221.726 440.399 235.204 407.561 254.341ZM260.498 76.3008L260.796 76.971C250.148 80.9919 244.34 87.768 243.521 97.0013C243.446 98.1183 243.372 99.2352 243.446 100.427C248.137 98.1928 252.903 95.8844 257.594 93.725C343.151 54.1854 358.267 44.7287 360.203 42.4948C357.001 42.2714 339.056 47.1115 260.721 76.971L260.498 76.3008Z" fill="url(#paint4_linear)"/>
<path d="M308.154 399.245C304.654 399.245 299.442 399.096 291.326 398.574C275.986 397.606 256.701 395.819 237.043 393.436C173.824 385.916 63.6194 362.981 35.5471 293.061C23.6331 263.425 41.8764 225.673 88.341 183.899C127.657 148.529 185.068 112.415 245.978 84.864C246.648 84.5662 247.318 84.2683 247.989 83.9705C249.105 77.1944 253.424 72.1309 260.722 68.8546C289.092 56.047 311.058 46.5903 325.951 40.5588C346.428 32.2935 346.875 33.336 347.322 34.2295C347.768 35.1231 348.364 36.5379 318.579 51.8027C299.517 61.5573 275.018 73.3223 249.329 85.013C249.254 85.5342 249.18 86.0554 249.18 86.5766C247.393 119.564 316.271 182.782 381.798 221.13C401.307 232.523 420.89 242.724 439.58 251.064C445.537 247.862 451.197 245.033 456.707 242.501C493.64 225.375 517.766 223.662 528.414 237.587C540.701 253.596 544.126 264.989 538.541 271.318C531.691 279.062 511.511 278.169 481.652 268.861C468.695 264.765 454.547 259.33 439.729 252.777C407.711 269.903 373.532 293.508 347.992 312.347C342.407 316.442 336.897 320.463 331.535 324.335C296.836 349.578 266.902 371.47 266.902 383.831C266.902 386.214 268.019 388.224 270.253 389.862C314.111 395 314.856 396.713 315.154 397.457C315.303 397.755 315.228 398.053 315.079 398.351C314.781 398.723 314.335 399.245 308.154 399.245ZM247.691 85.6831C247.318 85.8321 246.872 86.0554 246.499 86.2043C185.738 113.755 128.476 149.795 89.2345 185.016C31.1538 237.289 28.6966 272.286 36.813 292.54C64.662 361.716 174.271 384.501 237.117 391.947C275.614 396.489 305.101 398.202 312.324 397.606C309.197 396.713 299.517 394.851 269.806 391.352H269.583L269.434 391.203C266.753 389.192 265.338 386.735 265.338 383.831C265.338 370.651 294.155 349.653 330.567 323.069C335.929 319.197 341.439 315.176 347.024 311.081C381.5 285.689 411.955 265.882 437.868 251.883C419.476 243.618 400.115 233.64 380.979 222.396C347.173 202.589 313.367 176.9 288.198 151.955C261.243 125.223 246.797 101.916 247.691 86.4278C247.691 86.2044 247.691 85.981 247.691 85.6831ZM441.293 251.883C455.59 258.213 469.365 263.5 481.95 267.446C510.767 276.456 530.946 277.498 537.275 270.35C542.264 264.691 538.764 253.67 527.074 238.555C513.82 221.056 479.195 231.778 441.293 251.883ZM261.019 69.5248L261.317 70.1949C254.839 73.0989 250.967 77.4922 249.627 83.2258C302.57 59.1 339.205 39.8887 345.088 35.1975C341.29 36.0166 325.727 41.229 261.317 70.1949L261.019 69.5248Z" fill="url(#paint5_linear)"/>
<path d="M323.344 419.796C312.026 419.796 288.273 415.402 267.944 411.158C263.253 410.19 260.647 408.254 260.051 405.425C259.53 402.967 260.647 399.84 263.179 396.266C258.86 395.298 254.467 394.404 249.999 393.585C124.53 369.534 51.333 331.334 32.494 280.03C26.9838 264.988 28.9942 247.639 38.5999 228.502C47.3864 211.003 62.2045 192.387 82.7561 173.102C120.955 137.211 176.207 101.767 234.213 76.0026C241.808 72.5773 249.254 69.2264 256.254 65.8756C257.52 64.3864 259.158 63.1205 261.094 62.0781C282.986 49.8662 301.303 40.0371 314.111 33.4844C330.791 24.9957 331.461 25.4425 331.982 25.7404C332.205 25.8893 332.354 26.1872 332.354 26.485C332.354 26.9318 332.28 27.5274 324.536 32.2186C320.887 34.378 314.334 38.1756 304.059 43.6858C294.9 48.5259 278.444 57.0891 257.222 67.1415C255.137 69.6732 254.094 72.7262 254.02 76.3749C253.945 90.4483 268.987 112.489 296.389 138.328C322.376 162.9 356.406 187.92 389.765 206.982C421.486 225.076 449.633 239.299 472.791 249.202C503.618 233.863 524.468 228.651 534.967 233.64L535.19 233.714L535.339 233.937C543.753 248.16 545.466 257.914 540.551 262.978C532.882 270.722 508.979 266.18 472.865 250.915C469.142 252.776 465.195 254.787 461.174 257.021C429.9 273.849 390.658 299.241 347.545 330.515C344.417 332.824 341.29 335.057 338.237 337.291C305.622 360.896 276.433 382.043 265.785 395.447C302.644 403.488 328.557 412.871 329.972 417.19C330.195 417.785 330.046 418.306 329.674 418.753C328.855 419.423 326.621 419.796 323.344 419.796ZM264.668 396.638C262.136 400.063 260.945 402.967 261.466 405.201C261.913 407.361 264.221 408.924 268.242 409.743C325.802 421.732 328.408 417.785 328.557 417.562C328.557 416.817 324.685 413.541 306.59 407.658C294.602 403.786 280.156 399.989 264.668 396.638ZM254.541 68.3329C248.361 71.2369 241.734 74.2899 234.809 77.3429C176.951 103.107 121.923 138.402 83.7986 174.219C63.3959 193.355 48.6523 211.897 39.9402 229.246C30.558 248.011 28.5475 264.914 33.9088 279.583C52.5244 330.366 125.349 368.193 250.297 392.17C255.062 393.064 259.679 394.032 264.147 395C274.646 381.373 303.24 360.673 337.269 335.951C340.322 333.717 343.449 331.483 346.577 329.175C376.66 307.357 420.741 276.902 460.355 255.606C464.004 253.67 467.578 251.808 471.004 250.096C448.069 240.267 420.444 226.193 389.02 208.322C355.587 189.26 321.408 164.166 295.347 139.445C267.646 113.308 252.456 90.895 252.531 76.3749C252.605 73.3219 253.201 70.6412 254.541 68.3329ZM474.652 249.947C498.406 259.925 516.798 265.212 528.265 265.212C533.478 265.212 537.275 264.095 539.509 261.861C543.902 257.393 542.115 248.309 534.222 234.831C524.095 230.214 504.139 235.352 474.652 249.947ZM261.466 62.7482L261.764 63.2694L261.466 62.7482ZM327.812 28.421C320.068 31.8463 300.112 42.1221 263.328 62.5248C295.198 47.26 319.472 33.8568 327.812 28.421Z" fill="url(#paint6_linear)"/>
<path d="M261.987 431.337C258.115 431.337 255.881 430.369 255.062 428.433C252.605 422.253 267.944 408.105 279.933 397.904C274.497 396.638 268.838 395.223 263.029 393.808C221.182 383.16 167.271 368.268 121.327 347.12C70.2462 323.59 39.4187 296.635 29.5896 266.999C20.2818 238.926 37.1848 201.77 77.2456 162.304C114.179 125.967 167.122 91.2673 222.522 67.067C254.541 53.068 279.858 43.4624 292.07 38.9946C300.782 35.7927 308.228 33.1865 313.738 31.4739C322.227 28.7932 322.748 29.1656 323.121 29.5379C323.344 29.7613 323.493 30.0591 323.419 30.3569C323.344 30.9526 323.195 31.7718 308.749 38.0266C298.176 42.5688 282.166 48.9726 262.434 56.6422C259.828 60.0675 259.009 64.6097 260.051 69.971C262.955 84.4912 279.411 105.49 306.367 129.169C331.907 151.582 365.192 174.814 397.807 192.909C441.963 217.407 478.822 235.129 504.958 244.734C521.638 235.873 534.52 230.363 541.519 229.916H541.966L542.189 230.289C549.263 240.862 551.05 247.862 547.551 251.659C542.859 256.797 528.563 255.01 505.033 246.447C494.161 252.255 481.353 259.627 466.684 268.637C432.059 289.784 389.616 318.229 347.098 348.684C317.462 369.906 296.984 385.692 283.134 397.382C292.666 399.616 301.378 401.552 309.047 403.191C336.003 409.148 346.949 411.679 346.8 415.328C346.576 419.647 329.301 423.072 266.38 431.263C264.742 431.263 263.253 431.337 261.987 431.337ZM281.72 398.276C259.977 416.743 255.211 424.71 256.402 427.838C257.147 429.625 260.498 430.22 266.157 429.476C297.059 425.455 315.377 422.774 327.291 420.54C342.853 417.636 345.236 415.775 345.236 414.956C345.311 412.424 327.514 408.477 308.675 404.308C300.782 402.669 291.698 400.659 281.72 398.276ZM319.77 31.325C309.345 34.0056 270.699 47.7812 223.118 68.4817C114.328 115.914 11.1974 206.759 31.0044 266.552C40.6845 295.741 71.2886 322.399 121.998 345.78C167.866 366.927 221.703 381.745 263.476 392.394C269.657 393.957 275.614 395.446 281.422 396.787C296.538 383.979 318.355 367.374 346.353 347.344C400.338 308.623 462.589 267.52 503.32 245.628C501.384 244.883 499.373 244.139 497.288 243.32C471.375 233.118 436.751 216.066 397.211 194.174C364.522 176.006 331.088 152.773 305.473 130.286C278.294 106.383 261.689 85.0869 258.711 70.2689C257.519 64.3863 258.487 59.3973 261.466 55.5997L261.615 55.4508L261.838 55.3764C301.676 39.8137 315.228 33.6333 319.77 31.325ZM506.894 245.256C528.414 253 542.338 255.01 546.508 250.394C549.412 247.266 547.625 240.788 541.221 231.182C534.818 231.927 523.201 236.692 506.894 245.256Z" fill="url(#paint7_linear)"/>
<path d="M258.115 451.294C253.275 451.294 250.52 450.177 249.701 448.017C247.02 441.241 264.444 425.157 297.506 400.361C290.655 398.276 283.656 396.191 276.209 393.883C224.309 377.948 169.803 360.598 123.264 338.409C67.2677 311.751 35.6957 284.051 26.7602 253.894C18.6438 226.342 34.5787 189.93 71.7354 151.508C107.18 114.798 157.889 80.7684 210.906 58.2062C235.478 47.7815 259.902 38.2503 279.784 31.5487C309.42 21.4962 310.313 23.5812 310.76 24.5492C311.281 25.7406 312.398 28.2723 263.179 49.7175C255.509 74.8858 333.397 139.445 405.997 178.538C446.803 200.504 482.024 217.854 507.788 228.576C517.84 232.746 525.733 235.65 531.913 237.586C539.136 232.597 544.721 228.651 548.146 226.119L548.742 225.672L549.189 226.194C554.922 233.342 556.709 238.033 554.55 240.565C552.093 243.469 544.721 243.022 532.137 239.15C520.968 246.82 505.926 257.021 488.8 268.637C449.707 295.146 396.243 331.409 346.874 366.332C333.322 375.938 316.494 387.852 300.708 399.617C340.322 411.531 364.15 418.828 363.479 426.647C362.958 433.348 345.906 439.975 264.668 450.698C262.136 451.145 259.977 451.294 258.115 451.294ZM299.144 400.883C272.039 421.211 248.509 441.018 251.041 447.496C251.637 449.06 254.466 450.698 264.37 449.358C299.367 444.741 323.94 440.72 339.354 436.997C354.023 433.497 361.618 429.997 361.916 426.647C362.437 419.945 334.588 411.531 299.144 400.883ZM308.526 25.1449C301.601 25.1449 260.87 38.4737 211.427 59.621C158.633 82.1087 108.073 115.989 72.7035 152.625C35.919 190.675 20.133 226.566 28.1004 253.596C48.5032 322.622 191.248 366.406 276.582 392.617C284.251 395 291.549 397.159 298.623 399.319C298.697 399.319 298.846 399.393 298.921 399.393C312.249 389.415 327.961 378.097 345.906 365.438C395.275 330.441 448.813 294.178 487.906 267.669C504.586 256.351 519.255 246.447 530.275 238.852C523.872 236.767 516.128 233.863 507.118 230.14C481.279 219.417 446.058 202.068 405.178 180.027C368.319 160.22 329.748 133.637 302.048 109.064C284.624 93.6504 256.253 65.2802 261.764 49.1218L261.838 48.824L262.136 48.675C301.75 31.3997 308.079 26.5597 309.122 25.3683C308.973 25.1449 308.749 25.1449 308.526 25.1449ZM533.626 238.182C547.7 242.426 552.018 241.235 553.284 239.746C554.327 238.48 554.327 235.352 548.37 227.757C545.093 230.215 540.03 233.714 533.626 238.182Z" fill="url(#paint8_linear)"/>
<path d="M253.573 471.398C247.988 471.398 244.861 470.207 243.967 467.824C240.617 459.335 268.54 437.741 316.494 403.786C307.931 400.659 298.772 397.457 289.241 394.106C284.996 392.617 280.677 391.128 276.284 389.564C225.054 371.544 166.899 351.141 118.647 326.718C62.3534 298.273 31.3771 270.201 23.7819 240.862C9.33622 184.792 92.8831 93.5011 199.216 49.3449C224.012 38.9946 248.137 30.1336 267.125 24.3255C296.687 15.3155 298.102 18.3685 298.548 19.411C299.144 20.6768 300.708 24.0277 263.849 42.8667C267.498 67.067 339.95 125.818 414.04 164.464C456.037 186.356 491.928 204.078 517.84 215.62C534.297 222.991 544.349 226.715 550.455 228.651C552.242 226.491 553.731 224.481 554.923 222.694L555.37 221.949L556.04 222.545C560.656 226.789 562.22 229.395 561.178 230.884C560.656 231.555 559.763 232.969 550.976 230.363C526.106 259.18 448.143 313.612 372.564 366.406C363.778 372.512 355.065 378.618 346.428 384.649L343.896 386.437C335.705 392.17 327.514 397.904 319.696 403.488C356.927 417.041 381.425 427.763 380.308 438.113C379.117 450.027 343.971 459.856 262.806 470.802C259.158 471.1 256.105 471.398 253.573 471.398ZM318.132 404.382C276.284 433.944 242.255 459.41 245.308 467.303C246.052 469.164 249.627 470.951 262.509 469.239C340.694 458.665 377.628 448.687 378.745 437.89C379.713 428.433 354.321 417.487 318.132 404.382ZM294.974 19.4854C291.549 19.4854 283.507 20.8258 267.498 25.7403C248.584 31.5484 224.458 40.4094 199.737 50.6852C149.102 71.7581 100.776 104.894 67.1191 141.753C33.6854 178.314 18.4206 214.279 25.1967 240.49C32.6429 269.381 63.3959 297.082 119.317 325.377C167.569 349.727 225.575 370.129 276.805 388.149C281.199 389.713 285.517 391.202 289.762 392.691C299.74 396.191 309.197 399.542 317.983 402.744C325.802 397.159 334.216 391.351 343.077 385.096L345.609 383.309C354.246 377.278 362.958 371.172 371.745 365.066C446.878 312.57 524.393 258.51 549.412 229.767C543.009 227.757 533.031 223.885 517.245 216.885C491.257 205.269 455.366 187.622 413.37 165.655C378.149 147.263 341.066 123.137 311.728 99.3836C281.273 74.7366 263.7 54.5572 262.36 42.4199L262.285 41.8986L262.732 41.6752C297.804 23.8042 297.431 20.3045 297.283 19.9322C296.985 19.7088 296.315 19.4854 294.974 19.4854ZM551.87 228.948C558.422 230.81 559.614 230.14 559.837 229.842C559.837 229.767 560.507 228.799 555.593 224.034C554.55 225.598 553.359 227.236 551.87 228.948Z" fill="url(#paint9_linear)"/>
<path d="M254.541 490.61C244.34 490.61 238.904 488.972 237.787 485.472C234.66 476.239 263.7 456.581 307.707 426.87C316.643 420.839 325.876 414.584 335.333 408.105C325.429 403.638 314.409 398.947 302.197 394.181C291.772 390.086 281.124 385.99 269.88 381.671C165.037 341.238 34.6533 290.902 20.7288 227.757C14.9208 201.472 29.3666 165.805 60.2685 129.914C92.7341 92.2356 137.858 60.4401 187.376 40.4097C233.84 21.6452 282.986 6.67823 287.007 14.4968C289.39 19.1879 275.465 28.7936 264.37 35.7931C279.56 61.7805 354.172 115.915 421.933 150.093C496.47 187.697 546.211 211.673 561.699 218.673L561.922 218.077L562.667 218.45C567.581 221.056 567.73 221.13 567.358 221.875C567.06 222.47 566.986 222.694 562.518 220.683C554.625 239.82 528.712 266.701 483.364 302.741C443.974 334.09 395.871 367.821 345.907 402.446C343.375 404.233 340.769 405.946 338.311 407.733C379.936 426.87 399.892 443.177 397.732 456.208C396.318 465.069 385.223 472.143 363.852 477.802C341.141 483.759 306.441 488.004 260.87 490.387C258.636 490.61 256.477 490.61 254.541 490.61ZM336.897 408.85C327.142 415.552 317.685 421.956 308.526 428.136C268.242 455.315 236.447 476.834 239.202 485.025C240.319 488.302 247.616 489.642 260.796 488.972C347.917 484.43 393.488 473.409 396.318 456.059C397.658 447.943 389.318 438.114 371.522 426.944C362.437 421.285 350.896 415.179 336.897 408.85ZM280.528 13.8267C276.284 13.8267 268.689 14.8691 254.988 18.5178C236.596 23.4323 212.842 31.6976 187.897 41.8245C138.603 61.7805 93.6276 93.427 61.3109 130.956C30.7068 166.475 16.41 201.695 22.1437 227.534C35.8447 289.859 165.931 340.047 270.402 380.331C281.72 384.65 292.368 388.82 302.718 392.841C315.302 397.755 326.621 402.521 336.673 407.137C339.428 405.276 342.183 403.34 345.013 401.404C428.709 343.323 543.083 264.021 561.103 220.237C559.763 219.641 558.05 218.822 556.04 217.854C548.891 214.503 538.839 209.737 526.999 204.004C497.438 189.707 459.909 171.091 421.263 151.582C352.757 117.032 277.252 61.9294 262.732 36.0165L262.36 35.4208L262.955 35.0485C285.368 20.9006 286.262 16.5073 285.666 15.3159C285.443 14.7202 284.475 13.8267 280.528 13.8267Z" fill="url(#paint10_linear)"/>
<path d="M248.063 510.789C238.159 510.789 232.947 509.225 231.755 505.874C228.851 497.386 253.499 480.408 301.155 448.687C314.409 439.901 329.376 429.923 344.715 419.349C348.066 417.041 351.342 414.807 354.693 412.498C343.3 406.765 330.195 400.733 315.302 394.33C299.442 387.553 282.837 380.703 265.189 373.406C212.023 351.439 151.783 326.569 104.946 300.209C51.2585 269.977 22.7393 241.979 17.7503 214.726C13.1336 189.111 26.8348 153.369 54.4603 119.191C84.99 81.3637 128.029 50.3128 175.685 31.6228C220.065 14.1985 270.55 0.0507007 276.656 10.1031C278.965 13.9007 275.093 20.0066 264.966 28.9421C296.761 60.2164 377.181 110.33 429.975 136.094C482.62 161.709 514.49 177.644 536.456 189.409C569.964 207.28 574.059 212.045 573.538 214.503C573.24 215.917 571.453 216.215 569.89 216.29C563.411 241.681 536.977 273.775 488.949 314.506C450.303 347.269 403.466 380.777 357.597 412.498C398.477 433.497 417.316 450.996 414.859 465.739C411.21 487.854 360.278 502.524 259.083 510.491C254.913 510.64 251.265 510.789 248.063 510.789ZM356.182 413.317C352.608 415.775 349.108 418.232 345.534 420.689C330.195 431.263 315.228 441.241 301.974 450.027C261.987 476.611 230.415 497.609 233.17 505.428C234.362 508.927 243.074 510.044 259.009 508.853C358.044 501.034 410.019 486.44 413.444 465.367C415.008 455.761 406.37 444.443 387.829 431.71C379.266 425.827 368.841 419.721 356.182 413.317ZM266.232 8.09264C250.222 8.09264 215.969 17.326 176.281 32.8886C128.848 51.5043 86.0324 82.4062 55.7262 120.01C28.3984 153.89 14.7719 189.185 19.3141 214.354C24.1542 241.16 52.4499 268.786 105.765 298.794C152.453 325.079 212.693 350.024 265.785 371.916C283.358 379.214 300.038 386.064 315.898 392.84C331.088 399.319 344.417 405.499 356.108 411.456C402.126 379.66 449.186 346.003 487.981 313.091C536.084 272.285 562.443 240.267 568.549 215.098L568.698 214.503H569.294C571.9 214.503 572.049 213.832 572.049 213.832C572.347 212.492 568.028 207.652 535.711 190.377C513.745 178.686 481.949 162.751 429.304 137.136C361.99 104.373 289.166 54.8551 263.328 29.1655L262.732 28.5698L263.328 28.0486C275.539 17.4749 276.656 12.7093 275.316 10.6243C274.348 8.98616 271.146 8.09264 266.232 8.09264Z" fill="url(#paint11_linear)"/>
<path d="M241.138 531.042C231.606 531.042 226.692 529.553 225.575 526.351C222.522 517.788 251.265 498.875 294.825 470.355C309.792 460.526 326.77 449.357 344.343 437.443C354.097 430.741 363.926 424.04 373.681 417.189C360.799 410.041 345.683 402.446 328.333 394.478C307.409 384.873 285.145 375.193 261.615 364.917C149.847 316.293 23.2605 261.116 14.8462 201.546C11.3465 176.452 24.3029 140.71 48.6521 108.244C77.0968 70.4175 118.051 39.9624 163.92 22.5382C188.716 13.1559 212.321 6.15641 230.49 2.95453C255.732 -1.58768 264.668 1.98651 267.646 5.78409C270.55 9.43275 269.731 14.7941 265.263 21.7935C307.037 50.6105 378.67 94.0221 437.942 121.722C537.052 168.187 578.08 192.61 579.57 205.939C579.793 208.322 578.899 210.333 576.814 212.045C566.539 273.626 473.982 348.609 376.436 416.966C387.68 423.295 397.136 429.327 404.955 435.06C425.06 449.953 433.921 462.909 431.91 474.674C427.592 500.587 370.405 518.682 257.222 530C250.892 530.745 245.531 531.042 241.138 531.042ZM375.17 418.008C365.192 425.008 355.214 431.858 345.236 438.709C327.663 450.697 310.686 461.792 295.719 471.621C255.881 497.758 224.458 518.384 227.064 525.904C228.33 529.553 238.531 530.521 257.147 528.585C368.096 517.49 426.4 499.247 430.57 474.451C433.102 458.963 414.933 440.347 375.17 418.008ZM250.967 2.28439C232.798 2.28439 201.673 9.87955 164.59 23.953C118.945 41.2283 78.2137 71.5345 49.918 109.138C25.7177 141.306 12.9102 176.676 16.3354 201.323C24.6008 260.073 150.815 315.027 262.211 363.502C285.815 373.778 308.079 383.458 328.929 393.063C346.725 401.254 362.065 408.924 375.021 416.147C472.716 347.79 565.422 272.732 575.4 211.449L575.474 211.152L575.698 211.003C577.559 209.588 578.304 207.95 578.08 206.088C576.74 193.504 534.594 168.634 437.346 123.062C377.702 95.1391 305.622 51.3551 263.849 22.5382L263.253 22.0914L263.625 21.4957C268.093 14.7941 269.061 9.80509 266.529 6.60321C264.295 3.77363 258.86 2.28439 250.967 2.28439Z" fill="url(#paint12_linear)"/>
<path d="M234.511 551.446C225.352 551.446 220.586 549.956 219.469 546.978C216.491 538.638 243.67 521.065 288.719 491.876C305.399 481.079 324.238 468.867 343.971 455.538C359.906 444.741 376.138 433.497 392.371 421.881C378.298 413.392 361.395 404.382 341.439 394.628C315.824 382.192 288.198 369.608 258.934 356.354C200.854 329.994 140.837 302.741 94.2978 274.743C41.4294 242.873 14.474 214.652 11.9423 188.515C9.48505 163.347 21.3246 128.499 42.8442 97.4478C61.3854 70.7158 95.4892 34.4525 152.304 13.752C176.281 5.03987 198.769 -0.991599 217.31 -3.52332C237.564 -6.3529 252.233 -4.78919 259.679 0.944425C263.998 4.22077 266.008 8.91192 265.636 14.8689C276.135 20.4536 287.9 26.7085 300.261 33.4101C343.896 56.8658 398.254 86.1295 446.059 107.649C537.573 148.827 577.783 173.846 584.782 194.1C586.495 199.015 586.122 203.706 583.814 208.174C576.07 278.317 486.715 355.907 395.052 421.806C434.815 446.081 452.239 466.186 449.186 483.908C444.123 513.619 380.755 535.213 255.509 549.956C246.871 550.924 239.872 551.446 234.511 551.446ZM393.711 422.7C377.33 434.465 360.874 445.858 344.79 456.729C325.057 470.058 306.218 482.344 289.538 493.141C249.701 518.905 218.278 539.308 220.884 546.531C222.224 550.329 233.841 550.999 255.36 548.467C319.845 540.872 368.692 531.266 400.562 519.873C429.602 509.523 445.463 497.311 447.771 483.685C449.856 471.249 440.772 456.878 420.592 441.018C413.146 435.135 404.211 429.104 393.711 422.7ZM235.181 -3.44883C215.225 -3.44883 186.333 2.95494 152.825 15.1668C96.3827 35.7184 62.5023 71.7583 44.1101 98.3414C22.7393 129.094 10.9743 163.645 13.4316 188.441C15.9633 214.131 42.6953 241.979 95.1169 273.552C141.581 301.549 201.524 328.728 259.53 355.088C288.794 368.342 316.419 380.926 342.034 393.362C362.139 403.116 379.266 412.35 393.637 420.987C485.375 355.162 574.73 277.647 582.325 207.876V207.727L582.399 207.578C584.633 203.408 584.931 199.164 583.293 194.547C576.591 174.963 535.339 149.423 445.388 108.99C397.509 87.4698 343.151 58.2061 299.516 34.676C286.932 27.8999 275.093 21.4961 264.445 15.9114L263.998 15.688L264.072 15.1668C264.519 9.5821 262.732 5.11432 258.711 2.06136C253.945 -1.66176 245.829 -3.44883 235.181 -3.44883Z" fill="url(#paint13_linear)"/>
<path d="M227.735 571.923C218.874 571.923 214.182 570.508 213.214 567.678C210.236 559.562 237.489 542.138 282.688 513.246C301.006 501.556 321.781 488.227 343.598 473.558C367.277 457.623 389.467 441.762 409.944 426.125C394.754 416.371 376.287 405.946 354.47 394.777C324.461 379.363 291.624 364.024 256.85 347.716C136.518 291.274 12.0913 232.97 9.03838 175.41C7.9959 155.38 14.772 121.574 36.9618 86.5019C53.9393 59.7699 85.6602 23.879 140.614 4.7421C189.908 -12.3843 248.659 -20.5752 265.859 7.79504C295.496 20.5281 328.631 35.9418 360.65 50.8343C392.297 65.5779 424.986 80.7683 454.175 93.3524C561.029 139.296 596.771 168.262 590.814 204.227C583.591 247.862 553.731 296.337 502.203 348.386C477.259 373.555 447.25 399.542 412.551 426.051C452.462 452.038 469.738 473.781 466.461 492.993C460.653 526.575 391.105 551.669 253.797 569.689C242.702 571.178 234.138 571.923 227.735 571.923ZM411.285 427.019C390.659 442.73 368.32 458.74 344.417 474.824C322.525 489.567 301.825 502.822 283.507 514.512C243.595 540.053 212.098 560.232 214.629 567.157C216.044 571.104 229.149 571.476 253.573 568.274C324.313 558.966 377.926 547.499 412.923 534.319C444.793 522.256 462.292 508.257 464.972 492.769C468.174 474.079 450.899 452.708 411.285 427.019ZM218.874 -9.33133C218.278 -9.33133 217.682 -9.33133 217.087 -9.33133C196.014 -9.03348 168.984 -3.52326 141.135 6.15686C86.6283 25.1448 55.0562 60.7379 38.2276 87.2465C16.1867 122.02 9.41069 155.529 10.5276 175.261C11.868 200.578 38.0042 228.576 90.3514 260.967C136.89 289.71 198.247 318.527 257.52 346.301C292.294 362.609 325.132 378.022 355.14 393.362C377.181 404.606 395.797 415.179 411.136 425.083C445.984 398.425 476.067 372.438 501.086 347.195C552.391 295.444 582.102 247.192 589.25 203.855C595.058 168.783 559.54 140.189 453.505 94.6183C424.316 82.1086 391.627 66.8438 359.98 52.1002C327.887 37.1333 294.676 21.7196 265.04 8.98647L264.817 8.91198L264.668 8.6886C257.669 -3.07647 241.808 -9.33133 218.874 -9.33133Z" fill="url(#paint14_linear)"/>
<path d="M220.809 592.474C212.321 592.474 207.927 591.134 206.885 588.379C203.981 580.486 231.309 563.136 276.656 534.468C296.612 521.884 319.174 507.587 343.151 491.577C374.5 470.654 402.572 450.4 427.666 430.667C411.359 419.498 391.403 407.658 367.5 394.925C333.173 376.607 293.634 357.545 255.36 339.078C132.944 280.104 6.43194 219.194 6.05963 162.379C5.91071 141.678 12.3889 108.021 31.0046 75.6301C52.971 37.3564 86.8514 9.87973 128.923 -4.04475C177.919 -20.2031 229.224 -18.2671 266.157 1.01869C309.792 23.8042 357.671 40.9305 399.966 56.0464C422.156 64.0139 443.154 71.4602 462.142 79.2043C517.468 101.841 551.348 120.233 571.826 138.774C591.856 156.869 599.823 175.931 597.664 200.429C593.345 250.17 563.56 303.932 509.203 360.151C486.938 383.16 460.802 406.541 430.198 430.593C439.506 437.071 447.548 443.177 454.398 449.134C476.886 468.717 486.417 486.067 483.587 502.077C477.035 539.531 401.232 568.125 251.86 589.57C238.234 591.506 228.032 592.474 220.809 592.474ZM429.006 431.561C403.764 451.368 375.542 471.77 344.045 492.769C320.068 508.778 297.506 523.075 277.55 535.734C237.489 561.051 205.842 581.081 208.374 587.857C209.863 591.878 224.458 591.953 251.786 588.081C328.854 577.06 387.233 563.806 425.358 548.69C460.057 534.915 479.269 519.203 482.322 501.853C485.672 481.748 468.621 458.888 429.006 431.561ZM195.12 -13.5015C173.749 -13.5015 151.336 -9.9273 129.444 -2.70444C87.6705 11.0711 54.088 38.3988 32.3449 76.3002C13.8782 108.394 7.4744 141.827 7.62332 162.304C7.99564 218.226 134.135 278.913 256.105 337.738C294.378 356.205 333.992 375.267 368.32 393.585C392.669 406.616 412.774 418.53 429.006 429.699C459.685 405.573 485.896 382.118 508.235 359.109C562.369 303.113 592.005 249.649 596.249 200.28C598.334 176.229 590.516 157.613 570.857 139.817C550.455 121.35 516.798 103.107 461.621 80.5446C442.633 72.8005 421.709 65.2798 399.445 57.3868C357.15 42.2709 309.196 25.1445 265.487 2.28456C245.382 -8.21465 221.033 -13.5015 195.12 -13.5015Z" fill="url(#paint15_linear)"/>
<path d="M214.108 613.101C205.843 613.101 201.598 611.76 200.556 609.154C197.801 601.708 221.554 586.369 271.37 555.318C292.74 541.989 316.941 526.873 342.779 509.672C381.574 483.834 415.38 459.112 444.867 435.061C427.815 422.775 406.593 409.595 380.606 395.149C342.556 374.076 298.325 352.333 255.584 331.26C193.109 300.507 128.551 268.712 81.0434 238.182C55.4283 221.726 36.7383 206.908 23.8563 192.983C9.33613 177.272 2.56001 162.975 3.15571 149.274C3.90033 132.148 7.69795 98.2672 24.9733 64.5357C44.7803 25.8897 75.8311 -0.17222 117.232 -12.9798C162.431 -26.9043 215.523 -24.3725 266.53 -5.83136C304.505 7.94419 340.992 20.2305 373.16 31.0276C410.242 43.4628 442.261 54.2598 470.184 64.9824C525.659 86.4276 559.167 104.894 578.974 124.85C598.036 144.062 605.706 165.507 604.589 196.632C603.547 226.194 594.611 256.798 578.155 287.625C563.56 314.953 542.562 343.249 515.755 371.693C496.246 392.394 473.535 413.392 447.25 434.912C456.334 441.539 464.153 447.794 470.855 453.9C494.161 475.122 503.916 493.886 500.789 511.236C493.342 552.488 411.359 584.507 249.999 609.303C233.915 611.835 222.15 613.101 214.108 613.101ZM446.133 435.88C416.571 460.08 382.542 484.876 343.598 510.864C317.685 528.065 293.485 543.18 272.114 556.509C231.532 581.901 199.439 601.931 201.896 608.633C204.204 614.888 238.532 609.601 249.775 607.888C333.099 595.081 396.243 580.039 437.421 563.136C475.025 547.723 495.799 530.224 499.299 511.013C502.352 494.184 492.672 475.866 469.812 455.017C463.185 448.911 455.292 442.507 446.133 435.88ZM178.515 -20.3515C157.367 -20.3515 136.816 -17.4475 117.679 -11.565C76.6502 1.09364 45.8972 26.9321 26.3135 65.2059C9.18715 98.714 5.38958 132.297 4.64496 149.348C2.26216 204.823 131.38 268.414 256.254 329.845C299.07 350.918 343.3 372.736 381.351 393.734C407.487 408.329 428.932 421.658 446.059 433.944C472.418 412.35 495.204 391.351 514.713 370.576C541.371 342.281 562.294 314.059 576.889 286.806C593.271 256.202 602.057 225.747 603.1 196.483C604.217 165.805 596.696 144.657 577.932 125.818C558.273 106.011 524.84 87.6191 469.663 66.3228C441.814 55.5257 409.795 44.8031 372.713 32.3679C340.545 21.5708 304.059 9.35897 266.008 -4.49105C236.893 -15.0647 207.108 -20.3515 178.515 -20.3515Z" fill="url(#paint16_linear)"/>
<path d="M206.959 633.727C197.503 633.727 194.971 631.94 194.226 629.929C191.471 622.632 215.299 607.516 264.966 576.763C288.049 562.466 314.185 546.233 342.407 527.618C388.722 496.939 428.336 467.601 461.77 438.933C443.899 425.53 421.337 411.009 393.711 395.149C351.342 370.874 301.676 345.855 253.573 321.729C189.833 289.71 123.934 256.649 76.2033 225.449C50.5138 208.62 31.8982 193.653 19.3141 179.654C5.09172 163.868 -1.16318 149.572 0.17714 136.094L0.326119 134.307C1.88983 118.148 4.27261 93.6502 13.0592 67.9607C23.7073 37.0588 40.9826 13.1563 64.4383 -3.00204C109.414 -33.9784 177.547 -37.3292 266.976 -12.7566C352.831 10.848 404.583 25.8894 445.463 39.3671C493.119 55.0042 526.329 68.7798 550.008 82.4809C574.283 96.5543 589.92 111.521 599.302 129.467C607.791 145.7 611.589 165.209 611.589 192.685C611.589 225.449 603.1 259.031 586.42 292.614C571.677 322.325 550.083 352.78 522.234 383.086C505.331 401.478 486.119 420.019 464.227 438.784C473.163 445.56 480.907 452.038 487.534 458.293C511.66 481.079 521.712 501.258 518.287 520.022C510.096 565.221 421.784 600.814 248.361 629.035C227.66 632.535 214.927 633.727 206.959 633.727ZM463.036 439.901C429.453 468.643 389.765 498.13 343.226 528.883C315.005 547.573 288.868 563.732 265.71 578.029C225.203 603.122 193.184 622.93 195.567 629.408C197.949 635.737 235.628 629.631 247.988 627.621C420.667 599.548 508.532 564.328 516.649 519.873C520 501.63 510.096 481.898 486.343 459.484C479.79 453.23 471.971 446.677 463.036 439.901ZM161.165 -27.4257C122.221 -27.4257 90.1278 -18.8626 65.2574 -1.66172C11.3465 35.4951 4.94279 102.362 1.81537 134.53L1.66639 136.317C-0.71641 160.815 23.9307 189.558 77.0225 224.257C124.604 255.383 190.503 288.444 254.243 320.463C302.346 344.589 352.087 369.608 394.456 393.957C422.305 409.967 444.941 424.487 462.961 438.039C484.928 419.2 504.214 400.659 521.117 382.267C548.891 352.035 570.411 321.729 585.08 292.093C601.685 258.734 610.099 225.374 610.099 192.834C610.099 165.581 606.376 146.295 598.036 130.286C588.803 112.564 573.315 97.8946 549.338 83.8957C501.086 55.8233 416.273 29.8359 266.678 -11.1929C227.213 -22.0644 192.067 -27.4257 161.165 -27.4257Z" fill="url(#paint17_linear)"/>
</g>
<defs>
<linearGradient id="paint0_linear" x1="43.5254" y1="68.5479" x2="370.434" y2="511.741" gradientUnits="userSpaceOnUse">
<stop stop-color="#FFE1B5"/>
<stop offset="1" stop-color="#E9D6F8"/>
</linearGradient>
<linearGradient id="paint1_linear" x1="41.3008" y1="61.947" x2="365.547" y2="510.483" gradientUnits="userSpaceOnUse">
<stop stop-color="#FFE1B5"/>
<stop offset="1" stop-color="#E9D6F8"/>
</linearGradient>
<linearGradient id="paint2_linear" x1="39.0371" y1="55.186" x2="362.584" y2="510.018" gradientUnits="userSpaceOnUse">
<stop stop-color="#FFE1B5"/>
<stop offset="1" stop-color="#E9D6F8"/>
</linearGradient>
<linearGradient id="paint3_linear" x1="36.6631" y1="48.334" x2="362.406" y2="510.081" gradientUnits="userSpaceOnUse">
<stop stop-color="#FFE1B5"/>
<stop offset="1" stop-color="#E9D6F8"/>
</linearGradient>
<linearGradient id="paint4_linear" x1="34.3342" y1="41.0364" x2="366.498" y2="511.73" gradientUnits="userSpaceOnUse">
<stop stop-color="#FFE1B5"/>
<stop offset="1" stop-color="#E9D6F8"/>
</linearGradient>
<linearGradient id="paint5_linear" x1="32.002" y1="33.6357" x2="378.44" y2="516.079" gradientUnits="userSpaceOnUse">
<stop stop-color="#FFE1B5"/>
<stop offset="1" stop-color="#E9D6F8"/>
</linearGradient>
<linearGradient id="paint6_linear" x1="29.4697" y1="25.6165" x2="410.197" y2="521.893" gradientUnits="userSpaceOnUse">
<stop stop-color="#FFE1B5"/>
<stop offset="1" stop-color="#E9D6F8"/>
</linearGradient>
<linearGradient id="paint7_linear" x1="27.0933" y1="29.2778" x2="415.793" y2="534.121" gradientUnits="userSpaceOnUse">
<stop stop-color="#FFE1B5"/>
<stop offset="1" stop-color="#E9D6F8"/>
</linearGradient>
<linearGradient id="paint8_linear" x1="24.6921" y1="23.6873" x2="442.507" y2="542.278" gradientUnits="userSpaceOnUse">
<stop stop-color="#FFE1B5"/>
<stop offset="1" stop-color="#E9D6F8"/>
</linearGradient>
<linearGradient id="paint9_linear" x1="22.1533" y1="18.0647" x2="468.732" y2="549.362" gradientUnits="userSpaceOnUse">
<stop stop-color="#FFE1B5"/>
<stop offset="1" stop-color="#E9D6F8"/>
</linearGradient>
<linearGradient id="paint10_linear" x1="19.4683" y1="12.3767" x2="493.299" y2="555.349" gradientUnits="userSpaceOnUse">
<stop stop-color="#FFE1B5"/>
<stop offset="1" stop-color="#E9D6F8"/>
</linearGradient>
<linearGradient id="paint11_linear" x1="16.8687" y1="6.75293" x2="518.425" y2="560.724" gradientUnits="userSpaceOnUse">
<stop stop-color="#FFE1B5"/>
<stop offset="1" stop-color="#E9D6F8"/>
</linearGradient>
<linearGradient id="paint12_linear" x1="14.2817" y1="0.825439" x2="543.411" y2="564.987" gradientUnits="userSpaceOnUse">
<stop stop-color="#FFE1B5"/>
<stop offset="1" stop-color="#E9D6F8"/>
</linearGradient>
<linearGradient id="paint13_linear" x1="11.6226" y1="-4.89771" x2="567.688" y2="569.04" gradientUnits="userSpaceOnUse">
<stop stop-color="#FFE1B5"/>
<stop offset="1" stop-color="#E9D6F8"/>
</linearGradient>
<linearGradient id="paint14_linear" x1="8.93628" y1="-10.8464" x2="591.705" y2="571.659" gradientUnits="userSpaceOnUse">
<stop stop-color="#FFE1B5"/>
<stop offset="1" stop-color="#E9D6F8"/>
</linearGradient>
<linearGradient id="paint15_linear" x1="6.05713" y1="-14.9341" x2="613.264" y2="576.819" gradientUnits="userSpaceOnUse">
<stop stop-color="#FFE1B5"/>
<stop offset="1" stop-color="#E9D6F8"/>
</linearGradient>
<linearGradient id="paint16_linear" x1="3.11963" y1="-21.8506" x2="637.146" y2="578.849" gradientUnits="userSpaceOnUse">
<stop stop-color="#FFE1B5"/>
<stop offset="1" stop-color="#E9D6F8"/>
</linearGradient>
<linearGradient id="paint17_linear" x1="0" y1="-29" x2="660.596" y2="580.622" gradientUnits="userSpaceOnUse">
<stop stop-color="#FFE1B5"/>
<stop offset="1" stop-color="#E9D6F8"/>
</linearGradient>
</defs>
</svg>
