<svg width="509" height="460" viewBox="0 0 509 460" fill="none" xmlns="http://www.w3.org/2000/svg">
<g style="mix-blend-mode:soft-light">
<path d="M100.228 421.979C98.3087 421.979 96.4515 421.836 94.5324 421.621C74.5989 418.977 57.451 402.756 42.0984 371.886C36.1555 360.023 35.0412 347.018 38.6936 333.154C46.1223 305.214 73.6703 272.771 120.657 236.827C140.466 221.678 162.381 206.886 183.738 193.451C179.157 181.446 177.486 170.584 178.848 161.294C181.324 144.43 193.581 132.711 215.248 126.422C326.678 94.2653 347.788 90.6923 349.212 95.1943C350.512 99.2675 336.088 107.628 291.206 132.496C280.001 138.713 267.249 145.788 254.001 153.291C234.625 164.296 210.296 178.302 185.286 194.094C190.053 206.028 197.729 219.248 208.253 233.254C220.263 249.332 235.491 265.911 252.639 281.704C268.487 262.624 282.911 246.474 297.335 233.397C321.107 211.888 341.04 203.241 358.188 206.814C378.988 211.173 396.26 233.183 410.932 274.058C425.294 314.075 425.975 340.658 413.036 352.949C402.884 362.596 384.374 362.81 359.488 353.663C337.14 345.446 310.211 329.724 283.592 309.358C272.82 301.141 262.482 292.494 252.763 283.562C246.387 291.279 239.701 299.426 232.767 308.072L229.734 311.788C186.091 366.026 141.023 421.907 100.228 421.979ZM184.234 194.737C162.938 208.172 141.147 222.892 121.337 238.042C74.5988 273.843 47.2366 305.928 39.8699 333.583C36.3412 347.018 37.4556 359.666 43.1509 371.171C58.2558 401.541 75.0941 417.62 94.5943 420.192C136.257 425.695 183.305 367.384 228.744 310.931L231.777 307.215C238.71 298.64 245.334 290.422 251.711 282.776C234.501 266.912 219.272 250.333 207.2 234.255C196.8 220.106 189.062 206.814 184.234 194.737ZM253.63 282.561C263.349 291.422 273.625 300.069 284.273 308.215C310.83 328.438 337.635 344.159 359.859 352.306C384.312 361.31 402.45 361.167 412.232 351.877C424.675 340.015 423.87 314.003 409.755 274.629C395.269 234.183 378.307 212.459 357.94 208.243C341.164 204.742 321.54 213.317 298.078 234.54C283.839 247.475 269.477 263.553 253.63 282.561ZM345.25 94.9799C341.783 94.9799 334.045 95.9803 317.268 99.9821C296.592 104.913 264.277 113.774 215.496 127.851C194.386 133.925 182.438 145.287 180.024 161.509C178.662 170.584 180.333 181.089 184.791 192.808C209.8 177.087 234.067 163.009 253.444 152.076C266.692 144.573 279.444 137.498 290.649 131.281C307.921 121.706 322.84 113.416 333.054 107.2C347.54 98.41 348.159 96.1947 348.036 95.6945C347.974 95.3372 347.416 94.9799 345.25 94.9799Z" fill="white"/>
<path d="M112.176 414.976C86.299 414.976 59.4939 401.613 39.6842 359.38C34.1127 347.446 33.2459 334.298 37.146 320.363C44.8842 292.78 71.3798 261.052 115.89 226.108C136.195 210.173 160.338 193.523 188.072 176.301C185.038 167.083 183.986 158.65 184.976 151.29C187.019 136.283 197.296 125.779 215.62 119.991L215.805 120.705L215.62 119.991C259.511 106.27 288.792 97.5524 307.921 92.4788C333.921 85.6901 336.707 86.905 337.202 88.62C338.44 92.4788 323.397 101.125 276.597 126.851C266.754 132.282 255.672 138.356 244.22 144.787C224.72 155.72 206.458 166.439 189.495 176.944C194.015 190.164 202.558 205.099 215.001 221.32C229.363 240.114 248.058 259.337 268.982 277.13C274.925 271.342 281.054 265.625 287.182 259.908L290.092 257.193C306.187 242.186 320.302 231.682 333.24 225.179C348.283 217.676 361.345 215.604 373.169 218.891C390.75 223.821 405.36 241.115 416.565 270.413C429.936 305.428 430.989 328.795 419.722 339.943C407.774 351.734 384.56 346.589 367.226 340.158C344.754 331.868 317.392 316.076 290.216 295.781C282.973 290.35 275.854 284.705 269.044 278.917C253.011 294.638 238.587 310.645 231.282 327.009C216.672 359.666 186.4 390.179 154.147 404.828C141.519 410.617 126.971 414.976 112.176 414.976ZM188.505 177.587C160.895 194.809 136.814 211.387 116.571 227.251C72.3083 261.981 45.9366 293.423 38.3222 320.721C34.546 334.298 35.3507 347.018 40.7984 358.594C53.8605 386.463 71.1321 403.971 92.1181 410.545C110.195 416.19 130.995 413.832 153.838 403.471C185.781 388.964 215.867 358.666 230.353 326.294C237.72 309.787 252.144 293.709 268.177 277.988C247.315 260.194 228.62 240.9 214.258 222.178C201.691 205.957 193.086 190.95 188.505 177.587ZM270.096 277.988C276.844 283.705 283.839 289.278 291.021 294.566C328.659 322.65 371.993 345.66 399.293 345.66C407.527 345.66 414.336 343.588 419.041 338.871C429.875 328.224 428.698 305.357 415.574 270.985C404.555 242.115 390.193 225.036 373.045 220.248C351.626 214.246 324.821 226.68 291.021 258.265L288.111 260.98C282.044 266.626 275.977 272.271 270.096 277.988ZM334.045 88.62C331.135 88.62 324.078 89.6204 307.611 93.9794C288.482 98.9816 259.387 107.7 215.991 121.277C198.162 126.851 188.195 136.998 186.214 151.361C185.286 158.507 186.276 166.582 189.124 175.515C206.024 165.01 224.286 154.291 243.725 143.429C255.177 137.07 266.258 130.924 276.101 125.493C293.868 115.703 309.159 107.271 319.807 100.911C334.664 92.05 336.15 89.6204 336.026 88.9773C335.964 88.8344 335.531 88.62 334.045 88.62Z" fill="white"/>
<path d="M130.19 409.473C117.004 409.473 104.561 407.401 93.3561 403.185C68.532 393.967 49.6508 374.958 37.2697 346.732C32.0078 334.727 31.4506 321.435 35.6602 307.286C43.7079 280.06 69.0892 249.047 111.185 215.246C137.247 194.237 166.219 175.015 192.467 159.008C190.857 152.862 190.238 146.788 190.919 141.071C192.467 127.923 200.948 118.633 216.053 113.416C315.287 79.2588 324.326 79.0444 325.316 81.9028C326.554 85.5473 309.964 94.9799 258.52 123.135C250.906 127.28 242.92 131.639 234.624 136.212C222.677 142.786 208.748 150.718 193.953 159.722C197.853 173.943 207.262 190.664 221.872 209.172C239.329 231.325 263.658 254.835 289.597 274.772C289.72 274.629 289.844 274.558 289.968 274.415C331.011 237.256 362.645 222.392 386.664 228.824C401.708 232.897 413.779 245.617 422.57 266.697C435.075 296.71 436.498 317.005 426.779 326.938C407.279 347.018 347.602 318.863 297.087 282.061C294.611 280.203 292.073 278.345 289.597 276.487C277.092 287.849 262.977 300.926 251.958 313.003C240.072 326.08 232.891 336.728 229.982 345.517C232.396 352.234 232.086 358.951 229.115 365.526C221.686 382.033 197.729 396.753 164.981 404.9C153.033 407.973 141.333 409.473 130.19 409.473ZM192.776 160.437C166.652 176.372 137.804 195.523 111.804 216.461C69.9559 250.119 44.6984 280.918 36.7745 307.858C32.6887 321.65 33.2459 334.584 38.3221 346.232C50.5794 374.101 69.1511 392.823 93.6656 401.97C114.156 409.545 138.733 410.188 164.733 403.685C196.615 395.753 220.82 380.961 228.001 365.097C230.848 358.808 231.034 352.449 228.743 346.089L228.62 345.803L228.682 345.517C234.996 325.651 261.491 300.283 288.42 275.844C262.544 255.907 238.277 232.397 220.82 210.244C209.924 196.238 197.667 177.873 192.776 160.437ZM290.587 275.63C292.939 277.416 295.292 279.203 297.706 280.918C325.44 301.141 353.112 316.862 375.707 325.294C400.16 334.369 417.493 334.584 425.913 325.937C435.136 316.504 433.589 296.782 421.393 267.34C412.789 246.688 401.027 234.183 386.355 230.253C362.645 223.893 331.383 238.756 290.587 275.63C290.649 275.63 290.587 275.63 290.587 275.63ZM216.177 114.06L216.362 114.774C201.753 119.776 193.581 128.709 192.095 141.286C191.476 146.431 191.972 152.148 193.519 158.365C208.253 149.432 222.12 141.5 234.005 134.926C242.301 130.352 250.349 125.993 257.901 121.849C277.092 111.344 293.682 102.269 305.444 95.4087C321.106 86.2619 323.892 83.4035 324.016 82.4745C323.397 81.9743 319.559 81.617 297.892 87.9769C280.558 93.0505 253.877 101.84 216.3 114.774L216.177 114.06Z" fill="white"/>
<path d="M156.995 406.043C138.424 406.043 116.2 403.471 94.9041 394.61C66.5514 382.819 46.3083 362.453 34.7939 334.298C29.8415 322.15 29.5939 308.715 34.113 294.209C42.4702 267.34 66.799 237.113 106.419 204.384C131.614 183.59 163 161.937 196.924 141.929C196.182 137.641 196.12 133.997 196.429 130.995C197.543 119.705 204.291 111.63 216.363 106.914C304.269 73.1132 312.44 72.613 313.245 75.1141C313.74 76.6147 312.316 79.0443 289.164 92.3358C273.873 101.125 252.763 112.559 228.249 125.85L224.72 127.78C215.806 132.639 206.953 137.641 198.224 142.715C201.134 157.65 211.472 176.515 228.187 197.167C247.873 221.392 275.606 247.046 304.207 267.412C306.869 269.27 309.531 271.128 312.131 272.914C349.398 243.973 378.865 231.968 399.913 237.256C411.984 240.257 421.394 248.975 428.018 263.196C439.656 288.349 441.513 305.5 433.465 314.218C425.541 322.793 408.208 322.507 383.322 313.217C362.645 305.5 337.698 291.922 312.192 274.558C305.135 280.06 297.768 286.206 290.154 292.923L289.411 293.566C257.901 321.364 228.125 347.732 228.249 364.311C236.358 370.028 239.949 375.744 238.834 381.175C237.596 387.178 230.787 392.466 218.591 396.825C207.51 400.755 192.653 403.685 175.629 405.186C170.181 405.686 163.867 406.043 156.995 406.043ZM197.172 143.286C163.433 163.224 132.171 184.733 107.099 205.456C67.7276 238.042 43.5225 268.055 35.2272 294.638C30.8319 308.715 31.0176 321.864 35.8463 333.583C47.2369 361.452 67.2324 381.533 95.2755 393.18C124.185 405.257 154.952 405.543 175.629 403.685C211.163 400.469 235.492 391.465 237.72 380.746C238.711 375.887 235.244 370.671 227.444 365.24L227.134 365.025V364.668C226.515 347.375 255.363 321.864 288.792 292.351L289.535 291.708C297.026 285.134 304.207 279.131 311.14 273.7C308.664 271.985 306.188 270.27 303.711 268.484C274.987 248.046 247.192 222.321 227.382 198.024C207.572 173.585 199.648 155.792 197.172 143.286ZM313.492 273.629C355.898 302.498 393.66 318.863 415.884 318.863C423.437 318.863 429.194 317.005 432.784 313.074C440.337 304.856 438.418 288.278 427.089 263.767C420.713 249.976 411.551 241.472 399.851 238.542C379.174 233.397 350.202 245.188 313.492 273.629ZM216.61 107.557L216.796 108.2C205.158 112.702 198.72 120.348 197.667 131.067C197.358 134.14 197.482 137.498 198.101 141.143C206.705 136.069 215.434 131.138 224.287 126.351L227.815 124.421C270.22 101.483 310.273 79.7589 312.069 75.5428C311.202 75.257 307.116 75.4714 288.606 81.6884C272.882 86.9764 249.358 95.623 216.796 108.2L216.61 107.557Z" fill="white"/>
<path d="M201.134 405.543C196.243 405.543 191.353 405.472 186.648 405.257C149.319 403.971 59.4939 393.181 32.3793 321.65C26.5601 306.357 28.1697 288.85 37.146 269.698C45.1937 252.548 59.0606 234.04 78.3751 214.746C108.956 184.233 153.343 151.933 201.567 124.921C201.505 123.492 201.505 122.135 201.629 120.777C202.372 111.273 207.448 104.413 216.796 100.339C299.811 63.8235 300.74 66.3961 301.297 67.9682C301.792 69.3974 302.906 72.3272 215.124 119.133C211.039 121.348 206.953 123.564 202.929 125.779C204.105 140.857 215.248 161.58 234.748 184.876C254.93 208.958 282.787 233.969 311.14 253.692C320.178 259.98 329.216 265.84 338.069 271.199C365.802 252.405 393.784 239.114 413.531 243.473C422.446 245.402 429.317 250.833 433.96 259.551C444.856 279.846 447.146 293.923 440.77 301.355C435.941 307 423.498 311.359 391.927 299.64C375.893 293.709 357.321 284.491 338.007 272.843C321.292 284.205 304.64 297.639 289.968 310.287C287.244 312.646 284.582 314.932 281.982 317.219C249.049 345.588 220.572 370.099 226.701 383.176C242.92 388.107 250.534 392.537 250.039 396.611C249.234 403.256 225.586 405.543 201.134 405.543ZM201.691 126.494C153.714 153.434 109.575 185.519 79.1798 215.889C27.8601 267.054 26.003 301.355 33.4936 321.149C60.2987 391.966 149.566 402.613 186.648 403.899C226.701 405.329 248.244 401.113 248.801 396.325C248.987 394.896 247.129 390.822 226.082 384.391L225.834 384.32L225.71 384.034C218.529 369.956 246.201 346.16 281.178 315.933C283.839 313.646 286.501 311.359 289.163 309.001C303.649 296.496 320.054 283.276 336.645 271.914C327.978 266.626 319.187 260.909 310.335 254.835C281.92 235.112 254.001 209.958 233.696 185.805C222.182 172.013 203.548 146.931 201.691 126.494ZM339.245 271.914C358.25 283.276 376.45 292.351 392.236 298.211C416.379 307.143 433.279 307.858 439.841 300.283C445.66 293.494 443.246 279.631 432.846 260.266C428.327 251.905 421.765 246.688 413.222 244.831C393.969 240.614 366.545 253.549 339.245 271.914ZM216.981 101.054L217.229 101.697C208.377 105.556 203.548 112.059 202.867 120.92C202.805 121.992 202.743 123.064 202.805 124.207C206.705 122.063 210.667 119.848 214.567 117.776C285.697 79.8305 298.263 70.7551 299.873 68.6114C297.211 68.397 282.292 73.0418 217.167 101.697L216.981 101.054Z" fill="white"/>
<path d="M256.601 410.974C253.692 410.974 249.358 410.831 242.611 410.331C229.858 409.402 213.824 407.687 197.481 405.4C144.924 398.183 53.3035 376.173 29.9651 309.073C20.0602 280.632 35.2271 244.402 73.8561 204.313C106.542 170.37 154.271 135.712 204.91 109.272C205.467 108.986 206.024 108.7 206.582 108.414C207.51 101.911 211.101 97.0521 217.167 93.9079C240.753 81.6169 259.016 72.5415 271.397 66.7533C288.421 58.8213 288.792 59.8217 289.164 60.6792C289.535 61.5367 290.03 62.8945 265.268 77.5437C249.42 86.9049 229.053 98.1955 207.696 109.415C207.634 109.915 207.572 110.415 207.572 110.915C206.086 142.572 263.349 203.241 317.826 240.043C334.045 250.976 350.326 260.766 365.864 268.769C370.817 265.697 375.522 262.981 380.103 260.552C410.808 244.116 430.865 242.472 439.718 255.835C449.932 271.199 452.78 282.132 448.137 288.206C442.442 295.638 425.665 294.781 400.841 285.848C390.069 281.918 378.307 276.701 365.988 270.413C339.369 286.849 310.954 309.501 289.721 327.581C285.078 331.511 280.497 335.37 276.04 339.086C247.192 363.31 222.306 384.319 222.306 396.182C222.306 398.468 223.234 400.398 225.091 401.97C261.554 406.901 262.173 408.544 262.42 409.259C262.544 409.545 262.482 409.831 262.358 410.116C262.111 410.474 261.739 410.974 256.601 410.974ZM206.334 110.058C206.024 110.201 205.653 110.415 205.343 110.558C154.829 136.998 107.223 171.584 74.599 205.385C26.3127 255.549 24.2699 289.135 31.0176 308.572C54.1702 374.958 145.295 396.825 197.543 403.971C229.549 408.33 254.063 409.973 260.068 409.402C257.468 408.544 249.42 406.758 224.72 403.399H224.534L224.41 403.256C222.182 401.327 221.006 398.969 221.006 396.182C221.006 383.533 244.963 363.382 275.235 337.871C279.692 334.155 284.273 330.296 288.916 326.366C317.578 301.998 342.898 282.99 364.441 269.555C349.15 261.623 333.055 252.048 317.145 241.257C289.04 222.249 260.935 197.596 240.011 173.657C217.601 148.003 205.591 125.636 206.334 110.772C206.334 110.558 206.334 110.344 206.334 110.058ZM367.288 269.555C379.174 275.629 390.627 280.703 401.089 284.49C425.046 293.137 441.823 294.138 447.084 287.277C451.232 281.846 448.323 271.27 438.603 256.764C427.584 239.971 398.798 250.261 367.288 269.555ZM217.415 94.5511L217.663 95.1942C212.277 97.9811 209.058 102.197 207.943 107.7C251.958 84.5467 282.416 66.1101 287.306 61.6082C284.149 62.3943 271.211 67.3964 217.663 95.1942L217.415 94.5511Z" fill="white"/>
<path d="M269.23 430.697C259.82 430.697 240.072 426.481 223.172 422.407C219.272 421.478 217.105 419.621 216.61 416.905C216.177 414.547 217.105 411.546 219.21 408.116C215.62 407.187 211.967 406.329 208.253 405.543C103.942 382.462 43.089 345.803 27.4269 296.567C22.8459 282.132 24.5173 265.482 32.5031 247.117C39.8079 230.324 52.1272 212.459 69.2131 193.951C100.971 159.508 146.905 125.493 195.129 100.768C201.443 97.4809 207.634 94.2652 213.453 91.0496C214.505 89.6204 215.867 88.4056 217.477 87.4051C235.677 75.6858 250.906 66.2531 261.553 59.9647C275.42 51.8183 275.977 52.2471 276.411 52.5329C276.597 52.6758 276.72 52.9617 276.72 53.2475C276.72 53.6763 276.658 54.2479 270.22 58.7498C267.187 60.8222 261.739 64.4666 253.196 69.7546C245.582 74.3995 231.901 82.6173 214.258 92.2644C212.524 94.694 211.658 97.6239 211.596 101.125C211.534 114.631 224.039 135.783 246.82 160.58C268.425 184.161 296.716 208.172 324.45 226.465C350.821 243.83 374.222 257.479 393.474 266.983C419.103 252.262 436.437 247.26 445.165 252.048L445.351 252.119L445.475 252.334C452.47 265.982 453.894 275.344 449.808 280.203C443.432 287.635 423.56 283.276 393.536 268.626C390.441 270.413 387.16 272.342 383.817 274.486C357.817 290.636 325.192 315.004 289.349 345.017C286.749 347.232 284.149 349.376 281.611 351.52C254.496 374.172 230.229 394.467 221.377 407.329C252.02 415.047 273.563 424.051 274.739 428.196C274.925 428.767 274.801 429.268 274.492 429.696C273.811 430.339 271.954 430.697 269.23 430.697ZM220.448 408.473C218.344 411.76 217.353 414.547 217.786 416.691C218.158 418.763 220.077 420.264 223.42 421.05C271.273 432.555 273.439 428.767 273.563 428.553C273.563 427.838 270.344 424.694 255.301 419.049C245.334 415.333 233.325 411.688 220.448 408.473ZM212.029 93.4077C206.891 96.1946 201.381 99.1245 195.624 102.054C147.524 126.779 101.775 160.651 70.0798 195.023C53.1177 213.388 40.8604 231.182 33.6174 247.832C25.8173 265.84 24.1459 282.061 28.6031 296.138C44.0795 344.874 104.623 381.175 208.501 404.185C212.462 405.043 216.301 405.972 220.015 406.901C228.744 393.824 252.515 373.958 280.806 350.233C283.344 348.09 285.944 345.946 288.544 343.73C313.554 322.793 350.202 293.566 383.136 273.128C386.169 271.27 389.141 269.484 391.988 267.84C372.922 258.408 349.955 244.902 323.831 227.752C296.035 209.458 267.62 185.376 245.953 161.652C222.924 136.569 210.296 115.06 210.358 101.125C210.42 98.1955 210.915 95.623 212.029 93.4077ZM395.022 267.698C414.77 277.273 430.06 282.347 439.594 282.347C443.927 282.347 447.084 281.275 448.942 279.131C452.594 274.843 451.108 266.125 444.546 253.191C436.127 248.761 419.536 253.691 395.022 267.698ZM217.786 88.0482L218.034 88.5485L217.786 88.0482ZM272.944 55.1054C266.506 58.3926 249.915 68.254 219.334 87.8339C245.83 73.1847 266.011 60.322 272.944 55.1054Z" fill="white"/>
<path d="M218.22 441.773C215.001 441.773 213.144 440.844 212.463 438.986C210.42 433.055 223.172 419.477 233.139 409.688C228.62 408.473 223.915 407.115 219.086 405.757C184.296 395.539 139.476 381.247 101.28 360.952C58.8131 338.371 33.1842 312.503 25.0126 284.062C17.2745 257.121 31.327 221.463 64.6322 183.59C95.3373 148.717 139.352 115.417 185.41 92.1929C212.029 78.7585 233.077 69.5402 243.23 65.2526C250.473 62.1799 256.663 59.6788 261.244 58.0352C268.301 55.4627 268.735 55.82 269.044 56.1773C269.23 56.3916 269.354 56.6775 269.292 56.9633C269.23 57.535 269.106 58.3211 257.096 64.3237C248.306 68.6827 234.996 74.8282 218.591 82.1885C216.425 85.4757 215.744 89.8347 216.61 94.9798C219.025 108.914 232.706 129.066 255.115 151.79C276.349 173.299 304.021 195.595 331.135 212.959C367.845 236.47 398.489 253.477 420.217 262.695C434.084 254.192 444.794 248.904 450.613 248.475H450.984L451.17 248.832C457.051 258.979 458.537 265.697 455.627 269.341C451.727 274.272 439.841 272.557 420.279 264.339C411.241 269.913 400.593 276.987 388.398 285.634C359.612 305.928 324.326 333.226 288.978 362.453C264.339 382.819 247.315 397.968 235.801 409.187C243.725 411.331 250.968 413.189 257.344 414.761C279.754 420.478 288.854 422.908 288.73 426.409C288.544 430.554 274.182 433.841 221.872 441.701C220.51 441.701 219.272 441.773 218.22 441.773ZM234.625 410.045C216.548 427.767 212.586 435.413 213.577 438.414C214.196 440.129 216.982 440.701 221.687 439.986C247.377 436.128 262.606 433.555 272.511 431.411C285.449 428.624 287.43 426.838 287.43 426.052C287.492 423.622 272.697 419.835 257.035 415.833C250.473 414.261 242.92 412.331 234.625 410.045ZM266.258 57.8923C257.592 60.4649 225.463 73.6848 185.905 93.5506C95.4611 139.07 9.72199 226.251 26.1889 283.633C34.2366 311.645 59.6797 337.228 101.837 359.666C139.971 379.96 184.729 394.181 219.458 404.4C224.596 405.9 229.549 407.329 234.377 408.616C246.944 396.325 265.082 380.389 288.359 361.167C333.24 324.008 384.993 284.562 418.856 263.553C417.246 262.838 415.574 262.124 413.841 261.338C392.298 251.548 363.512 235.183 330.64 214.174C303.464 196.738 275.668 174.443 254.373 152.862C231.777 129.923 217.972 109.486 215.496 95.2656C214.505 89.6203 215.31 84.8325 217.786 81.1881L217.91 81.0452L218.096 80.9737C251.215 66.0387 262.482 60.1076 266.258 57.8923ZM421.827 263.196C439.718 270.627 451.294 272.557 454.761 268.126C457.175 265.125 455.689 258.908 450.365 249.69C445.042 250.404 435.384 254.978 421.827 263.196Z" fill="white"/>
<path d="M215 460.924C210.976 460.924 208.686 459.852 208.005 457.78C205.776 451.277 220.262 435.842 247.748 412.046C242.053 410.045 236.234 408.044 230.043 405.829C186.895 390.536 141.58 373.886 102.889 352.591C56.3365 327.009 30.0886 300.426 22.66 271.485C15.9123 245.045 29.16 210.101 60.0508 173.228C89.5179 137.998 131.676 105.341 175.752 83.6892C196.181 73.6849 216.486 64.5381 233.015 58.1067C257.653 48.4597 258.396 50.4605 258.767 51.3895C259.201 52.5328 260.129 54.9625 219.21 75.5428C212.834 99.6961 277.587 161.652 337.945 199.168C371.869 220.248 401.15 236.898 422.57 247.189C430.927 251.19 437.489 253.977 442.627 255.835C448.632 251.047 453.275 247.26 456.122 244.83L456.618 244.402L456.989 244.902C461.756 251.762 463.241 256.264 461.446 258.694C459.403 261.481 453.275 261.052 442.813 257.336C433.527 264.696 421.022 274.486 406.784 285.634C374.283 311.073 329.835 345.874 288.792 379.389C277.525 388.607 263.534 400.041 250.41 411.331C283.344 422.765 303.154 429.768 302.597 437.271C302.163 443.702 287.987 450.062 220.448 460.352C218.343 460.781 216.548 460.924 215 460.924ZM249.11 412.546C226.577 432.054 207.015 451.063 209.119 457.28C209.615 458.78 211.967 460.352 220.2 459.066C249.296 454.636 269.725 450.777 282.539 447.204C294.735 443.845 301.049 440.487 301.297 437.271C301.73 430.84 278.577 422.765 249.11 412.546ZM256.91 51.9612C251.153 51.9612 217.291 64.7524 176.186 85.047C132.295 106.628 90.2607 139.142 60.8556 174.3C30.2743 210.816 17.1503 245.259 23.7742 271.199C40.7363 337.442 159.409 379.46 230.353 404.614C236.729 406.901 242.796 408.973 248.677 411.045C248.739 411.045 248.863 411.117 248.925 411.117C260.006 401.541 273.068 390.679 287.987 378.531C329.03 344.945 373.54 310.144 406.041 284.705C419.908 273.843 432.103 264.339 441.265 257.05C435.941 255.049 429.503 252.262 422.012 248.689C400.531 238.399 371.25 221.749 337.264 200.597C306.62 181.589 274.553 156.078 251.525 132.496C237.039 117.704 213.453 90.4779 218.034 74.9711L218.096 74.6853L218.343 74.5424C251.277 57.9638 256.539 53.3189 257.406 52.1756C257.282 51.9612 257.096 51.9612 256.91 51.9612ZM444.051 256.407C455.751 260.48 459.341 259.337 460.394 257.908C461.26 256.693 461.26 253.691 456.308 246.403C453.584 248.761 449.375 252.119 444.051 256.407Z" fill="white"/>
<path d="M211.224 480.218C206.582 480.218 203.981 479.075 203.239 476.788C200.453 468.642 223.667 447.919 263.535 415.333C256.415 412.332 248.801 409.259 240.877 406.043C237.349 404.614 233.758 403.185 230.106 401.684C187.515 384.391 139.166 364.811 99.0516 341.372C52.2511 314.075 26.4984 287.135 20.1841 258.98C8.17439 205.171 77.6324 117.561 166.033 75.1856C186.648 65.2527 206.705 56.7491 222.491 51.1752C247.068 42.5286 248.244 45.4585 248.615 46.4589C249.111 47.6737 250.411 50.8894 219.767 68.9687C222.801 92.193 283.035 148.575 344.631 185.662C379.546 206.671 409.384 223.679 430.927 234.755C444.608 241.829 452.965 245.402 458.042 247.26C459.527 245.188 460.766 243.258 461.756 241.543L462.127 240.829L462.685 241.401C466.523 245.474 467.823 247.975 466.956 249.404C466.523 250.047 465.78 251.405 458.475 248.904C437.799 276.559 372.983 328.796 310.149 379.46C302.845 385.32 295.602 391.18 288.421 396.968L286.316 398.683C279.506 404.185 272.697 409.688 266.196 415.047C297.149 428.053 317.516 438.343 316.588 448.276C315.597 459.709 286.378 469.142 218.901 479.647C215.867 479.932 213.329 480.218 211.224 480.218ZM264.896 415.905C230.106 444.274 201.815 468.713 204.353 476.288C204.972 478.075 207.943 479.79 218.653 478.146C283.654 467.999 314.359 458.423 315.288 448.062C316.092 438.986 294.983 428.482 264.896 415.905ZM245.644 46.5304C242.796 46.5304 236.11 47.8166 222.801 52.533C207.077 58.1068 187.019 66.6105 166.467 76.4719C124.371 96.695 84.1943 128.494 56.213 163.867C28.4175 198.954 15.7268 233.469 21.3602 258.622C27.5508 286.349 53.1177 312.932 99.6088 340.086C139.724 363.453 187.948 383.033 230.539 400.327C234.191 401.827 237.782 403.256 241.311 404.686C249.606 408.044 257.468 411.26 264.773 414.333C271.273 408.973 278.268 403.399 285.635 397.397L287.74 395.682C294.921 389.893 302.164 384.034 309.468 378.174C371.931 327.795 436.375 275.915 457.175 248.332C451.851 246.403 443.556 242.687 430.432 235.97C408.827 224.822 378.988 207.886 344.074 186.805C314.792 169.155 283.963 146.002 259.573 123.206C234.253 99.5533 219.644 80.1878 218.529 68.5399L218.467 68.0397L218.839 67.8253C247.996 50.675 247.687 47.3164 247.563 46.9591C247.315 46.7447 246.758 46.5304 245.644 46.5304ZM459.218 247.546C464.666 249.333 465.656 248.689 465.842 248.404C465.842 248.332 466.399 247.403 462.313 242.83C461.447 244.33 460.456 245.902 459.218 247.546Z" fill="white"/>
<path d="M212.029 498.655C203.548 498.655 199.029 497.083 198.1 493.724C195.5 484.863 219.644 465.998 256.23 437.485C263.658 431.697 271.335 425.695 279.197 419.478C270.963 415.19 261.801 410.688 251.649 406.115C242.982 402.184 234.13 398.254 224.782 394.109C137.619 355.307 29.2222 307 17.6459 246.403C12.8173 221.177 24.827 186.948 50.5178 152.505C77.5086 116.346 115.023 85.833 156.19 66.6104C194.82 48.6026 235.677 34.2393 239.02 41.7425C241.001 46.2445 229.425 55.4628 220.201 62.18C232.829 87.1194 294.859 139.07 351.193 171.87C413.16 207.957 454.513 230.967 467.389 237.685L467.575 237.113L468.194 237.47C472.28 239.971 472.404 240.043 472.094 240.757C471.847 241.329 471.785 241.543 468.07 239.614C461.508 257.979 439.965 283.776 402.265 318.362C369.517 348.447 329.526 380.818 287.987 414.047C285.883 415.762 283.716 417.405 281.673 419.12C316.278 437.485 332.869 453.135 331.074 465.64C329.897 474.144 320.673 480.933 302.907 486.364C284.025 492.08 255.177 496.154 217.291 498.44C215.434 498.655 213.639 498.655 212.029 498.655ZM280.497 420.192C272.387 426.624 264.525 432.769 256.911 438.7C223.42 464.783 196.986 485.435 199.277 493.295C200.205 496.439 206.272 497.726 217.229 497.083C289.659 492.724 327.545 482.148 329.897 465.498C331.012 457.708 324.078 448.276 309.283 437.557C301.73 432.126 292.135 426.266 280.497 420.192ZM233.634 41.0994C230.106 41.0994 223.791 42.0998 212.401 45.6014C197.11 50.3177 177.362 58.2497 156.624 67.9682C115.642 87.1193 78.2514 117.49 51.3844 153.505C25.9412 187.591 14.0554 221.392 18.8221 246.188C30.2127 306 138.362 354.164 225.215 392.823C234.625 396.968 243.477 400.97 252.082 404.828C262.544 409.545 271.954 414.118 280.311 418.549C282.602 416.762 284.892 414.904 287.244 413.046C356.826 357.308 451.913 281.203 466.894 239.185C465.78 238.614 464.356 237.827 462.685 236.899C456.742 233.683 448.384 229.109 438.542 223.607C413.965 209.887 382.765 192.022 350.636 173.3C293.683 140.142 230.91 87.2623 218.839 62.3943L218.529 61.8227L219.025 61.4654C237.658 47.8881 238.401 43.672 237.906 42.5286C237.72 41.9569 236.915 41.0994 233.634 41.0994Z" fill="white"/>
<path d="M206.643 518.02C198.41 518.02 194.076 516.52 193.086 513.304C190.672 505.158 211.162 488.865 250.782 458.423C261.801 449.991 274.244 440.415 286.997 430.268C289.782 428.053 292.506 425.909 295.292 423.694C285.82 418.191 274.925 412.403 262.544 406.258C249.358 399.755 235.553 393.18 220.882 386.177C176.681 365.097 126.599 341.229 87.6609 315.933C43.027 286.92 19.3172 260.051 15.1695 233.897C11.3314 209.315 22.722 175.015 45.6889 142.215C71.0702 105.913 106.852 76.1145 146.471 58.1782C183.367 41.4567 225.339 27.8794 230.415 37.5264C232.334 41.1708 229.115 47.0305 220.696 55.6057C247.129 85.6187 313.987 133.711 357.878 158.436C401.646 183.018 428.141 198.31 446.403 209.601C474.261 226.751 477.666 231.325 477.232 233.683C476.985 235.041 475.499 235.326 474.199 235.398C468.813 259.766 446.837 290.565 406.908 329.653C374.779 361.095 335.84 393.252 297.706 423.694C331.692 443.845 347.354 460.638 345.312 474.787C342.278 496.011 299.935 510.088 215.805 517.734C212.339 517.877 209.305 518.02 206.643 518.02ZM296.53 424.48C293.559 426.838 290.649 429.196 287.678 431.554C274.925 441.702 262.482 451.277 251.463 459.709C218.22 485.22 191.972 505.372 194.262 512.875C195.253 516.234 202.496 517.306 215.743 516.162C298.078 508.659 341.288 494.653 344.135 474.43C345.435 465.212 338.254 454.35 322.84 442.13C315.721 436.485 307.054 430.625 296.53 424.48ZM221.748 35.597C208.439 35.597 179.962 44.458 146.966 59.393C107.533 77.2579 71.9369 106.914 46.7413 143.001C24.022 175.515 12.6933 209.387 16.4696 233.54C20.4934 259.265 44.0175 285.777 88.3419 314.575C127.157 339.8 177.238 363.739 221.377 384.748C235.986 391.751 249.853 398.326 263.039 404.828C275.668 411.045 286.749 416.977 296.468 422.693C334.726 392.18 373.85 359.88 406.103 328.295C446.094 289.135 468.008 258.408 473.085 234.254L473.208 233.683H473.704C475.87 233.683 475.994 233.04 475.994 233.04C476.242 231.753 472.651 227.109 445.784 210.53C427.522 199.311 401.088 184.018 357.321 159.436C301.359 127.994 240.815 80.4736 219.334 55.82L218.839 55.2484L219.334 54.7481C229.486 44.6009 230.415 40.0275 229.301 38.0266C228.496 36.4545 225.834 35.597 221.748 35.597Z" fill="white"/>
<path d="M200.886 537.457C192.962 537.457 188.877 536.028 187.948 532.955C185.41 524.737 209.305 506.587 245.52 479.218C257.963 469.785 272.078 459.066 286.687 447.633C294.797 441.201 302.968 434.77 311.078 428.196C300.368 421.336 287.802 414.047 273.378 406.4C255.982 397.182 237.472 387.893 217.91 378.031C124.99 331.368 19.7507 278.416 12.7554 221.249C9.84585 197.167 20.6173 162.866 40.8604 131.71C64.5083 95.4086 98.5564 66.1817 136.69 49.4601C157.305 40.4562 176.929 33.739 192.034 30.6663C213.02 26.3072 220.448 29.7373 222.925 33.3817C225.339 36.8832 224.658 42.0283 220.944 48.7455C255.673 76.4004 315.226 118.061 364.502 144.644C446.899 189.235 481.009 212.674 482.247 225.465C482.432 227.752 481.69 229.681 479.956 231.325C471.413 290.422 394.465 362.381 313.369 427.981C322.716 434.055 330.578 439.844 337.078 445.346C353.793 459.638 361.16 472.072 359.488 483.362C355.898 508.23 308.354 525.595 214.258 536.457C208.996 537.171 204.539 537.457 200.886 537.457ZM312.316 428.982C304.021 435.699 295.725 442.273 287.43 448.847C272.82 460.352 258.706 471 246.263 480.433C213.143 505.515 187.019 525.309 189.186 532.527C190.238 536.028 198.719 536.957 214.196 535.099C306.435 524.452 354.907 506.944 358.374 483.148C360.479 468.284 345.374 450.42 312.316 428.982ZM209.058 30.0232C193.953 30.0232 168.076 37.312 137.247 50.8179C99.2993 67.3965 65.437 96.4805 41.9129 132.568C21.7936 163.438 11.1459 197.381 13.9935 221.034C20.865 277.416 125.795 330.153 218.405 376.673C238.03 386.535 256.539 395.824 273.873 405.043C288.668 412.903 301.421 420.264 312.192 427.195C393.412 361.595 470.485 289.564 478.78 230.753L478.842 230.467L479.028 230.324C480.575 228.966 481.194 227.394 481.009 225.608C479.894 213.531 444.856 189.664 364.007 145.93C314.421 119.133 254.496 77.115 219.767 49.4601L219.272 49.0314L219.582 48.4597C223.296 42.0284 224.101 37.2406 221.996 34.1678C220.139 31.4524 215.62 30.0232 209.058 30.0232Z" fill="white"/>
<path d="M195.376 557.037C187.762 557.037 183.8 555.608 182.871 552.75C180.395 544.746 202.991 527.882 240.443 499.87C254.31 489.508 269.972 477.789 286.377 464.997C299.625 454.636 313.121 443.845 326.616 432.698C314.916 424.551 300.863 415.905 284.273 406.543C262.977 394.61 240.01 382.533 215.681 369.813C167.395 344.517 117.499 318.362 78.8082 291.494C34.8553 260.909 12.4456 233.826 10.3408 208.743C8.2979 184.59 18.1409 151.147 36.0316 121.348C51.446 95.6944 79.7987 60.8936 127.033 41.0279C146.966 32.6671 165.662 26.8789 181.076 24.4493C197.914 21.7338 210.11 23.2345 216.3 28.7368C219.891 31.8811 221.562 36.383 221.253 42.0998C229.981 47.4592 239.763 53.4619 250.039 59.8932C286.315 82.403 331.506 110.487 371.25 131.138C447.332 170.655 480.761 194.666 486.58 214.103C488.004 218.819 487.694 223.321 485.775 227.609C479.337 294.924 405.05 369.384 328.845 432.626C361.902 455.922 376.388 475.216 373.85 492.223C369.64 520.736 316.959 541.459 212.834 555.608C205.653 556.537 199.834 557.037 195.376 557.037ZM327.73 433.484C314.111 444.774 300.43 455.708 287.058 466.141C270.653 478.932 254.991 490.723 241.124 501.084C208.005 525.809 181.881 545.389 184.048 552.321C185.162 555.965 194.819 556.608 212.71 554.179C266.32 546.89 306.93 537.672 333.426 526.738C357.569 516.805 370.755 505.086 372.674 492.009C374.407 480.075 366.854 466.284 350.078 451.063C343.888 445.417 336.459 439.629 327.73 433.484ZM195.933 24.5208C179.343 24.5208 155.323 30.6663 127.466 42.3856C80.5416 62.1085 52.3746 96.6949 37.0839 122.206C19.317 151.719 9.53601 184.876 11.5789 208.672C13.6837 233.325 35.9077 260.051 79.4892 290.35C118.118 317.219 167.952 343.302 216.177 368.598C240.505 381.318 263.472 393.395 284.768 405.329C301.482 414.69 315.721 423.551 327.668 431.84C403.936 368.67 478.223 294.28 484.537 227.323V227.18L484.599 227.037C486.456 223.035 486.704 218.962 485.342 214.532C479.77 195.738 445.474 171.227 370.693 132.425C330.887 111.773 285.696 83.6892 249.42 61.108C238.958 54.6052 229.115 48.4597 220.262 43.1002L219.891 42.8859L219.953 42.3856C220.324 37.0262 218.839 32.7386 215.496 29.8087C211.534 26.2358 204.786 24.5208 195.933 24.5208Z" fill="white"/>
<path d="M189.743 576.688C182.376 576.688 178.476 575.331 177.672 572.615C175.195 564.826 197.853 548.105 235.429 520.378C250.658 509.159 267.93 496.368 286.068 482.29C305.754 466.998 324.202 451.777 341.226 436.771C328.597 427.41 313.245 417.405 295.106 406.686C270.158 391.894 242.858 377.173 213.948 361.524C113.909 307.358 10.4648 251.405 7.92668 196.167C7.06 176.944 12.6934 144.501 31.1412 110.844C45.2557 85.1899 71.6274 50.7464 117.314 32.3813C158.295 15.9456 207.139 8.08503 221.439 35.3111C246.077 47.5307 273.625 62.3228 300.244 76.6147C326.554 90.7637 353.731 105.341 377.998 117.418C466.832 161.509 496.547 189.306 491.594 223.821C485.59 265.697 460.766 312.217 417.927 362.167C397.189 386.32 372.241 411.26 343.393 436.699C376.574 461.639 390.936 482.505 388.212 500.941C383.384 533.17 325.564 557.251 211.41 574.545C202.186 575.974 195.067 576.688 189.743 576.688ZM342.34 437.628C325.192 452.706 306.621 468.07 286.749 483.505C268.549 497.654 251.339 510.374 236.11 521.593C202.929 546.104 176.743 565.469 178.848 572.115C180.024 575.902 190.919 576.26 211.224 573.187C270.035 564.255 314.607 553.25 343.702 540.601C370.198 529.025 384.746 515.591 386.974 500.727C389.636 482.791 375.274 462.282 342.34 437.628ZM182.376 18.8754C181.881 18.8754 181.386 18.8754 180.891 18.8754C163.371 19.1613 140.9 24.4492 117.747 33.739C72.4322 51.9612 46.1843 86.1188 32.1936 111.558C13.8696 144.93 8.23621 177.087 9.16479 196.024C10.2791 220.32 32.0079 247.189 75.5275 278.273C114.218 305.857 165.229 333.512 214.505 360.166C243.415 375.816 270.716 390.608 295.664 405.329C313.988 416.119 329.464 426.266 342.216 435.77C371.188 410.188 396.198 385.248 416.998 361.024C459.651 311.359 484.351 265.053 490.294 223.464C495.123 189.807 465.594 162.366 377.441 118.633C353.174 106.628 325.997 91.9785 299.687 77.8295C273.006 63.4662 245.396 48.6741 220.758 36.4545L220.572 36.383L220.448 36.1686C214.629 24.878 201.443 18.8754 182.376 18.8754Z" fill="white"/>
<path d="M183.986 596.411C176.929 596.411 173.276 595.125 172.409 592.481C169.995 584.906 192.714 568.256 230.415 540.744C247.006 528.668 265.763 514.948 285.697 499.584C311.759 479.504 335.097 460.067 355.959 441.13C342.402 430.411 325.811 419.049 305.94 406.829C277.401 389.25 244.529 370.957 212.71 353.235C110.937 296.639 5.75985 238.185 5.45032 183.661C5.32651 163.795 10.7123 131.496 26.1887 100.411C44.4508 63.6806 72.6178 37.3121 107.594 23.9491C148.328 8.44243 190.981 10.3004 221.686 28.8084C257.963 50.675 297.768 67.1107 332.93 81.617C351.378 89.2631 368.836 96.4091 384.622 103.841C430.617 125.565 458.784 143.215 475.808 161.009C492.461 178.373 499.085 196.667 497.29 220.177C493.699 267.912 468.937 319.506 423.746 373.458C405.236 395.539 383.507 417.977 358.064 441.058C365.802 447.275 372.488 453.135 378.183 458.852C396.879 477.646 404.803 494.296 402.45 509.66C397.003 545.604 333.983 573.044 209.8 593.625C198.472 595.482 189.991 596.411 183.986 596.411ZM357.074 441.987C336.088 460.996 312.625 480.576 286.439 500.727C266.506 516.091 247.748 529.811 231.158 541.959C197.853 566.256 171.543 585.478 173.648 591.981C174.886 595.84 187.019 595.911 209.738 592.195C273.811 581.619 322.345 568.899 354.04 554.393C382.888 541.173 398.86 526.095 401.398 509.445C404.184 490.151 390.007 468.213 357.074 441.987ZM162.628 14.8738C144.862 14.8738 126.228 18.3038 108.028 25.2354C73.2987 38.4554 45.3794 64.6811 27.303 101.054C11.9504 131.853 6.62651 163.938 6.75032 183.59C7.05985 237.256 111.928 295.495 213.329 351.948C245.148 369.67 278.082 387.964 306.621 405.543C326.864 418.048 343.578 429.482 357.074 440.201C382.579 417.048 404.369 394.538 422.941 372.457C467.946 318.72 492.585 267.412 496.113 220.034C497.847 196.953 491.347 179.088 475.004 162.009C458.042 144.287 430.06 126.779 384.188 105.127C368.402 97.6954 351.007 90.478 332.497 82.9033C297.335 68.397 257.468 51.9613 221.129 30.0232C204.415 19.9474 184.172 14.8738 162.628 14.8738Z" fill="white"/>
<path d="M178.414 616.206C171.543 616.206 168.014 614.92 167.148 612.418C164.857 605.273 184.605 590.552 226.02 560.753C243.787 547.962 263.906 533.456 285.387 516.949C317.64 492.152 345.745 468.427 370.26 445.346C356.083 433.555 338.44 420.907 316.835 407.044C285.201 386.821 248.43 365.955 212.896 345.731C160.957 316.219 107.285 285.705 67.7892 256.407C46.4937 240.614 30.9555 226.394 20.2459 213.031C8.17429 197.953 2.54085 184.233 3.0361 171.084C3.65515 154.649 6.81236 122.135 21.1744 89.7634C37.6413 52.6758 63.4559 27.665 97.8754 15.374C135.452 2.01103 179.591 4.44066 221.996 22.2341C253.568 35.4541 283.901 47.2449 310.645 57.6066C341.474 69.5403 368.093 79.9019 391.307 90.1921C437.427 110.772 465.285 128.494 481.751 147.646C497.599 166.082 503.975 186.663 503.047 216.533C502.18 244.902 494.752 274.272 481.07 303.856C468.937 330.082 451.48 357.236 429.194 384.534C412.974 404.4 394.093 424.551 372.241 445.203C379.793 451.563 386.293 457.566 391.865 463.425C411.241 483.791 419.351 501.799 416.751 518.449C410.56 558.038 342.402 588.765 208.253 612.561C194.881 614.991 185.1 616.206 178.414 616.206ZM371.312 446.132C346.735 469.356 318.445 493.152 286.068 518.092C264.525 534.599 244.406 549.105 226.639 561.897C192.9 586.264 166.219 605.487 168.262 611.918C170.181 617.921 198.719 612.847 208.067 611.204C277.339 598.913 329.835 584.478 364.069 568.256C395.331 553.464 412.603 536.671 415.513 518.235C418.051 502.085 410.003 484.506 390.998 464.497C385.488 458.638 378.926 452.492 371.312 446.132ZM148.824 8.29947C131.242 8.29947 114.157 11.0864 98.2468 16.7317C64.1369 28.8798 38.5698 53.6763 22.2887 90.4065C8.05043 122.563 4.89326 154.792 4.27421 171.156C2.29323 224.393 109.637 285.42 213.453 344.374C249.049 364.597 285.82 385.534 317.454 405.686C339.183 419.692 357.012 432.483 371.25 444.274C393.165 423.551 412.108 403.399 428.327 383.462C450.489 356.307 467.885 329.224 480.018 303.07C493.637 273.7 500.942 244.473 501.809 216.39C502.737 186.948 496.485 166.654 480.885 148.575C464.542 129.566 436.746 111.916 390.874 91.4784C367.721 81.1168 341.102 70.8266 310.273 58.8928C283.53 48.5312 253.196 36.8118 221.563 23.5203C197.357 13.3731 172.595 8.29947 148.824 8.29947Z" fill="white"/>
<path d="M172.471 636C164.609 636 162.505 634.285 161.886 632.356C159.595 625.353 179.405 610.846 220.696 581.333C239.887 567.613 261.615 552.035 285.078 534.17C323.583 504.729 356.517 476.574 384.312 449.062C369.455 436.199 350.697 422.265 327.73 407.044C292.506 383.748 251.215 359.737 211.224 336.585C158.233 305.857 103.447 274.129 63.7654 244.187C42.408 228.037 26.9317 213.674 16.4696 200.24C4.64567 185.09 -0.554434 171.37 0.559865 158.436L0.683722 156.721C1.98374 141.214 3.9647 117.704 11.2695 93.0504C20.122 63.3947 34.4841 40.4562 53.9843 24.9495C91.3753 -4.77765 148.019 -7.99332 222.367 15.5883C293.744 38.241 336.769 52.6758 370.755 65.61C410.374 80.6165 437.984 93.8365 457.67 106.985C477.851 120.491 490.851 134.854 498.652 152.076C505.709 167.654 508.866 186.377 508.866 212.745C508.866 244.187 501.809 276.416 487.942 308.644C475.685 337.156 457.732 366.383 434.579 395.467C420.527 413.118 404.555 430.911 386.355 448.919C393.784 455.422 400.222 461.639 405.731 467.641C425.789 489.508 434.146 508.873 431.298 526.881C424.489 570.257 351.069 604.415 206.891 631.498C189.681 634.857 179.095 636 172.471 636ZM385.364 449.991C357.445 477.574 324.449 505.872 285.759 535.385C262.296 553.321 240.567 568.828 221.315 582.548C187.638 606.63 161.019 625.638 163 631.855C164.981 637.929 196.305 632.07 206.581 630.14C350.14 603.2 423.189 569.4 429.936 526.738C432.722 509.231 424.489 490.294 404.741 468.785C399.293 462.782 392.793 456.494 385.364 449.991ZM134.4 1.51079C102.023 1.51079 75.3417 9.72862 54.6653 26.2358C9.84571 61.8941 4.52186 126.065 1.92183 156.935L1.79798 158.65C-0.183001 182.161 20.3078 209.744 64.4464 243.044C104.004 272.914 158.79 304.642 211.781 335.37C251.772 358.523 293.125 382.533 328.35 405.9C351.502 421.264 370.321 435.199 385.303 448.204C403.565 430.125 419.598 412.332 433.651 394.681C456.742 365.669 474.632 336.585 486.828 308.144C500.633 276.13 507.628 244.116 507.628 212.888C507.628 186.734 504.533 168.226 497.599 152.862C489.923 135.855 477.047 121.777 457.113 108.343C416.998 81.4025 346.488 56.4632 222.12 17.089C189.31 6.65587 160.09 1.51079 134.4 1.51079Z" fill="white"/>
</g>
</svg>
