<svg width="156" height="24" viewBox="0 0 156 24" fill="none" xmlns="http://www.w3.org/2000/svg">
<g clip-path="url(#clip0)">
<path d="M13.7817 16.056V16.4336H7.41003V16.056C8.58997 15.9616 8.54277 15.3953 8.54277 14.4041V9.16519C8.54277 8.22124 8.16519 7.65487 7.31563 7.65487C6.51327 7.65487 5.23894 8.78761 5.19174 10.4395V14.4041C5.19174 15.3953 5.09734 15.9616 6.32448 16.056V16.4336H0V16.056C1.36873 15.9616 1.65192 15.3953 1.65192 14.1681V8.36283C1.65192 7.18289 1.36873 6.56932 0 6.47493V6.09734H5.23894V8.83481C5.80531 7.23009 7.17404 5.90855 8.96755 5.90855C10.997 5.90855 12.1298 6.9941 12.1298 9.0236V14.2153C12.1298 15.3953 12.413 15.9616 13.7817 16.056Z" fill="black"/>
<path d="M26.2419 12.8466C26.2419 15.1121 25.298 16.5752 23.3629 16.5752C21.3806 16.5752 20.4838 15.1593 20.4838 13.649V12.8938C20.0119 15.3481 18.5015 16.5752 16.8024 16.5752C15.5281 16.5752 14.2065 15.8201 14.2065 14.2625C14.2065 12.3274 16.2832 11.2419 20.531 9.82597V8.83481C20.531 7.89086 20.4366 6.09735 19.2095 6.09735C18.3127 6.09735 17.7464 6.94691 17.7464 7.93806C17.7464 8.45723 17.888 9.2124 18.2655 9.73157C18.1711 9.82596 18.0767 9.92036 17.9824 10.0148C15.1977 10.0148 14.2537 9.1652 14.2537 8.22125C14.2537 6.99411 15.7641 5.76697 19.3511 5.76697C21.5694 5.76697 24.0236 6.38054 24.0236 9.30679V13.7434C24.0236 14.6401 24.59 14.9705 24.9676 14.9705C25.3452 14.9705 25.8644 14.3097 25.8644 12.7522H26.2419V12.8466ZM20.4838 11.1003V10.2507C19.2567 10.8171 17.6992 11.9499 17.6992 13.2714C17.6992 14.0266 18.2655 14.3569 18.5959 14.3569C18.8791 14.3569 20.4838 13.9322 20.4838 11.1003Z" fill="black"/>
<path d="M32.8967 16.0561V16.4336H26.0059V16.0561C27.3746 15.9617 27.6578 15.3953 27.6578 14.1681V8.36284C27.6578 7.1829 27.3746 6.56933 26.0059 6.47493V6.09735H31.2448V14.1681C31.2448 15.3953 31.528 15.9617 32.8967 16.0561Z" fill="black"/>
<path d="M38.0885 16.2448C39.0324 16.2448 39.7404 15.8201 39.7404 15.0177C39.7404 12.469 33.1799 12.7994 33.1799 9.30679C33.1799 7.27729 34.7374 5.90856 37.3333 5.90856C38.702 5.90856 39.3156 6.28614 40.2596 6.28614C40.5428 6.28614 41.1091 6.28614 41.2035 5.43658H41.5339L42.2891 10.1092H41.9587C39.7404 7.1357 38.5605 6.23894 37.5221 6.23894C36.7669 6.23894 36.2006 6.61653 36.2006 7.27729C36.2006 9.77877 42.997 9.58998 42.997 13.1298C42.997 15.4425 40.9203 16.5752 38.5605 16.5752C37.0501 16.5752 36.531 16.1033 35.6342 16.1033C34.879 16.1033 34.5959 16.4808 34.4543 16.9528H33.9823L33.0383 11.9499H33.4159C35.4926 15.4897 37.1445 16.2448 38.0885 16.2448Z" fill="black"/>
<path d="M56.6372 16.056V16.4336H51.3982V13.6962C50.8319 15.3009 49.4631 16.6224 47.6696 16.6224C45.6401 16.6224 44.5074 15.5369 44.5074 13.5074V8.31563C44.5074 7.13569 44.2242 6.52212 42.8555 6.42772V6.05014H48.0944V13.3658C48.0944 14.3569 48.472 14.8761 49.3215 14.8761C50.1239 14.8761 51.3982 13.7434 51.4454 12.0914V8.36283C51.4454 7.18288 51.1623 6.56931 49.7935 6.47492V6.09734H55.0325V14.1681C54.9853 15.3953 55.2684 15.9616 56.6372 16.056Z" fill="black"/>
<path d="M31.2449 2.84071C31.2449 3.87906 30.3953 4.68142 29.4042 4.68142C28.3658 4.68142 27.5635 3.83186 27.5635 2.84071C27.5635 1.80236 28.413 1 29.4042 1C30.4425 1 31.2449 1.84956 31.2449 2.84071Z" fill="black"/>
</g>
<path d="M103.074 5.8689H100.379V16.8265H97.0083V5.8689H93.6437L93.6372 2.86521H104.028L103.074 5.8689ZM130.719 5.8689H127.793V16.8265H124.428V5.8689H121.051L121.044 2.86521H131.673L130.719 5.8689ZM107.992 16.8265H104.685L104.659 7.30628H107.992V16.8265ZM112.639 9.33022L115.939 6.10739H119.91L115.739 10.1553L120.413 16.8265H116.745L113.625 12.1921L112.639 13.1461V16.8265H109.313V2.82654H112.639V9.33022ZM147.929 9.33022L151.223 6.10739H155.193L151.023 10.1553L155.664 16.8265H151.996L148.883 12.1921L147.929 13.1461V16.8265H144.597L144.564 2.82654H147.929V9.33022Z" fill="black"/>
<path d="M106.329 6.21697C107.254 6.21697 108.005 5.46665 108.005 4.54109C108.005 3.61553 107.254 2.86522 106.329 2.86522C105.403 2.86522 104.653 3.61553 104.653 4.54109C104.653 5.46665 105.403 6.21697 106.329 6.21697Z" fill="black"/>
<path d="M131.248 11.1286C131.249 8.15493 133.536 5.68204 136.501 5.44994H136.005C132.992 5.62564 130.638 8.12018 130.638 11.1382C130.638 14.1562 132.992 16.6508 136.005 16.8265H136.501C133.529 16.5939 131.239 14.1097 131.248 11.1286Z" fill="#25F4EE"/>
<path d="M137.796 5.4306H137.294C140.249 5.67469 142.523 8.14422 142.523 11.1092C142.523 14.0742 140.249 16.5438 137.294 16.7879H137.796C140.943 16.7879 143.494 14.2368 143.494 11.0899C143.494 7.94299 140.943 5.39192 137.796 5.39192V5.4306Z" fill="#FE2C55"/>
<path d="M136.894 13.9002C135.364 13.9002 134.123 12.6593 134.123 11.1286C134.123 9.59784 135.364 8.35692 136.894 8.35692C138.425 8.35692 139.666 9.59784 139.666 11.1286C139.662 12.6578 138.424 13.8967 136.894 13.9002ZM136.894 5.43059C133.747 5.43059 131.196 7.98166 131.196 11.1286C131.196 14.2755 133.747 16.8265 136.894 16.8265C140.041 16.8265 142.592 14.2755 142.592 11.1286C142.592 10.3803 142.445 9.63935 142.159 8.94804C141.872 8.25673 141.452 7.62859 140.923 7.09949C140.394 6.57038 139.766 6.15067 139.075 5.86432C138.383 5.57797 137.643 5.43059 136.894 5.43059Z" fill="black"/>
<path d="M70.309 7.176C69.957 7.03733 69.6796 6.968 69.477 6.968C69.1036 6.968 68.8103 7.05867 68.597 7.24C68.3836 7.42133 68.277 7.74133 68.277 8.2V9.352H69.861V10.216H68.277V17H67.029V10.216H65.765V9.352H67.029V8.184C67.029 7.42667 67.237 6.872 67.653 6.52C68.069 6.15733 68.549 5.976 69.093 5.976C69.637 5.976 70.117 6.04533 70.533 6.184L70.309 7.176ZM74.8333 9.16C75.9 9.16 76.7587 9.50667 77.4093 10.2C78.0707 10.8933 78.4013 11.8853 78.4013 13.176C78.4013 14.456 78.0707 15.4427 77.4093 16.136C76.7587 16.8293 75.9 17.176 74.8333 17.176C73.7667 17.176 72.9027 16.8293 72.2413 16.136C71.5907 15.4427 71.2653 14.456 71.2653 13.176C71.2653 11.8853 71.5907 10.8933 72.2413 10.2C72.9027 9.50667 73.7667 9.16 74.8333 9.16ZM77.1213 13.176C77.1213 12.2587 76.9293 11.544 76.5453 11.032C76.1613 10.5093 75.596 10.248 74.8493 10.248C74.1133 10.248 73.548 10.5093 73.1533 11.032C72.7587 11.544 72.5613 12.2587 72.5613 13.176C72.5613 14.0827 72.748 14.7973 73.1213 15.32C73.4947 15.832 74.0493 16.088 74.7853 16.088C75.532 16.088 76.108 15.832 76.5133 15.32C76.9187 14.7973 77.1213 14.0827 77.1213 13.176ZM83.9357 10.424C82.7304 10.424 82.1064 11.3733 82.0637 13.272V17H80.7997V9.336H82.0637V10.808C82.4477 9.74133 83.125 9.208 84.0957 9.208C84.405 9.208 84.6984 9.256 84.9757 9.352L84.9117 10.584C84.5917 10.4773 84.2664 10.424 83.9357 10.424Z" fill="#828282"/>
<defs>
<clipPath id="clip0">
<rect width="56.6372" height="16" fill="white" transform="translate(0 1)"/>
</clipPath>
</defs>
</svg>
