<?xml version="1.0" encoding="UTF-8"?>
<svg width="112px" height="32px" viewBox="0 0 112 32" version="1.1" xmlns="http://www.w3.org/2000/svg" xmlns:xlink="http://www.w3.org/1999/xlink">
    <!-- Generator: Sketch 52.6 (67491) - http://www.bohemiancoding.com/sketch -->
    <title>Group 16</title>
    <desc>Created with Sketch.</desc>
    <defs>
        <polygon id="path-1" points="0 0.146417021 27.261583 0.146417021 27.261583 21.0042894 0 21.0042894"></polygon>
        <polygon id="path-3" points="0.237344681 0.180119149 27.4988936 0.180119149 27.4988936 21.0383319 0.237344681 21.0383319"></polygon>
        <polygon id="path-5" points="0.0482042553 0.0541276596 7.45075745 0.0541276596 7.45075745 7.45695319 0.0482042553 7.45695319"></polygon>
    </defs>
    <g id="Desktop" stroke="none" stroke-width="1" fill="none" fill-rule="evenodd">
        <g id="Value-1" transform="translate(-664.000000, -33.000000)">
            <g id="Group-16" transform="translate(664.000000, 33.000000)">
                <g id="Group-3" transform="translate(0.000000, 9.818145)">
                    <mask id="mask-2" fill="white">
                        <use xlink:href="#path-1"></use>
                    </mask>
                    <g id="Clip-2"></g>
                    <path d="M27.261583,20.2553532 L27.261583,21.0042894 L14.6791149,21.0042894 L14.6791149,20.2553532 C17.0386043,20.0306723 16.9262638,18.9821617 16.9262638,16.9974809 L16.9262638,6.58726809 C16.9262638,4.67714043 16.1769872,3.5915234 14.5296681,3.5915234 C12.9191149,3.5915234 10.4476255,5.80088511 10.3352851,9.13365106 L10.3352851,16.9974809 C10.3352851,18.9821617 10.1858383,20.0306723 12.5449872,20.2553532 L12.5449872,21.0042894 L-3.40425532e-05,21.0042894 L-3.40425532e-05,20.2553532 C2.73358298,20.0306723 3.2578383,18.9072681 3.2578383,16.5106723 L3.2578383,5.0141617 C3.2578383,2.65535319 2.73358298,1.49450213 -3.40425532e-05,1.26948085 L-3.40425532e-05,0.520544681 L10.3352851,0.520544681 L10.3352851,5.91322553 C11.4586894,2.73024681 14.1923064,0.146417021 17.7123064,0.146417021 C21.7194553,0.146417021 23.9659234,2.31833191 23.9659234,6.28769362 L23.9659234,16.5106723 C23.9659234,18.9072681 24.4901787,20.0306723 27.261583,20.2553532" id="Fill-1" fill="#FFFFFF" mask="url(#mask-2)"></path>
                </g>
                <path d="M40.483166,20.2998809 L40.483166,18.5769872 C38.0865702,19.7003915 34.9410383,21.9097532 34.9410383,24.5313702 C34.9410383,26.0663489 36.1018894,26.7032851 36.7384851,26.7032851 C37.3001872,26.7032851 40.483166,25.8420085 40.483166,20.2998809 Z M51.8295489,23.7449872 C51.8295489,28.2386043 49.9572085,31.1594553 46.1754213,31.1594553 C42.2806128,31.1594553 40.483166,28.3883915 40.483166,25.3926468 L40.483166,23.9322213 C39.5098894,28.7628596 36.5890383,31.1969021 33.1810383,31.1969021 C30.6721021,31.1969021 28.0133787,29.7364766 28.0133787,26.6658383 C28.0133787,22.808817 32.0950809,20.7117957 40.483166,17.9403915 L40.483166,15.9934979 C40.483166,14.1586043 40.3337191,10.6011574 37.8618894,10.6011574 C36.1018894,10.6011574 34.9410383,12.248817 34.9410383,14.1957106 C34.9410383,15.1979234 35.2552511,16.6716255 35.9715064,17.7405617 C35.7784851,17.9383489 35.5715064,18.1490723 35.3801872,18.3349447 C29.8462298,18.3403915 28.0508255,16.7026043 28.0508255,14.8323064 C28.0508255,12.3986043 31.0091234,9.9645617 38.1618043,9.9645617 C42.5430809,9.9645617 47.3733787,11.1625191 47.3733787,17.0042213 L47.3733787,25.7296681 C47.3733787,27.5267745 48.496783,28.1637106 49.2835064,28.1637106 C50.0324426,28.1637106 51.0809532,26.8156255 51.0809532,23.7449872 L51.8295489,23.7449872 Z" id="Fill-4" fill="#FFFFFF"></path>
                <path d="M65.0107574,30.0734979 L65.0107574,30.822434 L51.4172255,30.822434 L51.4172255,30.0734979 C54.151183,29.848817 54.6754383,28.7254128 54.6754383,26.328817 L54.6754383,14.8323064 C54.6754383,12.4734979 54.151183,11.3126468 51.4172255,11.0876255 L51.4172255,10.3386894 L61.7528851,10.3386894 L61.7528851,26.328817 C61.7528851,28.7254128 62.2771404,29.848817 65.0107574,30.0734979" id="Fill-6" fill="#FFFFFF"></path>
                <path d="M75.3079489,30.4478298 C77.143183,30.4478298 78.5658213,29.5868936 78.5658213,28.0141277 C78.5658213,22.9584681 65.5717787,23.6325106 65.5717787,16.7048511 C65.5717787,12.6980426 68.6798638,9.96442553 73.7726298,9.96442553 C76.5065872,9.96442553 77.7045447,10.7133617 79.5397787,10.7133617 C80.1385872,10.7133617 81.2245447,10.6759149 81.3743319,9.06570213 L82.0483745,9.06570213 L83.584034,18.3150638 L82.9096511,18.3150638 C78.4912681,12.4733617 76.2070128,10.7133617 74.1096511,10.7133617 C72.6492255,10.7133617 71.4883745,11.4622979 71.4883745,12.810383 C71.4883745,17.7533617 84.9321191,17.4163404 84.9321191,24.344 C84.9321191,28.9125106 80.8500766,31.196766 76.1317787,31.196766 C73.136034,31.196766 72.0875234,30.298383 70.3275234,30.298383 C68.8670979,30.298383 68.2679489,31.0095319 68.0058213,31.9457021 L67.1819915,31.9457021 L65.2722043,22.0597447 L66.0211404,22.0597447 C70.1402894,28.9874043 73.4356085,30.4478298 75.3079489,30.4478298" id="Fill-8" fill="#FFFFFF"></path>
                <g id="Group-12" transform="translate(84.425532, 10.158570)">
                    <mask id="mask-4" fill="white">
                        <use xlink:href="#path-3"></use>
                    </mask>
                    <g id="Clip-11"></g>
                    <path d="M27.4989617,19.9149277 L27.4989617,20.6638638 L17.1636426,20.6638638 L17.1636426,15.271183 C16.0398979,18.4545021 13.3066213,21.0383319 9.78628085,21.0383319 C5.77947234,21.0383319 3.53300426,18.866417 3.53300426,14.8970553 L3.53300426,4.67373617 C3.53300426,2.31492766 3.00874894,1.1540766 0.237344681,0.929055319 L0.237344681,0.180119149 L10.5726638,0.180119149 L10.5726638,14.5974809 C10.5726638,16.5447149 11.3216,17.5932255 12.9692596,17.5932255 C14.5794723,17.5932255 17.0513021,15.3835234 17.1636426,12.0507574 L17.1636426,4.67373617 C17.1636426,2.31492766 16.6393872,1.1540766 13.9054298,0.929055319 L13.9054298,0.180119149 L24.2410894,0.180119149 L24.2410894,16.1702468 C24.2410894,18.5668426 24.7653447,19.6902468 27.4989617,19.9149277" id="Fill-10" fill="#FFFFFF" mask="url(#mask-4)"></path>
                </g>
                <g id="Group-15" transform="translate(54.127660, 0.286230)">
                    <mask id="mask-6" fill="white">
                        <use xlink:href="#path-5"></use>
                    </mask>
                    <g id="Clip-14"></g>
                    <path d="M7.45075745,3.75550638 C7.45075745,5.7997617 5.79356596,7.45695319 3.74931064,7.45695319 C1.70539574,7.45695319 0.0482042553,5.7997617 0.0482042553,3.75550638 C0.0482042553,1.71125106 1.70539574,0.0540595745 3.74931064,0.0540595745 C5.79356596,0.0540595745 7.45075745,1.71125106 7.45075745,3.75550638" id="Fill-13" fill="#FFFFFF" mask="url(#mask-6)"></path>
                </g>
            </g>
        </g>
    </g>
</svg>