<svg width="71" height="20" viewBox="0 0 71 20" fill="none" xmlns="http://www.w3.org/2000/svg">
<g clip-path="url(#clip0)">
<path d="M17.2271 18.8201V19.2921H9.26254V18.8201C10.7375 18.7021 10.6785 17.9941 10.6785 16.7552V10.2065C10.6785 9.0266 10.2065 8.31863 9.14454 8.31863C8.14159 8.31863 6.54867 9.73456 6.48967 11.7995V16.7552C6.48967 17.9941 6.37168 18.7021 7.9056 18.8201V19.2921H0V18.8201C1.71091 18.7021 2.0649 17.9941 2.0649 16.4602V9.20359C2.0649 7.72866 1.71091 6.9617 0 6.84371V6.37173H6.54867V9.79356C7.25664 7.78766 8.96755 6.13574 11.2094 6.13574C13.7463 6.13574 15.1622 7.49267 15.1622 10.0295V16.5192C15.1622 17.9941 15.5162 18.7021 17.2271 18.8201Z" fill="black"/>
<path d="M32.8023 14.8083C32.8023 17.6402 31.6224 19.4691 29.2035 19.4691C26.7256 19.4691 25.6047 17.6992 25.6047 15.8112V14.8673C25.0147 17.9351 23.1268 19.4691 21.0029 19.4691C19.41 19.4691 17.7581 18.5251 17.7581 16.5782C17.7581 14.1593 20.3539 12.8024 25.6637 11.0325V9.79355C25.6637 8.61361 25.5457 6.37172 24.0117 6.37172C22.8908 6.37172 22.1828 7.43367 22.1828 8.6726C22.1828 9.32157 22.3598 10.2655 22.8318 10.9145C22.7138 11.0325 22.5958 11.1505 22.4778 11.2685C18.997 11.2685 17.8171 10.2065 17.8171 9.02659C17.8171 7.49266 19.705 5.95874 24.1887 5.95874C26.9616 5.95874 30.0294 6.7257 30.0294 10.3835V15.9292C30.0294 17.0502 30.7374 17.4632 31.2094 17.4632C31.6814 17.4632 32.3303 16.6372 32.3303 14.6903H32.8023V14.8083ZM25.6047 12.6254V11.5635C24.0707 12.2714 22.1238 13.6874 22.1238 15.3393C22.1238 16.2832 22.8318 16.6962 23.2448 16.6962C23.5988 16.6962 25.6047 16.1652 25.6047 12.6254Z" fill="black"/>
<path d="M41.1209 18.8202V19.2922H32.5073V18.8202C34.2182 18.7022 34.5722 17.9942 34.5722 16.4603V9.20368C34.5722 7.72876 34.2182 6.9618 32.5073 6.8438V6.37183H39.056V16.4603C39.056 17.9942 39.41 18.7022 41.1209 18.8202Z" fill="black"/>
<path d="M47.6107 19.056C48.7906 19.056 49.6756 18.525 49.6756 17.5221C49.6756 14.3362 41.475 14.7492 41.475 10.3834C41.475 7.84654 43.4219 6.13562 46.6667 6.13562C48.3776 6.13562 49.1446 6.6076 50.3245 6.6076C50.6785 6.6076 51.3865 6.6076 51.5045 5.54565H51.9174L52.8614 11.3864H52.4484C49.6756 7.66955 48.2006 6.5486 46.9027 6.5486C45.9587 6.5486 45.2508 7.02058 45.2508 7.84654C45.2508 10.9734 53.7464 10.7374 53.7464 15.1622C53.7464 18.053 51.1505 19.469 48.2006 19.469C46.3127 19.469 45.6638 18.879 44.5428 18.879C43.5989 18.879 43.2449 19.351 43.0679 19.9409H42.4779L41.298 13.6872H41.77C44.3658 18.112 46.4307 19.056 47.6107 19.056Z" fill="black"/>
<path d="M70.7965 18.8201V19.2921H64.2478V15.8703C63.5398 17.8762 61.8289 19.5281 59.587 19.5281C57.0502 19.5281 55.6342 18.1712 55.6342 15.6343V9.1446C55.6342 7.66968 55.2803 6.90271 53.5693 6.78472V6.31274H60.118V15.4573C60.118 16.6962 60.59 17.3452 61.6519 17.3452C62.6549 17.3452 64.2478 15.9293 64.3068 13.8644V9.2036C64.3068 7.72867 63.9528 6.96171 62.2419 6.84372V6.37174H68.7906V16.4602C68.7316 17.9942 69.0856 18.7021 70.7965 18.8201Z" fill="black"/>
<path d="M39.056 2.30089C39.056 3.59882 37.9941 4.60177 36.7551 4.60177C35.4572 4.60177 34.4542 3.53982 34.4542 2.30089C34.4542 1.00295 35.5162 0 36.7551 0C38.053 0 39.056 1.06195 39.056 2.30089Z" fill="black"/>
</g>
<defs>
<clipPath id="clip0">
<rect width="70.7965" height="20" fill="white"/>
</clipPath>
</defs>
</svg>
