<?xml version="1.0" encoding="UTF-8"?>
<svg width="112px" height="32px" viewBox="0 0 112 32" version="1.1" xmlns="http://www.w3.org/2000/svg" xmlns:xlink="http://www.w3.org/1999/xlink">
    <!-- Generator: Sketch 52.6 (67491) - http://www.bohemiancoding.com/sketch -->
    <title>Group 16</title>
    <desc>Created with Sketch.</desc>
    <g id="Desktop" stroke="none" stroke-width="1" fill="none" fill-rule="evenodd">
        <g id="Portfolio-Single-Page" transform="translate(-664.000000, -33.000000)" fill="#2200D8">
            <g id="Nav" transform="translate(48.000000, 33.000000)">
                <g id="Group-16" transform="translate(616.000000, 0.000000)">
                    <path d="M27.261583,30.0734979 L27.261583,30.822434 L14.6791149,30.822434 L14.6791149,30.0734979 C17.0386043,29.848817 16.9262638,28.8003064 16.9262638,26.8156255 L16.9262638,16.4054128 C16.9262638,14.4952851 16.1769872,13.4096681 14.5296681,13.4096681 C12.9191149,13.4096681 10.4476255,15.6190298 10.3352851,18.9517957 L10.3352851,26.8156255 C10.3352851,28.8003064 10.1858383,29.848817 12.5449872,30.0734979 L12.5449872,30.822434 L-3.40425532e-05,30.822434 L-3.40425532e-05,30.0734979 C2.73358298,29.848817 3.2578383,28.7254128 3.2578383,26.328817 L3.2578383,14.8323064 C3.2578383,12.4734979 2.73358298,11.3126468 -3.40425532e-05,11.0876255 L-3.40425532e-05,10.3386894 L10.3352851,10.3386894 L10.3352851,15.7313702 C11.4586894,12.5483915 14.1923064,9.9645617 17.7123064,9.9645617 C21.7194553,9.9645617 23.9659234,12.1364766 23.9659234,16.1058383 L23.9659234,26.328817 C23.9659234,28.7254128 24.4901787,29.848817 27.261583,30.0734979" id="Fill-1"></path>
                    <path d="M40.483166,20.2998809 L40.483166,18.5769872 C38.0865702,19.7003915 34.9410383,21.9097532 34.9410383,24.5313702 C34.9410383,26.0663489 36.1018894,26.7032851 36.7384851,26.7032851 C37.3001872,26.7032851 40.483166,25.8420085 40.483166,20.2998809 Z M51.8295489,23.7449872 C51.8295489,28.2386043 49.9572085,31.1594553 46.1754213,31.1594553 C42.2806128,31.1594553 40.483166,28.3883915 40.483166,25.3926468 L40.483166,23.9322213 C39.5098894,28.7628596 36.5890383,31.1969021 33.1810383,31.1969021 C30.6721021,31.1969021 28.0133787,29.7364766 28.0133787,26.6658383 C28.0133787,22.808817 32.0950809,20.7117957 40.483166,17.9403915 L40.483166,15.9934979 C40.483166,14.1586043 40.3337191,10.6011574 37.8618894,10.6011574 C36.1018894,10.6011574 34.9410383,12.248817 34.9410383,14.1957106 C34.9410383,15.1979234 35.2552511,16.6716255 35.9715064,17.7405617 C35.7784851,17.9383489 35.5715064,18.1490723 35.3801872,18.3349447 C29.8462298,18.3403915 28.0508255,16.7026043 28.0508255,14.8323064 C28.0508255,12.3986043 31.0091234,9.9645617 38.1618043,9.9645617 C42.5430809,9.9645617 47.3733787,11.1625191 47.3733787,17.0042213 L47.3733787,25.7296681 C47.3733787,27.5267745 48.496783,28.1637106 49.2835064,28.1637106 C50.0324426,28.1637106 51.0809532,26.8156255 51.0809532,23.7449872 L51.8295489,23.7449872 Z" id="Fill-4"></path>
                    <path d="M65.0107574,30.0734979 L65.0107574,30.822434 L51.4172255,30.822434 L51.4172255,30.0734979 C54.151183,29.848817 54.6754383,28.7254128 54.6754383,26.328817 L54.6754383,14.8323064 C54.6754383,12.4734979 54.151183,11.3126468 51.4172255,11.0876255 L51.4172255,10.3386894 L61.7528851,10.3386894 L61.7528851,26.328817 C61.7528851,28.7254128 62.2771404,29.848817 65.0107574,30.0734979" id="Fill-6"></path>
                    <path d="M75.3079489,30.4478298 C77.143183,30.4478298 78.5658213,29.5868936 78.5658213,28.0141277 C78.5658213,22.9584681 65.5717787,23.6325106 65.5717787,16.7048511 C65.5717787,12.6980426 68.6798638,9.96442553 73.7726298,9.96442553 C76.5065872,9.96442553 77.7045447,10.7133617 79.5397787,10.7133617 C80.1385872,10.7133617 81.2245447,10.6759149 81.3743319,9.06570213 L82.0483745,9.06570213 L83.584034,18.3150638 L82.9096511,18.3150638 C78.4912681,12.4733617 76.2070128,10.7133617 74.1096511,10.7133617 C72.6492255,10.7133617 71.4883745,11.4622979 71.4883745,12.810383 C71.4883745,17.7533617 84.9321191,17.4163404 84.9321191,24.344 C84.9321191,28.9125106 80.8500766,31.196766 76.1317787,31.196766 C73.136034,31.196766 72.0875234,30.298383 70.3275234,30.298383 C68.8670979,30.298383 68.2679489,31.0095319 68.0058213,31.9457021 L67.1819915,31.9457021 L65.2722043,22.0597447 L66.0211404,22.0597447 C70.1402894,28.9874043 73.4356085,30.4478298 75.3079489,30.4478298" id="Fill-8"></path>
                    <path d="M111.924494,30.0734979 L111.924494,30.822434 L101.589174,30.822434 L101.589174,25.4297532 C100.46543,28.6130723 97.7321532,31.1969021 94.2118128,31.1969021 C90.2050043,31.1969021 87.9585362,29.0249872 87.9585362,25.0556255 L87.9585362,14.8323064 C87.9585362,12.4734979 87.4342809,11.3126468 84.6628766,11.0876255 L84.6628766,10.3386894 L94.9981957,10.3386894 L94.9981957,24.7560511 C94.9981957,26.7032851 95.7471319,27.7517957 97.3947915,27.7517957 C99.0050043,27.7517957 101.476834,25.5420936 101.589174,22.2093277 L101.589174,14.8323064 C101.589174,12.4734979 101.064919,11.3126468 98.3309617,11.0876255 L98.3309617,10.3386894 L108.666621,10.3386894 L108.666621,26.328817 C108.666621,28.7254128 109.190877,29.848817 111.924494,30.0734979" id="Fill-10"></path>
                    <path d="M61.578417,4.04173617 C61.578417,6.08599149 59.9212255,7.74318298 57.8769702,7.74318298 C55.8330553,7.74318298 54.1758638,6.08599149 54.1758638,4.04173617 C54.1758638,1.99748085 55.8330553,0.340289362 57.8769702,0.340289362 C59.9212255,0.340289362 61.578417,1.99748085 61.578417,4.04173617" id="Fill-13"></path>
                </g>
            </g>
        </g>
    </g>
</svg>